/* XPM */
static char *_de3c0864f2f448db41a12a53e257460pYeassSNtB8LOirk[] = {
/* columns rows colors chars-per-pixel */
"64 64 8 1 ",
"  c None",
". c black",
"X c #9C5A3C",
"o c #FF7E00",
"O c #2C5E9E",
"+ c #709AD1",
"@ c #B4B4B4",
"# c white",
/* pixels */
"                                                                ",
"                                                                ",
"                              ....                              ",
"                              ....                              ",
"                              ....                              ",
"                           ...OOOO...                           ",
"                           ...OOOO...                           ",
"                           ...OOOO...                           ",
"                           ...++++...                           ",
"                           ...++++...                           ",
"                           ...++++...                           ",
"                           ...++++...                           ",
"                           ...++++...                           ",
"                           ...++++...                           ",
"                           ...++++...                           ",
"                           ...++++...                           ",
"                           ...++++...                           ",
"                           ...++++...                           ",
"                           ...++++...                           ",
"                           ...++++...                           ",
"                           ...++++...                           ",
"                           ...++++...                           ",
"                           ...++++...                           ",
"                           ...++++...                           ",
"                 ....OOOOOOOOOOOOOOOOOOOOOO....                 ",
"                 ....OOOOOOOOOOOOOOOOOOOOOO....                 ",
"                 ....OOOOOOOOOOOOOOOOOOOOOO....                 ",
"             ....++++++++++++++++++++++++++++++....             ",
"             ....++++++++++++++++++++++++++++++....             ",
"             ....++++++++++++++++++++++++++++++....             ",
"             ....++++++++++++++++++++++++++++++....             ",
"             ....++++++++++++++++++++++++++++++....             ",
"             ....+++.....++++++++++++++.....+++....             ",
"             ....+++.....++++++++++++++.....+++....             ",
"         ....+++++++.....++++++++++++++.....+++++++....         ",
"         ....+++++++.....++++++++++++++.....+++++++....         ",
"         ....+++++++.....++++++++++++++.....+++++++....         ",
"      ...oooooooo+++.....++++++++++++++.....+++oooooooo...      ",
"      ...oooooooo+++.....++++++++++++++.....+++oooooooo...      ",
"      ...oooooooo+++.....++++++++++++++.....+++oooooooo...      ",
"      ...oooooooo++++++++++++++++++++++++++++++oooooooo...      ",
"      ...oooooooo++++++++++++++++++++++++++++++oooooooo...      ",
"      ...oooooooo++++++++++++++++++++++++++++++oooooooo...      ",
"      ...oooooooo@@@########################@@@oooooooo...      ",
"      ...oooooooo@@@########################@@@oooooooo...      ",
"      ...oooooooo@@@########################@@@oooooooo...      ",
"      ...ooooXXXXOOO@@@@@@@@@@@@@@@@@@@@@@@@OOOXXXXoooo...      ",
"      ...ooooXXXXOOO@@@@@@@@@@@@@@@@@@@@@@@@OOOXXXXoooo...      ",
"      ...ooooXXXXOOO@@@@@@@@@@@@@@@@@@@@@@@@OOOXXXXoooo...      ",
"         ........OOOOOOOO@@@@@@@@@@@@@@OOOOOOOO........         ",
"         ........OOOOOOOO@@@@@####@@@@@OOOOOOOO........         ",
"         ........OOOOOOOO@@@@@####@@@@@OOOOOOOO........         ",
"             ....OOOOOOOO@@@@@####@@@@@OOOOOOOO....             ",
"             ....OOOOOOOO@@@@@####@@@@@OOOOOOOO....             ",
"             ....OOOOOOOO@@@@@####@@@@@OOOOOOOO....             ",
"             ....OOOOOOOO@@@@@####@@@@@OOOOOOOO....             ",
"             ....++++++++..............++++++++....             ",
"             ....++++++++..............++++++++....             ",
"             ....++++++++..............++++++++....             ",
"                 .............    .............                 ",
"                 .............    .............                 ",
"                 .............    .............                 ",
"                                                                ",
"                                                                "
};
