/* XPM */
static char *fc3985e813ed4cb097b8989928a10a1d8lgK6EMtAGrTqsuS[] = {
/* columns rows colors chars-per-pixel */
"64 64 8 1 ",
"  c None",
". c black",
"X c #9C5A3C",
"o c #FF7E00",
"O c #2C5E9E",
"+ c #709AD1",
"@ c #B4B4B4",
"# c white",
/* pixels */
"                                                                ",
"                                                                ",
"                   ......                                       ",
"                   ......                                       ",
"                   ......                                       ",
"               ....OOO+++...                                    ",
"               ....OOO+++...                                    ",
"               ....OOO+++...                                    ",
"            ...++++OOO+++OOO....                                ",
"            ...++++OOO+++OOO....                                ",
"            ...++++OOO+++OOO....                                ",
"            ...++++OOO+++OOO....                                ",
"            ...++++OOO+++OOO....                                ",
"            ...++++OOO+++OOO....                                ",
"            ...++++OOO+++OOO....                                ",
"            ...++++OOO+++OOO....                                ",
"            ...++++OOO+++OOO....                                ",
"            ...OOOO+++OOOOOO....                                ",
"            ...OOOO+++OOOOOO....                                ",
"            ...OOOO+++OOOOOO....                                ",
"            ...OOOO+++OOOOOO....                                ",
"            ...OOOO+++OOOOOO....                                ",
"            ...OOOO+++OOOOOO....                                ",
"         ...OOOOOOOOOOOOOOOOOOOO....                            ",
"         ...OOOOOOOOOOOOOOOOOOOO....                            ",
"         ...OOOOOOOOOOOOOOOOOOOO....                            ",
"      ...+++++++++++++++++++OOOOOOOO...                         ",
"      ...+++++++++++++++++++OOOOOOOO...                         ",
"      ...+++++++++++++++++++OOOOOOOO...                         ",
"  ....++++++++++++++++++++++++++OOOOOOO...                      ",
"  ....++++++++++++++++++++++++++OOOOOOO...                      ",
"  ....++++++++++++++++++++++++++OOOOOOO...                      ",
"  ....+++...++++++++++++++++++++OOOOOOO...          ......      ",
"  ....+++...++++++++++++++++++++OOOOOOO...          ......      ",
"  ....+++...++++++++++++++++++++OOOOOOO...          ......      ",
"  ....+++...+++oooooooooo+++++++OOOOOOO...       ...@@@@@@....  ",
"  ....+++...+++oooooooooo+++++++OOOOOOO...       ...@@@@@@....  ",
"  ....+++...+++oooooooooo+++++++OOOOOOO...       ...@@@@@@....  ",
"  ....++++++ooooooooooXXXoooOOOOOOOOOOO...   ....@@@OOOOOO....  ",
"  ....++++++ooooooooooXXXoooOOOOOOOOOOO...   ....@@@OOOOOO....  ",
"  ....++++++ooooooooooXXXoooOOOOOOOOOOO...   ....@@@OOOOOO....  ",
"  ....++++++oooooooXXXoooXXXOOOOOOOOOOO......OOOOOOO######....  ",
"  ....++++++oooooooXXXoooXXXOOOOOOOOOOO......OOOOOOO######....  ",
"  ....++++++oooooooXXXoooXXXOOOOOOOOOOO......OOOOOOO######....  ",
"  ....###@@@@@@oooooooXXXOOOOOOOOOOO......OOO    ###@@@@@@....  ",
"  ....###@@@@@@oooooooXXXOOOOOOOOOOO......OOO    ###@@@@@@....  ",
"  ....###@@@@@@oooooooXXXOOOOOOOOOOO......OOO    ###@@@@@@....  ",
"      ...@@@@@@@@@@OOOOOOOOO+++++++++++OOO@@@OOOOOOOOOOOOO....  ",
"      ...@@@@@@@@@@OOOOOOOOO+++++++++++OOO@@@OOOOOOOOOOOOO....  ",
"      ...@@@@@@@@@@OOOOOOOOO+++++++++++OOO@@@OOOOOOOOOOOOO....  ",
"         ......@@@@OOOOOOOOOOOOO++++OOOOOO...@@@@###@@@...      ",
"         ......@@@@OOOOOOOOOOOOO++++OOOOOO...@@@@###@@@...      ",
"         ......@@@@OOOOOOOOOOOOO++++OOOOOO...@@@@###@@@...      ",
"               ....OOOOOOOOOOOOOOOOOOOOOOO   ..........         ",
"               ....OOOOOOOOOOOOOOOOOOOOOOO   ..........         ",
"               ....OOOOOOOOOOOOOOOOOOOOOOO   ..........         ",
"               ....+++OOO.......OOOOOO....                      ",
"               ....+++OOO.......OOOOOO....                      ",
"               ....+++OOO..   ..OOOOOO....                      ",
"                   ........   ........                          ",
"                   ........   ........                          ",
"                   ........   ........                          ",
"                                                                ",
"                                                                "
};
