/* XPM */
static char *_e7346d2abd74152f2b60c0bf2099857UBQbamRnoG4WFxDp[] = {
/* columns rows colors chars-per-pixel */
"64 64 8 1 ",
"  c None",
". c black",
"X c #9C5A3C",
"o c #FF7E00",
"O c #2C5E9E",
"+ c #709AD1",
"@ c #B4B4B4",
"# c white",
/* pixels */
"                                                                ",
"                                                                ",
"                                       ......                   ",
"                                       ......                   ",
"                                       ......                   ",
"                                    ...+++OOO....               ",
"                                    ...+++OOO....               ",
"                                    ...+++OOO....               ",
"                                ....OOO+++OOO++++...            ",
"                                ....OOO+++OOO++++...            ",
"                                ....OOO+++OOO++++...            ",
"                                ....OOO+++OOO++++...            ",
"                                ....OOO+++OOO++++...            ",
"                                ....OOO+++OOO++++...            ",
"                                ....OOO+++OOO++++...            ",
"                                ....OOO+++OOO++++...            ",
"                                ....OOO+++OOO++++...            ",
"                                ....OOOOOO+++OOOO...            ",
"                                ....OOOOOO+++OOOO...            ",
"                                ....OOOOOO+++OOOO...            ",
"                                ....OOOOOO+++OOOO...            ",
"                                ....OOOOOO+++OOOO...            ",
"                                ....OOOOOO+++OOOO...            ",
"                            ....OOOOOOOOOOOOOOOOOOOO...         ",
"                            ....OOOOOOOOOOOOOOOOOOOO...         ",
"                            ....OOOOOOOOOOOOOOOOOOOO...         ",
"                         ...OOOOOOOO+++++++++++++++++++...      ",
"                         ...OOOOOOOO+++++++++++++++++++...      ",
"                         ...OOOOOOOO+++++++++++++++++++...      ",
"                      ...OOOOOOO++++++++++++++++++++++++++....  ",
"                      ...OOOOOOO++++++++++++++++++++++++++....  ",
"                      ...OOOOOOO++++++++++++++++++++++++++....  ",
"      ......          ...OOOOOOO++++++++++++++++++++...+++....  ",
"      ......          ...OOOOOOO++++++++++++++++++++...+++....  ",
"      ......          ...OOOOOOO++++++++++++++++++++...+++....  ",
"  ....@@@@@@...       ...OOOOOOO+++++++oooooooooo+++...+++....  ",
"  ....@@@@@@...       ...OOOOOOO+++++++oooooooooo+++...+++....  ",
"  ....@@@@@@...       ...OOOOOOO+++++++oooooooooo+++...+++....  ",
"  ....OOOOOO@@@....   ...OOOOOOOOOOOoooXXXoooooooooo++++++....  ",
"  ....OOOOOO@@@....   ...OOOOOOOOOOOoooXXXoooooooooo++++++....  ",
"  ....OOOOOO@@@....   ...OOOOOOOOOOOoooXXXoooooooooo++++++....  ",
"  ....######OOOOOOO......OOOOOOOOOOOXXXoooXXXooooooo++++++....  ",
"  ....######OOOOOOO......OOOOOOOOOOOXXXoooXXXooooooo++++++....  ",
"  ....######OOOOOOO......OOOOOOOOOOOXXXoooXXXooooooo++++++....  ",
"  ....@@@@@@###    OOO......OOOOOOOOOOOXXXooooooo@@@@@@###....  ",
"  ....@@@@@@###    OOO......OOOOOOOOOOOXXXooooooo@@@@@@###....  ",
"  ....@@@@@@###    OOO......OOOOOOOOOOOXXXooooooo@@@@@@###....  ",
"  ....OOOOOOOOOOOOO@@@OOO+++++++++++OOOOOOOOO@@@@@@@@@@...      ",
"  ....OOOOOOOOOOOOO@@@OOO+++++++++++OOOOOOOOO@@@@@@@@@@...      ",
"  ....OOOOOOOOOOOOO@@@OOO+++++++++++OOOOOOOOO@@@@@@@@@@...      ",
"      ...@@@###@@@@...OOOOOO++++OOOOOOOOOOOOO@@@@......         ",
"      ...@@@###@@@@...OOOOOO++++OOOOOOOOOOOOO@@@@......         ",
"      ...@@@###@@@@...OOOOOO++++OOOOOOOOOOOOO@@@@......         ",
"         ..........   OOOOOOOOOOOOOOOOOOOOOOO....               ",
"         ..........   OOOOOOOOOOOOOOOOOOOOOOO....               ",
"         ..........   OOOOOOOOOOOOOOOOOOOOOOO....               ",
"                      ....OOOOOO.......OOO+++....               ",
"                      ....OOOOOO.......OOO+++....               ",
"                      ....OOOOOO..   ..OOO+++....               ",
"                          ........   ........                   ",
"                          ........   ........                   ",
"                          ........   ........                   ",
"                                                                ",
"                                                                "
};
