/* XPM */
static char *_87748f6ce904e00c619874d28c89b8bqx7ezPnkwfAz5C9S[] = {
/* columns rows colors chars-per-pixel */
"64 64 8 1 ",
"  c None",
". c black",
"X c #9C5A3C",
"o c #FF7E00",
"O c #2C5E9E",
"+ c #709AD1",
"@ c #B4B4B4",
"# c white",
/* pixels */
"                                                                ",
"                                                                ",
"                              ....                              ",
"                              ....                              ",
"                              ....                              ",
"                           ...++++...                           ",
"                           ...++++...                           ",
"                           ...++++...                           ",
"                           ...OOOO...                           ",
"                           ...OOOO...                           ",
"                           ...OOOO...                           ",
"                           ...OOOO...                           ",
"                           ...OOOO...                           ",
"                           ...OOOO...                           ",
"                           ...OOOO...                           ",
"                           ...OOOO...                           ",
"                           ...OOOO...                           ",
"                           ...OOOO...                           ",
"                           ...OOOO...                           ",
"                           ...OOOO...                           ",
"                           ...OOOO...                           ",
"                           ...OOOO...                           ",
"                           ...OOOO...                           ",
"                           ...OOOO...                           ",
"                 ....OOOOOOOOOOOOOOOOOOOOOO....                 ",
"                 ....OOOOOOOOOOOOOOOOOOOOOO....                 ",
"                 ....OOOOOOOOOOOOOOOOOOOOOO....                 ",
"             ....++++OOOOOOOOOOOOOOOOOOOOOO++++....             ",
"             ....++++OOOOOOOOOOOOOOOOOOOOOO++++....             ",
"             ....++++OOOOOOOOOOOOOOOOOOOOOO++++....             ",
"             ....OOOOOOOOOOOOO....OOOOOOOOOOOOO....             ",
"             ....OOOOOOOOOOOOO....OOOOOOOOOOOOO....             ",
"             ....OOOOOOOOOOOOO....OOOOOOOOOOOOO....             ",
"             ....OOOOOOOOOOOOO....OOOOOOOOOOOOO....             ",
"         ....++++OOOOOOOO.....####.....OOOOOOOO++++....         ",
"         ....++++OOOOOOOO.....####.....OOOOOOOO++++....         ",
"         ....++++OOOOOOOO.....####.....OOOOOOOO++++....         ",
"      ...ooooooooOOOOOOOO.....OOOO.....OOOOOOOOoooooooo...      ",
"      ...ooooooooOOOOOOOO.....OOOO.....OOOOOOOOoooooooo...      ",
"      ...ooooooooOOOOOOOO.....OOOO.....OOOOOOOOoooooooo...      ",
"      ...ooooooooOOOOOOOO.....####.....OOOOOOOOoooooooo...      ",
"      ...ooooooooOOOOOOOO.....####.....OOOOOOOOoooooooo...      ",
"      ...ooooooooOOOOOOOO.....####.....OOOOOOOOoooooooo...      ",
"      ...XXXoooooOOOOOOOO.....@@@@.....OOOOOOOOoooooXXX...      ",
"      ...XXXoooooOOOOOOOO.....@@@@.....OOOOOOOOoooooXXX...      ",
"      ...XXXoooooOOOOOOOO.....@@@@.....OOOOOOOOoooooXXX...      ",
"      ...oooXXXXX++++OOOO.....OOOO.....OOOO++++XXXXXooo...      ",
"      ...oooXXXXX++++OOOO.....OOOO.....OOOO++++XXXXXooo...      ",
"      ...oooXXXXX++++OOOO.....OOOO.....OOOO++++XXXXXooo...      ",
"         ........OOOOOOOO.....####.....OOOOOOOO........         ",
"         ........OOOOOOOO.....####.....OOOOOOOO........         ",
"         ........OOOOOOOO.....####.....OOOOOOOO........         ",
"             ....OOOOOOOO.....####.....OOOOOOOO....             ",
"             ....OOOOOOOOOOOOO....OOOOOOOOOOOOO....             ",
"             ....OOOOOOOOOOOOO....OOOOOOOOOOOOO....             ",
"             ....OOOOOOOOOOOOO....OOOOOOOOOOOOO....             ",
"             ....OOOOOOOO..............OOOOOOOO....             ",
"             ....OOOOOOOO..............OOOOOOOO....             ",
"             ....OOOOOOOO..............OOOOOOOO....             ",
"                 .............    .............                 ",
"                 .............    .............                 ",
"                 .............    .............                 ",
"                                                                ",
"                                                                "
};
