/* XPM */
static char *e2ff31aebb934d4fddbcdfc464d898b5K7RW7k6oqtOieKL9[] = {
/* columns rows colors chars-per-pixel */
"64 64 29 1 ",
"  c None",
". c black",
"X c gray5",
"o c #0E0E0E",
"O c gray16",
"+ c gray28",
"@ c #484848",
"# c gray32",
"$ c #646464",
"% c #656565",
"& c #A63232",
"* c #DC0000",
"= c #838383",
"- c #898989",
"; c gray54",
": c #909090",
"> c gray58",
", c #979797",
"< c #9F9F9F",
"1 c #A5A5A5",
"2 c #B9B9B9",
"3 c gray78",
"4 c #D8D8D8",
"5 c gainsboro",
"6 c #DDDDDD",
"7 c gray87",
"8 c gray94",
"9 c #F1F1F1",
"0 c white",
/* pixels */
"                                                                ",
"                                                                ",
"                                                                ",
"                                                                ",
"                                                                ",
"                                                                ",
"                                                                ",
"                                                                ",
"                                                                ",
"                                                                ",
"                                                                ",
"                                                                ",
"                                                                ",
"                                                                ",
"                                                                ",
"                                                                ",
"                                                                ",
"                                                                ",
"                                                                ",
"                                                                ",
"                                                                ",
"                                                                ",
"                                                                ",
"                                                                ",
"                                                                ",
"                                                                ",
"                          ............                          ",
"                          ............                          ",
"                          @##########+                          ",
"                    ......***********&......                    ",
"                    ......***********&......                    ",
"                  ..*****************&&&&&&$..                  ",
"                  ..*****************&&&&&&&..                  ",
"                  ..********************&&&&..                  ",
"                  ..********************&&&&..                  ",
"                  ..***000000***********&&&&..                  ",
"                  ..***000007***********&&&&..                  ",
"                  OO****00077************&&&OO                  ",
"               ...***********************&&&&&o..               ",
"               ...*************************&&&o..               ",
"               ...*************************&&&o..               ",
"               ...*************************&&&o..               ",
"               ...*************************&&&o..               ",
"               ......*********....*********...o..               ",
"               ......********..00..********...o..               ",
"               ......*******..0007..*******...o..               ",
"               ...888.........0077......... 07o..               ",
"               ...888.........7777.........077o..               ",
"               ...220..........77..........772o..               ",
"                  OO0000000000....000000007=OO                  ",
"                  ..<0000000000000000000007:..                  ",
"                  ..<0000000000000000000007:..                  ",
"                  ..>0000000000000000077777:..                  ",
"                  ..-0000000000000000077777:..                  ",
"                  ..-7700000077774747777777:..                  ",
"                  ..$--<<<488777777773-----$..                  ",
"                    ......>77777777771......                    ",
"                    ......>77777777771......                    ",
"                          @##########+                          ",
"                          ............                          ",
"                          ............                          ",
"                                                                ",
"                                                                ",
"                                                                "
};
