/* XPM */
static char *_96eebe236fe4e19e61f8692fe12ad555ms0wY6zGmHTpo7b[] = {
/* columns rows colors chars-per-pixel */
"64 64 124 2 ",
"   c None",
".  c black",
"X  c #060000",
"o  c #0B0000",
"O  c #0C0000",
"+  c #0D0000",
"@  c gray5",
"#  c #0E0E0E",
"$  c gray6",
"%  c #150F0F",
"&  c #1E1E1E",
"*  c #240000",
"=  c #2C0000",
"-  c #2D0000",
";  c #320000",
":  c #380000",
">  c #3D0000",
",  c #222222",
"<  c #252525",
"1  c #272727",
"2  c gray16",
"3  c gray24",
"4  c #3E3E3E",
"5  c #3F3F3F",
"6  c #430000",
"7  c #440000",
"8  c #460000",
"9  c #4E0000",
"0  c #520000",
"q  c #560000",
"w  c #570000",
"e  c #600000",
"r  c #640000",
"t  c #650000",
"y  c #6A0000",
"u  c #760000",
"i  c #7B0000",
"p  c #7D0303",
"a  c #502C2C",
"s  c #5B2D2D",
"d  c gray26",
"f  c gray28",
"g  c #484848",
"h  c #494949",
"j  c #4B4B4B",
"k  c #515151",
"l  c gray32",
"z  c gray33",
"x  c #555555",
"c  c #565656",
"v  c gray34",
"b  c gray37",
"n  c #5F5F5F",
"m  c #606060",
"M  c #646464",
"N  c gray40",
"B  c #686868",
"V  c DimGray",
"C  c gray43",
"Z  c #6F6F6F",
"A  c #7B7B7B",
"S  c gray50",
"D  c #810000",
"F  c #870000",
"G  c #880000",
"H  c #890000",
"J  c #8F0000",
"K  c #910000",
"L  c #920000",
"P  c #940000",
"I  c #970000",
"U  c #9A0000",
"Y  c #9E0000",
"T  c #9E0303",
"R  c #A30000",
"E  c #A50000",
"W  c #A80000",
"Q  c #AA0000",
"!  c #B30000",
"~  c #B40000",
"^  c #B50000",
"/  c #B60000",
"(  c #B70000",
")  c #BD0000",
"_  c #C00000",
"`  c #C60000",
"'  c #C80000",
"]  c #CE0000",
"[  c #CF0000",
"{  c #D00000",
"}  c #DC0000",
"|  c #DF0000",
" . c #E20000",
".. c #838383",
"X. c #898989",
"o. c gray54",
"O. c gray56",
"+. c #909090",
"@. c gray58",
"#. c #979797",
"$. c gray61",
"%. c gray62",
"&. c #9F9F9F",
"*. c #A5A5A5",
"=. c #B3B1B1",
"-. c #B2B2B2",
";. c #B7B7B7",
":. c #B9B9B9",
">. c #C0C0C0",
",. c gray76",
"<. c gray78",
"1. c #CECECE",
"2. c gray81",
"3. c #D8D8D8",
"4. c gainsboro",
"5. c #DDDDDD",
"6. c gray87",
"7. c #E4E4E4",
"8. c #E6E6E6",
"9. c gray93",
"0. c #EFEFEF",
"q. c #F1F1F1",
"w. c gray97",
"e. c white",
/* pixels */
"                                                                                                                                ",
"                                                                                                                                ",
"                                                                                                                                ",
"                                                                                                                                ",
"                                                                                                                                ",
"                                                                                                                                ",
"                                                                                                                                ",
"                                                                                                                                ",
"                                                                                                                                ",
"                                                                                                                                ",
"                                                                                                                                ",
"                                                                                                                                ",
"                                                                                                                                ",
"                                                    } } E X . . . . . D ~ ~                                                     ",
"                                                    } } E X . . . . . D ~ ~                                                     ",
"                                                    } } E X . . . . . D ~ ~                                                     ",
"                                         .} } ' ~ ~ : . 5 w.e.e.4.4.4.5 . = ~ ~ ~ ~ ~ ~                                         ",
"                                         .} } ' ~ ~ : . 5 w.e.e.4.4.4.5 . = ~ ~ ~ ~ ~ ~                                         ",
"                                        Q Y Y J D D 0 > s =.;.;.&.&.&.a ; 7 D D D D D H                                         ",
"                                    } } w O O O o o K ] Y % $ $ $ $ $ p Q D o o o o o 7 ! !                                     ",
"                                    } } 0 . . . . . I } E X . . . . . D ~ F . . . . . > ~ ~                                     ",
"                                    i i y e e e e e ~ } ) r e e 9 9 9 I ~ U 9 9 9 9 9 w r r                                     ",
"                                    . . H } } } } } } } } } } } ~ ~ ~ ~ ~ ~ ~ ~ ~ ~ ~ u . .                                     ",
"                                    . . H } } } } } } } } } } } ~ ~ ~ ~ ~ ~ ~ ~ ~ ~ ~ u . .                                     ",
"                                    7 7 R } } } } } } } } } } } _ _ _ ~ ~ ~ ~ ~ ~ ~ ~ H : :                                     ",
"                              ~ ~ ~ } } } } } } } } } } } } } } } } } ~ ~ ~ ~ ~ ~ ~ ~ ~ ~ ~ ~ ~ ~                               ",
"                              ~ ~ ~ } } } } } } } } } } } } } } } } } ~ ~ ~ ~ ~ ~ ~ ~ ~ ~ ~ ~ ~ ~                               ",
"                              K K K } } } } } } } } } } } } } } } } } ~ ~ ~ ~ ~ ~ ~ ~ ~ ~ ~ I K K                               ",
"                              . . . } } } } } } } } } } } } } } } } } ~ ~ ~ ~ ~ ~ ~ ~ ~ ~ ~ o . .                               ",
"                              . . . } } } } } } } } } } } } } } } } } ~ ~ ~ ~ ~ ~ ~ ~ ~ ~ ~ o . .                               ",
"                              . . . } } } } } } } } } } } } } } ` ` ` ~ ~ ~ ~ ~ ~ ~ ~ ~ ~ ~ o . .                               ",
"                              . . . } } } } } } } } } } } } } } ~ ~ ~ ~ ~ ~ ~ ~ ~ ~ ~ ~ ~ ~ o . .                               ",
"                              . . . } } } } } } } } } } } } } } ~ ~ ~ ~ ~ ~ ~ ~ ~ ~ ~ ~ ~ ~ o . .                               ",
"                              . . . } } } } } } } { ~ ~ ~ ~ ~ ~ ~ ~ ~ ~ ~ ~ ~ ~ ~ ~ ~ ~ ~ ~ o . .                               ",
"                                    . . H } } } } ] ~ ~ ~ ~ ~ ~ ~ ~ ~ ~ ~ ~ ~ ~ ~ ~ ~ u . .                                     ",
"                                    . . H } } } } ] ~ ~ ~ ~ ~ ~ ~ ~ ~ ~ ~ ~ ~ ~ ~ ~ ~ u . .                                     ",
"                                    . . H } } } } ] ~ ~ ~ ~ ~ ~ ~ ~ ~ ~ ~ ~ ~ ~ ~ ~ ~ u . .                                     ",
"                                        . . . . . : ~ ~ ~ ~ ~ ~ ~ ~ ~ ~ ~ ~ 6 . . . . .                                         ",
"                                        . . . . . : ~ ~ ~ ~ ~ ~ ~ ~ ~ ~ ~ ~ 6 . . . . .                                         ",
"                                        g x l . . * u u u u u u u u u u u u = . . d g 5                                         ",
"                                    . . &.e.0.. . . . . . . . . . . . . . . . . . ,.4.+.. .                                     ",
"                                    . . &.e.0.. . . . . . . . . . . . . . . . . . ,.4.+.. .                                     ",
"                              . . . O.O.A C B . . . . . . . . . . . . . . . . . . x m B A A $ . .                               ",
"                              . . . e.e.b . . . . . . . . . . . . . . . . . . . . . . g 4.4.$ . .                               ",
"                              . . . e.e.b . . . . . . . . . . . . . . . . . . . . . . g 4.4.$ . .                               ",
"                              . . . e.e.b . . . . . . . . . . . . . . . . . . . . . . g 4.4.$ . .                               ",
"                              . . . 8.8.x . . . . . . . . . . . . . . . . . . . . . . g 4.4.$ . .                               ",
"                              . . . 4.4.l . . . . . . . . . . . . . . . . . . . . . . g 4.4.$ . .                               ",
"                              . . . :.:.b 1 1 . . . . . . . . . . . . . . . . . . & , x :.:.$ . .                               ",
"                                    2 2 +.2.,.. . . . . . . . . . . . . . . . . . &.=...2 2                                     ",
"                                    . . &.e.0.. . . . . . . . . . . . . . . . . . ,.4.+.. .                                     ",
"                                    . . &.e.0.. . . . . . . . . . . . . . . . . . ,.4.+.. .                                     ",
"                                    . . @.0.8.S S S S S S C C C C C C C C C C C C 2.4.+.. .                                     ",
"                                    . . X.4.4.e.e.e.e.e.e.4.4.4.4.4.4.4.4.4.4.4.4.4.4.+.. .                                     ",
"                                    . . X.4.4.e.e.e.e.e.e.4.4.4.4.4.4.4.4.4.4.4.4.4.4.+.. .                                     ",
"                                    . . M X.X.&.&.&.3.q.q.4.4.4.4.4.4.4.4.<.X.X.X.X.X.M . .                                     ",
"                                        . . . . . . @.4.4.4.4.4.4.4.4.4.4.*.. . . . . .                                         ",
"                                        . . . . . . @.4.4.4.4.4.4.4.4.4.4.*.. . . . . .                                         ",
"                                                    g l l l l l l l l l l f                                                     ",
"                                                    . . . . . . . . . . . .                                                     ",
"                                                    . . . . . . . . . . . .                                                     ",
"                                                                                                                                ",
"                                                                                                                                ",
"                                                                                                                                "
};
