/* XPM */
static char *b5d9ca98daee4c2dc7057776c06839c3jyRtTDKQekuvpEuR[] = {
/* columns rows colors chars-per-pixel */
"64 64 13 1 ",
"  c None",
". c black",
"X c #B16719",
"o c #E0B167",
"O c #343D90",
"+ c #4E5F98",
"@ c #5667B8",
"# c #6788B1",
"$ c #FFE8A0",
"% c #88A0FF",
"& c #B8C0C8",
"* c #B8D0FF",
"= c white",
/* pixels */
"                                                                ",
"                                                                ",
"                                                                ",
"                                                                ",
"                                                                ",
"                         ..............                         ",
"                         ..............                         ",
"                         ..............                         ",
"                   ......+++########+++......                   ",
"                   ......+++########+++......                   ",
"                   ......+++########+++......                   ",
"                ...OOO####################OOO...                ",
"                ...OOO####################OOO...                ",
"                ...OOO####################OOO...                ",
"                ...##########################...                ",
"                ...##########################...                ",
"                ...##########################...                ",
"             ...+++##########################+++...             ",
"             ...+++##########################+++...             ",
"             ...+++##########################+++...             ",
"             ...###======%%%###**###%%%======###...             ",
"             ...###======%%%###**###%%%======###...             ",
"             ...###======%%%###**###%%%======###...             ",
"             ...===...&&&===********===&&&...===...             ",
"             ...===...&&&===********===&&&...===...             ",
"             ...===...&&&===********===&&&...===...             ",
"             ...&&&...======&&&oo&&&======...&&&...             ",
"             ...&&&...======&&&oo&&&======...&&&...             ",
"             ...&&&...======&&&oo&&&======...&&&...             ",
"             ...###......===oooooooo===......###...             ",
"             ...###......===oooooooo===......###...             ",
"             ...###......===oooooooo===......###...             ",
"                ...###&&&&&&ooo$$ooo&&&&&&###...                ",
"                ...###&&&&&&ooo$$ooo&&&&&&###...                ",
"                ...###&&&&&&ooo$$ooo&&&&&&###...                ",
"                   ...OOO###&&&XX&&&###OOO...                   ",
"                   ...OOO###&&&XX&&&###OOO...                   ",
"                   ...OOO###&&&XX&&&###OOO...                   ",
"             ......############OO############......             ",
"             ......############OO############......             ",
"             ......############OO############......             ",
"          ...%%%***OOO######OOO%%OOO######OOO***%%%...          ",
"          ...%%%***OOO######OOO%%OOO######OOO***%%%...          ",
"          ...%%%***OOO######OOO%%OOO######OOO***%%%...          ",
"       ...******%%%@@@OOOOOO===**===OOOOOO@@@%%%******...       ",
"       ...******%%%@@@OOOOOO===**===OOOOOO@@@%%%******...       ",
"       ...******%%%@@@OOOOOO===**===OOOOOO@@@%%%******...       ",
"          ............%%%***===**===***%%%............          ",
"          ............%%%***===**===***%%%............          ",
"          ............%%%***===**===***%%%............          ",
"                   ...@@@%%%%%%%%%%%%%%@@@...                   ",
"                   ...@@@%%%%%%%%%%%%%%@@@...                   ",
"                   ...@@@%%%%%%%%%%%%%%@@@...                   ",
"                   ...XXXXXX........XXXXXX...                   ",
"                   ...XXXXXX........XXXXXX...                   ",
"                   ...XXXXXX........XXXXXX...                   ",
"                ...$$$ooo...        ...ooo$$$...                ",
"                ...$$$ooo...        ...ooo$$$...                ",
"                ...$$$ooo...        ...ooo$$$...                ",
"                .........              .........                ",
"                .........              .........                ",
"                .........              .........                ",
"                                                                ",
"                                                                "
};
