/* XPM */
static char *_9c842fc087a4aff9f0b7535846326ecwKQX8UgNLofygrIo[] = {
/* columns rows colors chars-per-pixel */
"64 64 30 1 ",
"  c None",
". c black",
"X c #020000",
"o c #000002",
"O c #020202",
"+ c #AD671F",
"@ c #AF671F",
"# c #DDAD67",
"$ c #DFAF67",
"% c #373F8D",
"& c #373F8F",
"* c #37418F",
"= c #39418F",
"- c #4F5F95",
"; c #4F5F97",
": c #5767B7",
"> c #6785AD",
", c #6787AF",
"< c #6987AF",
"1 c #FDE59D",
"2 c #FFE59E",
"3 c #B7BFC7",
"4 c #859DFD",
"5 c #879FFF",
"6 c #B5CDFD",
"7 c #B7CFFF",
"8 c #FDFDFD",
"9 c #FFFDFD",
"0 c #FFFFFD",
"q c white",
/* pixels */
"                                                                ",
"                                                                ",
"                                                                ",
"                                                                ",
"                                                                ",
"                                                                ",
"                      oooooooooooooooo                          ",
"                      oooooooooooooooo                          ",
"                      oooooooooooooooo                          ",
"                oooooo;;;,,,,,,,,,,;;;oooooo                    ",
"                oooooo;;;,,,,,,,,,,;;;oooooo                    ",
"                oooooo;;;,,,,,,,,,,;;;oooooo                    ",
"             ooo&&&&;;,,,,,,,,,,,,,,,,,,,;;;oo                  ",
"             ooo&&&&;;,,,,,,,,,,,,,,,,,,,;;;oo                  ",
"             ooo&&&&;;,,,,,,,,,,,,,,,,,,,;;;oo                  ",
"             ooo&&&&;;,,,,,,,,,,,,,,,,,,,;;;oo                  ",
"             ooo;;;;,,,,,,,,,,,,,,,,,,,,,,,,oo                  ",
"             ooo;;;;,,,,,,,,,,,,,,,,,,,,,,,,oo                  ",
"             ooo;;;;,,,,,,,,,,,,,,,,,,,,,,,,oo                  ",
"          ooo&&&,,,,,,,,,,,,,,,333333355577755oooo              ",
"          ooo&&&,,,,,,,,,,,,,,,333333355577755oooo              ",
"          ooo&&&,,,,,,,,,,,,,,,333333355577755oooo              ",
"          ooo;;;,,,,,,,,,,,,333qqqqqqqqqq55577oooo              ",
"          ooo;;;,,,,,,,,,,,,333qqqqqqqqqq55577oooo              ",
"          ooo;;;,,,,,,,,,,,,333qqqqqqqqqq55577oooo              ",
"          ooo;;;;;;;,,,,,<<<qqqqqqqqqqooo333qq$$$$ooo           ",
"          ooo;;;;;;;,,,,,<<<qqqqqqqqqqooo333qq$$$$ooo           ",
"          ooo;;;;;;;,,,,,<<<qqqqqqqqqqooo333qq$$$$ooo           ",
"          ooo&&&;;;;,,,,,,,,333qqqqqqqoooqqqqq1111@@@ooo        ",
"          ooo&&&;;;;,,,,,,,,333qqqqqqqoooqqqqq1111@@@ooo        ",
"          ooo&&&;;;;,,,,,,,,333qqqqqqqoooqqqqq1111@@@ooo        ",
"             ooo;;;;;;;;;,,,3333333qqqooooooqq@@@@$$$ooo        ",
"             ooo;;;;;;;;;,,,3333333qqqooooooqq@@@@$$$ooo        ",
"             ooo;;;;;;;;;,,,3333333qqqooooooqq@@@@$$$ooo        ",
"             ooo;;;;;;;;;,,,3333333qqqooooooqq@@@@$$$ooo        ",
"          oooooooooo&&;;;;;;,,,3333333333333,,ooooooo           ",
"          oooooooooo&&;;;;;;,,,3333333333333,,ooooooo           ",
"          oooooooooo&&;;;;;;,,,3333333333333,,ooooooo           ",
"          ooo;;;oooooo;;;,,,,,,,,,,,,,;;;ooooo                  ",
"          ooo;;;oooooo;;;,,,,,,,,,,,,,;;;ooooo                  ",
"          ooo;;;oooooo;;;,,,,,,,,,,,,,;;;ooooo                  ",
"          ooo&&&;;;;;;,,,,,,&&&&&&&,,,,,,,,,;;oooo              ",
"          ooo&&&;;;;;;,,,,,,&&&&&&&,,,,,,,,,;;oooo              ",
"          ooo&&&;;;;;;,,,,,,&&&&&&&,,,,,,,,,;;oooo              ",
"             ooo;;;;,,,,,***7777777555;;;,,,,,oooo              ",
"             ooo;;;;,,,,,***7777777555;;;,,,,,oooo              ",
"             ooo;;;;,,,,,***7777777555;;;,,,,,oooo              ",
"             ooo&&&&;;&&&ooo:::;;;;ooo===qqqoo                  ",
"             ooo&&&&;;&&&ooo:::;;;;ooo===qqqoo                  ",
"             ooo&&&&;;&&&ooo:::;;;;ooo===qqqoo                  ",
"                oooo&&:::,,,ooooooo&&&;;;555oo                  ",
"                oooo&&:::,,,ooooooo&&&;;;555oo                  ",
"                oooo&&:::,,,ooooooo&&&;;;555oo                  ",
"                oooo&&:::,,,ooooooo&&&;;;555oo                  ",
"                    oo@@@@@@ooo&&&&;;;&&&ooooo                  ",
"                    oo@@@@@@ooo&&&&;;;&&&ooooo                  ",
"                    oo@@@@@@ooo&&&&;;;&&&ooooo                  ",
"                      oooooo   oooo@@@$$$$$$11oooo              ",
"                      oooooo   oooo@@@$$$$$$11oooo              ",
"                      oooooo   oooo@@@$$$$$$11oooo              ",
"                                   ooooooooooooooo              ",
"                                   ooooooooooooooo              ",
"                                   ooooooooooooooo              ",
"                                                                "
};
