/* XPM */
static char *fe1e8c66033447849a000623d3680447XzLAiycQDQqIEHzg[] = {
/* columns rows colors chars-per-pixel */
"64 64 33 1 ",
"  c None",
". c black",
"X c #070000",
"o c #070700",
"O c #000007",
"+ c #000407",
"@ c #000707",
"# c #070707",
"$ c #A8671F",
"% c #AF671F",
"& c #D8A867",
"* c #DFAF67",
"= c #373F88",
"- c #373F8F",
"; c #37468F",
": c #4F5F90",
"> c #4F5F97",
", c #5767B0",
"< c #5767B7",
"1 c #6780A8",
"2 c #6787AF",
"3 c #6E87AF",
"4 c #F8E098",
"5 c #FFE09E",
"6 c #B0B8C0",
"7 c #B7BFC7",
"8 c #8098F8",
"9 c #879FFF",
"0 c #B0C8F8",
"q c #B7CFFF",
"w c #F8F8F8",
"e c #F8FFFF",
"r c white",
/* pixels */
"                                                                ",
"                                                                ",
"                                                                ",
"                                                                ",
"                                                                ",
"                          OOO@@@@@@@@@OOO                       ",
"                          OOO@@@@@@@@@OOO                       ",
"                          OOO@@@@@@@@@OOO                       ",
"                    OOO@@@>>>222222222>>>OOOOOO                 ",
"                    OOO@@@>>>222222222>>>OOOOOO                 ",
"                    OOO@@@>>>222222222>>>OOOOOO                 ",
"                 ...>>>222222222222222222>>>---...              ",
"                 ...>>>222222222222222222>>>---...              ",
"                 ...>>>222222222222222222>>>---...              ",
"                 ###222222222222222222222222>>>OOO              ",
"                 ###222222222222222222222222>>>OOO              ",
"                 ###222222222222222222222222>>>OOO              ",
"              ...999qqq999777777222222222222222---...           ",
"              ...999qqq999777777222222222222222---...           ",
"              ...999qqq999777777222222222222222---...           ",
"              oooqqq999wwwrrrrrr777222222222222>>>...           ",
"              oooqqq999wwwrrrrrr777222222222222>>>...           ",
"              oooqqq999wwwrrrrrr777222222222222>>>...           ",
"           XXX***rrr777...rrrrrrrrr222222222>>>>>>...           ",
"           XXX***rrr777...rrrrrrrrr222222222>>>>>>...           ",
"           XXX***rrr777...rrrrrrrrr222222222>>>>>>...           ",
"        ...%%%555rrrwww...rrrrrr777222222222>>>===...           ",
"        ...%%%555rrrwww...rrrrrr777222222222>>>===...           ",
"        ...%%%555rrrwww...rrrrrr777222222222>>>===...           ",
"        ...&&&$$$eee######rrr777777222>>>>>>:::...              ",
"        ...&&&$$$eee######rrr777777222>>>>>>:::...              ",
"        ...&&&$$$eee######rrr777777222>>>>>>:::...              ",
"           ......111666777777777222>>>>>>===...                 ",
"           ......111666777777777222>>>>>>===...                 ",
"           ......111666777777777222>>>>>>===...                 ",
"                 OOO@@@>>>222222222222>>>OOO      @@@...        ",
"                 OOO@@@>>>222222222222>>>OOO      @@@...        ",
"                 OOO@@@>>>222222222222>>>OOO      @@@...        ",
"              ...>>>222222222------222222>>>OOO@@@111...        ",
"              ...>>>222222222------222222>>>OOO@@@111...        ",
"              ...>>>222222222------222222>>>OOO@@@111...        ",
"              ...111333>>>;;;999,,,---222222---222...           ",
"              ...111333>>>;;;999,,,---222222---222...           ",
"              ...111333>>>;;;999,,,---222222---222...           ",
"                 ...rrr---qqqqqq###,,,--->>>:::===...           ",
"                 ...rrr---qqqqqq###,,,--->>>:::===...           ",
"                 ...rrr---qqqqqq###,,,--->>>:::===...           ",
"                 ...888:::qqq999999...<<<---......              ",
"                 ...888:::qqq999999...<<<---......              ",
"                 ...888:::qqq999999...<<<---......              ",
"                    ......888000000OOO888,,,...                 ",
"                    ......888000000OOO888,,,...                 ",
"                    ......888000000OOO888,,,...                 ",
"                       ###ooooooXXX,,,......                    ",
"                       ###ooooooXXX,,,......                    ",
"                       ###ooooooXXX,,,......                    ",
"                    ...444&&&&&&$$$...                          ",
"                    ...444&&&&&&$$$...                          ",
"                    ...444&&&&&&$$$...                          ",
"                       ............                             ",
"                       ............                             ",
"                       ............                             ",
"                                                                ",
"                                                                "
};
