/* XPM */
static char *_2312e8330dc4884dabeaa15e5f7310cdYgxuYwwYOXg0f2X[] = {
/* columns rows colors chars-per-pixel */
"64 64 35 1 ",
"  c None",
". c black",
"X c #040000",
"o c #040400",
"O c #000004",
"+ c #000404",
"@ c #040404",
"# c #AD6719",
"$ c #B16719",
"% c #B1671D",
"& c #E0B167",
"* c #E0B16B",
"= c #343D8C",
"- c #343D90",
"; c #4E5F94",
": c #4E5F98",
"> c #5667B4",
", c #5667B8",
"< c #6784AD",
"1 c #6788B1",
"2 c #6B88B1",
"3 c #FBE49C",
"4 c #FFE8A0",
"5 c #B4BCC4",
"6 c #849CFB",
"7 c #88A0FF",
"8 c #B8C0C4",
"9 c #B8C0C8",
"0 c #B4CCFB",
"q c #B4CCFF",
"w c #B8D0FF",
"e c #FBFBFB",
"r c #FFFFFB",
"t c #FBFFFF",
"y c white",
/* pixels */
"                                                                ",
"                                                                ",
"                                                                ",
"                                                                ",
"                                                                ",
"                                                                ",
"                          ...............                       ",
"                          ...............                       ",
"                          ...............                       ",
"                    ...OOO:::111111111;;;......                 ",
"                    ...OOO:::111111111;;;......                 ",
"                    ...OOO:::111111111;;;......                 ",
"                 OOO---111111111111111111111===...              ",
"                 OOO---111111111111111111111===...              ",
"                 OOO---111111111111111111111===...              ",
"                 +++111111111111111111111111<<<...              ",
"                 +++111111111111111111111111<<<...              ",
"                 +++111111111111111111111111<<<...              ",
"              OOO:::111111111111111111111111111;;;...           ",
"              OOO:::111111111111111111111111111;;;...           ",
"              OOO:::111111111111111111111111111;;;...           ",
"              +++222yyyyyy777111www111777yyyttt<<<...           ",
"              +++222yyyyyy777111www111777yyyttt<<<...           ",
"              +++222yyyyyy777111www111777yyyttt<<<...           ",
"              @@@eee@@@999yyywwwwwwwwwyyy555@@@eee...           ",
"              @@@eee@@@999yyywwwwwwwwwyyy555@@@eee...           ",
"              @@@eee@@@999yyywwwwwwwwwyyy555@@@eee...           ",
"              @@@555@@@yyyyyy999&&&999yyyeee@@@555...           ",
"              @@@555@@@yyyyyy999&&&999yyyeee@@@555...           ",
"              @@@555@@@yyyyyy999&&&999yyyeee@@@555...           ",
"              +++<<<...@@@rrr&&&&&&***eee...+++<<<...           ",
"              +++<<<...@@@rrr&&&&&&***eee...+++<<<...           ",
"              +++<<<...@@@rrr&&&&&&***eee...+++<<<...           ",
"                 +++111999999&&&444&&&999999<<<...              ",
"                 +++111999999&&&444&&&999999<<<...              ",
"                 +++111999999&&&444&&&999999<<<...              ",
"        ......OOO------111999888%%%999111---===.........        ",
"        ......OOO------111999888%%%999111---===.........        ",
"        ......OOO------111999888%%%999111---===.........        ",
"        @@@wwwqqq---111111111---111111111<<<@@@www000...        ",
"        @@@wwwqqq---111111111---111111111<<<@@@www000...        ",
"        @@@wwwqqq---111111111---111111111<<<@@@www000...        ",
"           @@@777777---------777---111111---777666...           ",
"           @@@777777---------777---111111---777666...           ",
"           @@@777777---------777---111111---777666...           ",
"              ...OOO,,,777yyyqqq---===............              ",
"              ...OOO,,,777yyyqqq---===............              ",
"              ...OOO,,,777yyyqqq---===............              ",
"                 @@@777wwwyyywwwyyywww666...                    ",
"                 @@@777wwwyyywwwyyywww666...                    ",
"                 @@@777wwwyyywwwyyywww666...                    ",
"                 OOO,,,,,,777777777777>>>...                    ",
"                 OOO,,,,,,777777777777>>>...                    ",
"                 OOO,,,,,,777777777777>>>...                    ",
"                 ooo&&&###......XXX$$$###...                    ",
"                 ooo&&&###......XXX$$$###...                    ",
"                 ooo&&&###......XXX$$$###...                    ",
"                    ......         ooo&&&333...                 ",
"                    ......         ooo&&&333...                 ",
"                    ......         ooo&&&333...                 ",
"                                      .........                 ",
"                                      .........                 ",
"                                      .........                 ",
"                                                                "
};
