/* XPM */
static char *_818fe4a7a80449cf993b255c9e13417aNxQSQswFc6yYv5U[] = {
/* columns rows colors chars-per-pixel */
"64 64 13 1 ",
"  c None",
". c black",
"X c #B16719",
"o c #E0B167",
"O c #343D90",
"+ c #4E5F98",
"@ c #5667B8",
"# c #6788B1",
"$ c #FFE8A0",
"% c #88A0FF",
"& c #B8C0C8",
"* c #B8D0FF",
"= c white",
/* pixels */
"                                                                ",
"                                                                ",
"                                                                ",
"                                                                ",
"                                                                ",
"                          ................                      ",
"                          ................                      ",
"                          ................                      ",
"                    ......+++##########+++......                ",
"                    ......+++##########+++......                ",
"                    ......+++##########+++......                ",
"                  ..+++###################++OOOO...             ",
"                  ..+++###################++OOOO...             ",
"                  ..+++###################++OOOO...             ",
"                  ..+++###################++OOOO...             ",
"                  ..########################++++...             ",
"                  ..########################++++...             ",
"                  ..########################++++...             ",
"              ....%%***%%%&&&&&&&###############OOO...          ",
"              ....%%***%%%&&&&&&&###############OOO...          ",
"              ....%%***%%%&&&&&&&###############OOO...          ",
"              ....**%%%==========&&&############+++...          ",
"              ....**%%%==========&&&############+++...          ",
"              ....**%%%==========&&&############+++...          ",
"           ...oooo==&&&...==========########+++++++...          ",
"           ...oooo==&&&...==========########+++++++...          ",
"           ...oooo==&&&...==========########+++++++...          ",
"        ...XXX$$$$=====...=======&&&########++++OOO...          ",
"        ...XXX$$$$=====...=======&&&########++++OOO...          ",
"        ...XXX$$$$=====...=======&&&########++++OOO...          ",
"        ...oooXXXX==......===&&&&&&&###+++++++++...             ",
"        ...oooXXXX==......===&&&&&&&###+++++++++...             ",
"        ...oooXXXX==......===&&&&&&&###+++++++++...             ",
"        ...oooXXXX==......===&&&&&&&###+++++++++...             ",
"           .......##&&&&&&&&&&&&&###++++++OO..........          ",
"           .......##&&&&&&&&&&&&&###++++++OO..........          ",
"           .......##&&&&&&&&&&&&&###++++++OO..........          ",
"                  .....+++#############+++......+++...          ",
"                  .....+++#############+++......+++...          ",
"                  .....+++#############+++......+++...          ",
"              ....++#########OOOOOOO######++++++OOO...          ",
"              ....++#########OOOOOOO######++++++OOO...          ",
"              ....++#########OOOOOOO######++++++OOO...          ",
"              ....#####+++%%%*******OOO#####++++...             ",
"              ....#####+++%%%*******OOO#####++++...             ",
"              ....#####+++%%%*******OOO#####++++...             ",
"                  ..===OOO...++++@@@...OOO++OOOO...             ",
"                  ..===OOO...++++@@@...OOO++OOOO...             ",
"                  ..===OOO...++++@@@...OOO++OOOO...             ",
"                  ..%%%+++OOO.......###@@@OO....                ",
"                  ..%%%+++OOO.......###@@@OO....                ",
"                  ..%%%+++OOO.......###@@@OO....                ",
"                  ..%%%+++OOO.......###@@@OO....                ",
"                  .....OOO+++OOOO...XXXXXX..                    ",
"                  .....OOO+++OOOO...XXXXXX..                    ",
"                  .....OOO+++OOOO...XXXXXX..                    ",
"              ....$$ooooooXXX....   ......                      ",
"              ....$$ooooooXXX....   ......                      ",
"              ....$$ooooooXXX....   ......                      ",
"              ...............                                   ",
"              ...............                                   ",
"              ...............                                   ",
"                                                                ",
"                                                                "
};
