/* XPM */
static char *_37e02587893413dbb320b1aabed98941iadACf7YhYi1hhT[] = {
/* columns rows colors chars-per-pixel */
"64 64 9 1 ",
"  c None",
". c black",
"X c #B16719",
"o c #343D90",
"O c #4E5F98",
"+ c #5667B8",
"@ c #6788B1",
"# c #88A0FF",
"$ c #B8D0FF",
/* pixels */
"                                                                ",
"                                                                ",
"                                                                ",
"                                                                ",
"                                                                ",
"                         ..............                         ",
"                         ..............                         ",
"                         ..............                         ",
"                   ......oooOOO@@OOOooo......                   ",
"                   ......oooOOO@@OOOooo......                   ",
"                   ......oooOOO@@OOOooo......                   ",
"                ...oooOOO@@@@@@@@@@@@@@OOOooo...                ",
"                ...oooOOO@@@@@@@@@@@@@@OOOooo...                ",
"                ...oooOOO@@@@@@@@@@@@@@OOOooo...                ",
"                ...OOO@@@@@@@@@@@@@@@@@OOOOOO...                ",
"                ...OOO@@@@@@@@@@@@@@@@@OOOOOO...                ",
"                ...OOO@@@@@@@@@@@@@@@@@OOOOOO...                ",
"             ...ooo@@@@@@@@@@@@@@@@@@@@@@@OOOooo...             ",
"             ...ooo@@@@@@@@@@@@@@@@@@@@@@@OOOooo...             ",
"             ...ooo@@@@@@@@@@@@@@@@@@@@@@@OOOooo...             ",
"             ...OOO@@@@@@@@@@@@@@@@@@@@@@@OOOOOO...             ",
"             ...OOO@@@@@@@@@@@@@@@@@@@@@@@OOOOOO...             ",
"             ...OOO@@@@@@@@@@@@@@@@@@@@@@@OOOOOO...             ",
"             ...OOO@@@@@@@@@@@@@@@@@@@@OOOOOOOOO...             ",
"             ...OOO@@@@@@@@@@@@@@@@@@@@OOOOOOOOO...             ",
"             ...OOO@@@@@@@@@@@@@@@@@@@@OOOOOOOOO...             ",
"             ...OOOOOO@@@@@@@@@@@@@@OOOOOOOOOOOO...             ",
"             ...OOOOOO@@@@@@@@@@@@@@OOOOOOOOOOOO...             ",
"             ...OOOOOO@@@@@@@@@@@@@@OOOOOOOOOOOO...             ",
"             ...oooOOOOOOOOO@@@@@OOOOOOOOOOOOooo...             ",
"             ...oooOOOOOOOOO@@@@@OOOOOOOOOOOOooo...             ",
"             ...oooOOOOOOOOO@@@@@OOOOOOOOOOOOooo...             ",
"                ...oooOOOOOOOOOOOOOOOOOOOOooo...                ",
"                ...oooOOOOOOOOOOOOOOOOOOOOooo...                ",
"                ...oooOOOOOOOOOOOOOOOOOOOOooo...                ",
"                   ...oooOOOOOO..OOOOOOooo...                   ",
"                   ...oooOOOOOO..OOOOOOooo...                   ",
"                   ...oooOOOOOO..OOOOOOooo...                   ",
"             ......OOO@@@@@@...##...@@@@@@OOO......             ",
"             ......OOO@@@@@@...##...@@@@@@OOO......             ",
"             ......OOO@@@@@@...##...@@@@@@OOO......             ",
"          ...###$$$ooo@@@@@@...OO...@@@+++ooo$$$###...          ",
"          ...###$$$ooo@@@@@@...OO...@@@+++ooo$$$###...          ",
"          ...###$$$ooo@@@@@@...OO...@@@+++ooo$$$###...          ",
"       ...$$$$$$###+++oooOOOooo##...+++ooo+++###$$$$$$...       ",
"       ...$$$$$$###+++oooOOOooo##...+++ooo+++###$$$$$$...       ",
"       ...$$$$$$###+++oooOOOooo##...+++ooo+++###$$$$$$...       ",
"          .........+++###oooOOO@@...+++###+++.........          ",
"          .........+++###oooOOO@@...+++###+++.........          ",
"          .........+++###oooOOO@@...+++###+++.........          ",
"                ......+++##############+++......                ",
"                ......+++##############+++......                ",
"                ......+++##############+++......                ",
"                ...XXX...+++........+++...XXX...                ",
"                ...XXX...+++........+++...XXX...                ",
"                ...XXX...+++........+++...XXX...                ",
"                   ...XXXXXX...  ...XXXXXX...                   ",
"                   ...XXXXXX...  ...XXXXXX...                   ",
"                   ...XXXXXX...  ...XXXXXX...                   ",
"                      ......        ......                      ",
"                      ......        ......                      ",
"                      ......        ......                      ",
"                                                                ",
"                                                                "
};
