/* XPM */
static char *_f17930f7e9b472c908f46f467f30004PuGcD1JfO2uwY8Uw[] = {
/* columns rows colors chars-per-pixel */
"64 64 18 1 ",
"  c None",
". c black",
"X c #000002",
"o c #000202",
"O c #020202",
"+ c #AD671F",
"@ c #373F8D",
"# c #373F8F",
"$ c #4F5F95",
"% c #4F5F97",
"& c #5767B5",
"* c #5767B7",
"= c #6785AD",
"- c #6787AF",
"; c #859DFD",
": c #879FFF",
"> c #B5CDFD",
", c #B7CFFF",
/* pixels */
"                                                                ",
"                                                                ",
"                                                                ",
"                                                                ",
"                                                                ",
"                                                                ",
"                         XXXXXXXXXXXXXX                         ",
"                         XXXXXXXXXXXXXX                         ",
"                         XXXXXXXXXXXXXX                         ",
"                   XXXXXX##%%%%---%%%##XXXXXX                   ",
"                   XXXXXX##%%%%---%%%##XXXXXX                   ",
"                   XXXXXX##%%%%---%%%##XXXXXX                   ",
"                XXX###%%%--------------%%%###XXXX               ",
"                XXX###%%%--------------%%%###XXXX               ",
"                XXX###%%%--------------%%%###XXXX               ",
"                XXX%%%-----------------%%%%%%XXXX               ",
"                XXX%%%-----------------%%%%%%XXXX               ",
"                XXX%%%-----------------%%%%%%XXXX               ",
"             XXX###-----------------------%%%####XX             ",
"             XXX###-----------------------%%%####XX             ",
"             XXX###-----------------------%%%####XX             ",
"             XXX%%%-----------------------%%%%%%%XX             ",
"             XXX%%%-----------------------%%%%%%%XX             ",
"             XXX%%%-----------------------%%%%%%%XX             ",
"             XXX%%%--------------------%%%%%%%%%%XX             ",
"             XXX%%%--------------------%%%%%%%%%%XX             ",
"             XXX%%%--------------------%%%%%%%%%%XX             ",
"             XXX%%%%%%---------------%%%%%%%%%%%%XX             ",
"             XXX%%%%%%---------------%%%%%%%%%%%%XX             ",
"             XXX%%%%%%---------------%%%%%%%%%%%%XX             ",
"             XXX###%%%%%%%%-------%%%%%%%%%%%####XX             ",
"             XXX###%%%%%%%%-------%%%%%%%%%%%####XX             ",
"             XXX###%%%%%%%%-------%%%%%%%%%%%####XX             ",
"                XXX###%%%%%%%%%%%%%%%%%%%%###XXXX               ",
"                XXX###%%%%%%%%%%%%%%%%%%%%###XXXX               ",
"                XXX###%%%%%%%%%%%%%%%%%%%%###XXXX               ",
"                XXXXXXXXXXX%%%%%%%%%%%%###XXX                   ",
"                XXXXXXXXXXX%%%%%%%%%%%%###XXX                   ",
"                XXXXXXXXXXX%%%%%%%%%%%%###XXX                   ",
"             XXX%%%---XXX::XXXX------%%%%%###XXXX               ",
"             XXX%%%---XXX::XXXX------%%%%%###XXXX               ",
"             XXX%%%---XXX::XXXX------%%%%%###XXXX               ",
"          XXX:::###XXX:::##&&&&XXX%%%%%###%%%::::XX             ",
"          XXX:::###XXX:::##&&&&XXX%%%%%###%%%::::XX             ",
"          XXX:::###XXX:::##&&&&XXX%%%%%###%%%::::XX             ",
"          XXX,,,&&&###XXX::::::&&&&&&##&&&###,,,,XX             ",
"          XXX,,,&&&###XXX::::::&&&&&&##&&&###,,,,XX             ",
"          XXX,,,&&&###XXX::::::&&&&&&##&&&###,,,,XX             ",
"       XXX,,,:::XXX:::&&&XX&&&*---&&&::&&&XXX::::,,XXX          ",
"       XXX,,,:::XXX:::&&&XX&&&&---&&&::&&&XXX::::,,XXX          ",
"       XXX,,,:::XXX:::&&&XX&&&&---*&&::&&&XXX::::,,XXX          ",
"       XXXXXXXXXXXX&&&:::::::::::::::XXXXX   XXXXXXXXX          ",
"       XXXXXXXXXXXX&&&:::::::::::::::XXXXX   XXXXXXXXX          ",
"       XXXXXXXXXXXX&&&:::::::::::::::XXXXX   XXXXXXXXX          ",
"                XXX+++&&&&&XXXXXXXXXXXX                         ",
"                XXX+++&&&&&XXXXXXXXXXXX                         ",
"                XXX+++&&&&&XXXXXXXXXXXX                         ",
"                   XXX+++++XXXX                                 ",
"                   XXX+++++XXXX                                 ",
"                   XXX+++++XXXX                                 ",
"                      XXXXX                                     ",
"                      XXXXX                                     ",
"                      XXXXX                                     ",
"                                                                "
};
