/* XPM */
static char *_ad7d96332b34effbdd03487321a3c70baOzM1G7bcha6pox[] = {
/* columns rows colors chars-per-pixel */
"64 64 12 1 ",
"  c None",
". c black",
"X c #B16719",
"o c #E0B167",
"O c #343D90",
"+ c #4E5F98",
"@ c #6788B1",
"# c #FFE8A0",
"$ c #88A0FF",
"% c #B8C0C8",
"& c #B8D0FF",
"* c white",
/* pixels */
"                                                                ",
"                                                                ",
"                                                                ",
"                                                                ",
"                                                                ",
"                       ...............                          ",
"                       ...............                          ",
"                       ...............                          ",
"                 ......+++@@@@@@@@@+++......                    ",
"                 ......+++@@@@@@@@@+++......                    ",
"                 ......+++@@@@@@@@@+++......                    ",
"              ...OOO+++@@@@@@@@@@@@@@@@@@+++...                 ",
"              ...OOO+++@@@@@@@@@@@@@@@@@@+++...                 ",
"              ...OOO+++@@@@@@@@@@@@@@@@@@+++...                 ",
"              ...OOO+++@@@@@@@@@@@@@@@@@@+++...                 ",
"              ...+++@@@@@@@@@@@@@@@@@@@@@@@@...                 ",
"              ...+++@@@@@@@@@@@@@@@@@@@@@@@@...                 ",
"              ...+++@@@@@@@@@@@@@@@@@@@@@@@@...                 ",
"           ...OOO@@@@@@@@@@@@@@@%%%%%%$$$&&&$$$...              ",
"           ...OOO@@@@@@@@@@@@@@@%%%%%%$$$&&&$$$...              ",
"           ...OOO@@@@@@@@@@@@@@@%%%%%%$$$&&&$$$...              ",
"           ...+++@@@@@@@@@@@@%%%*********$$$&&&...              ",
"           ...+++@@@@@@@@@@@@%%%*********$$$&&&...              ",
"           ...+++@@@@@@@@@@@@%%%*********$$$&&&...              ",
"           ...++++++@@@@@@@@@*********...%%%***ooo...           ",
"           ...++++++@@@@@@@@@*********...%%%***ooo...           ",
"           ...++++++@@@@@@@@@*********...%%%***ooo...           ",
"           ...OOO+++@@@@@@@@@%%%******...******###XXX...        ",
"           ...OOO+++@@@@@@@@@%%%******...******###XXX...        ",
"           ...OOO+++@@@@@@@@@%%%******...******###XXX...        ",
"              ...+++++++++@@@%%%%%%***......***XXXooo...        ",
"              ...+++++++++@@@%%%%%%***......***XXXooo...        ",
"              ...+++++++++@@@%%%%%%***......***XXXooo...        ",
"              ...+++++++++@@@%%%%%%***......***XXXooo...        ",
"                 ...OOO++++++@@@%%%%%%%%%%%%@@@......           ",
"                 ...OOO++++++@@@%%%%%%%%%%%%@@@......           ",
"                 ...OOO++++++@@@%%%%%%%%%%%%@@@......           ",
"                 ...+++@@@@@@@@@@@@+++.........                 ",
"                 ...+++@@@@@@@@@@@@+++.........                 ",
"                 ...+++@@@@@@@@@@@@+++.........                 ",
"        .........+++@@@@@@OOOOOO@@@@@@@@@+++...                 ",
"        .........+++@@@@@@OOOOOO@@@@@@@@@+++...                 ",
"        .........+++@@@@@@OOOOOO@@@@@@@@@+++...                 ",
"        ...$$$OOO@@@@@@OOO@@@$$$OOO+++@@@...                    ",
"        ...$$$OOO@@@@@@OOO@@@$$$OOO+++@@@...                    ",
"        ...$$$OOO@@@@@@OOO@@@$$$OOO+++@@@...                    ",
"           ...++++++OOO++++++@@@$$$OOO***...                    ",
"           ...++++++OOO++++++@@@$$$OOO***...                    ",
"           ...++++++OOO++++++@@@$$$OOO***...                    ",
"              ...OOO++++++...@@@$$$&&&...                       ",
"              ...OOO++++++...@@@$$$&&&...                       ",
"              ...OOO++++++...@@@$$$&&&...                       ",
"              ...OOO++++++...@@@$$$&&&...                       ",
"                 ...XXX++++++.........XXX...                    ",
"                 ...XXX++++++.........XXX...                    ",
"                 ...XXX++++++.........XXX...                    ",
"                    ...oooooo###.........                       ",
"                    ...oooooo###.........                       ",
"                    ...oooooo###.........                       ",
"                       .........                                ",
"                       .........                                ",
"                       .........                                ",
"                                                                ",
"                                                                "
};
