/* XPM */
static char *result[] = {
/* columns rows colors chars-per-pixel */
"64 64 33 1 ",
"  c black",
". c #070000",
"X c #070700",
"o c #000007",
"O c #000407",
"+ c #000707",
"@ c #070707",
"# c #A8671F",
"$ c #AF671F",
"% c #D8A867",
"& c #DFAF67",
"* c #373F88",
"= c #373F8F",
"- c #37468F",
"; c #4F5F90",
": c #4F5F97",
"> c #5767B0",
", c #5767B7",
"< c #6780A8",
"1 c #6787AF",
"2 c #6E87AF",
"3 c #F8E098",
"4 c #FFE09E",
"5 c #B0B8C0",
"6 c #B7BFC7",
"7 c #8098F8",
"8 c #879FFF",
"9 c #B0C8F8",
"0 c #B7CFFF",
"q c #F8F8F8",
"w c #F8FFFF",
"e c white",
"r c None",
/* pixels */
"rrrrrrrrrrrrrrrrrrrrrrrrrrrrrrrrrrrrrrrrrrrrrrrrrrrrrrrrrrrrrrrr",
"rrrrrrrrrrrrrrrrrrrrrrrrrrrrrrrrrrrrrrrrrrrrrrrrrrrrrrrrrrrrrrrr",
"rrrrrrrrrrrrrrrrrrrrrrrrrrrrrrrrrrrrrrrrrrrrrrrrrrrrrrrrrrrrrrrr",
"rrrrrrrrrrrrrrrrrrrrrrrrrrrrrrrrrrrrrrrrrrrrrrrrrrrrrrrrrrrrrrrr",
"rrrrrrrrrrrrrrrrrrrrrrrrrrrrrrrrrrrrrrrrrrrrrrrrrrrrrrrrrrrrrrrr",
"rrrrrrrrrrrrrrrrrrrrrrrooo+++++++++ooorrrrrrrrrrrrrrrrrrrrrrrrrr",
"rrrrrrrrrrrrrrrrrrrrrrrooo+++++++++ooorrrrrrrrrrrrrrrrrrrrrrrrrr",
"rrrrrrrrrrrrrrrrrrrrrrrooo+++++++++ooorrrrrrrrrrrrrrrrrrrrrrrrrr",
"rrrrrrrrrrrrrrrrroooooo:::111111111:::+++ooorrrrrrrrrrrrrrrrrrrr",
"rrrrrrrrrrrrrrrrroooooo:::111111111:::+++ooorrrrrrrrrrrrrrrrrrrr",
"rrrrrrrrrrrrrrrrroooooo:::111111111:::+++ooorrrrrrrrrrrrrrrrrrrr",
"rrrrrrrrrrrrrr   ===:::111111111111111111:::   rrrrrrrrrrrrrrrrr",
"rrrrrrrrrrrrrr   ===:::111111111111111111:::   rrrrrrrrrrrrrrrrr",
"rrrrrrrrrrrrrr   ===:::111111111111111111:::   rrrrrrrrrrrrrrrrr",
"rrrrrrrrrrrrrrooo:::111111111111111111111111@@@rrrrrrrrrrrrrrrrr",
"rrrrrrrrrrrrrrooo:::111111111111111111111111@@@rrrrrrrrrrrrrrrrr",
"rrrrrrrrrrrrrrooo:::111111111111111111111111@@@rrrrrrrrrrrrrrrrr",
"rrrrrrrrrrr   ===111111111111111666666888000888   rrrrrrrrrrrrrr",
"rrrrrrrrrrr   ===111111111111111666666888000888   rrrrrrrrrrrrrr",
"rrrrrrrrrrr   ===111111111111111666666888000888   rrrrrrrrrrrrrr",
"rrrrrrrrrrr   :::111111111111666eeeeeeqqq888000XXXrrrrrrrrrrrrrr",
"rrrrrrrrrrr   :::111111111111666eeeeeeqqq888000XXXrrrrrrrrrrrrrr",
"rrrrrrrrrrr   :::111111111111666eeeeeeqqq888000XXXrrrrrrrrrrrrrr",
"rrrrrrrrrrr   ::::::111111111eeeeeeeee   666eee&&&...rrrrrrrrrrr",
"rrrrrrrrrrr   ::::::111111111eeeeeeeee   666eee&&&...rrrrrrrrrrr",
"rrrrrrrrrrr   ::::::111111111eeeeeeeee   666eee&&&...rrrrrrrrrrr",
"rrrrrrrrrrr   ***:::111111111666eeeeee   qqqeee444$$$   rrrrrrrr",
"rrrrrrrrrrr   ***:::111111111666eeeeee   qqqeee444$$$   rrrrrrrr",
"rrrrrrrrrrr   ***:::111111111666eeeeee   qqqeee444$$$   rrrrrrrr",
"rrrrrrrrrrrrrr   ;;;::::::111666666eee@@@@@@www###%%%   rrrrrrrr",
"rrrrrrrrrrrrrr   ;;;::::::111666666eee@@@@@@www###%%%   rrrrrrrr",
"rrrrrrrrrrrrrr   ;;;::::::111666666eee@@@@@@www###%%%   rrrrrrrr",
"rrrrrrrrrrrrrrrrr   ***::::::111666666666555<<<      rrrrrrrrrrr",
"rrrrrrrrrrrrrrrrr   ***::::::111666666666555<<<      rrrrrrrrrrr",
"rrrrrrrrrrrrrrrrr   ***::::::111666666666555<<<      rrrrrrrrrrr",
"rrrrrrrr   OOOrrrrrrooo:::111111111111:::+++ooorrrrrrrrrrrrrrrrr",
"rrrrrrrr   OOOrrrrrrooo:::111111111111:::+++ooorrrrrrrrrrrrrrrrr",
"rrrrrrrr   OOOrrrrrrooo:::111111111111:::+++ooorrrrrrrrrrrrrrrrr",
"rrrrrrrr   <<<+++ooo:::111111======111111111:::   rrrrrrrrrrrrrr",
"rrrrrrrr   <<<+++ooo:::111111======111111111:::   rrrrrrrrrrrrrr",
"rrrrrrrr   <<<+++ooo:::111111======111111111:::   rrrrrrrrrrrrrr",
"rrrrrrrrrrr   111===111111===>>>888---:::222<<<   rrrrrrrrrrrrrr",
"rrrrrrrrrrr   111===111111===>>>888---:::222<<<   rrrrrrrrrrrrrr",
"rrrrrrrrrrr   111===111111===>>>888---:::222<<<   rrrrrrrrrrrrrr",
"rrrrrrrrrrr   ***;;;:::===>>>@@@000000===eee   rrrrrrrrrrrrrrrrr",
"rrrrrrrrrrr   ***;;;:::===>>>@@@000000===eee   rrrrrrrrrrrrrrrrr",
"rrrrrrrrrrr   ***;;;:::===>>>@@@000000===eee   rrrrrrrrrrrrrrrrr",
"rrrrrrrrrrrrrr      ===,,,   888888000;;;777   rrrrrrrrrrrrrrrrr",
"rrrrrrrrrrrrrr      ===,,,   888888000;;;777   rrrrrrrrrrrrrrrrr",
"rrrrrrrrrrrrrr      ===,,,   888888000;;;777   rrrrrrrrrrrrrrrrr",
"rrrrrrrrrrrrrrrrr   >>>777ooo999999777      rrrrrrrrrrrrrrrrrrrr",
"rrrrrrrrrrrrrrrrr   >>>777ooo999999777      rrrrrrrrrrrrrrrrrrrr",
"rrrrrrrrrrrrrrrrr   >>>777ooo999999777      rrrrrrrrrrrrrrrrrrrr",
"rrrrrrrrrrrrrrrrrrrr      >>>...XXXXXX@@@rrrrrrrrrrrrrrrrrrrrrrr",
"rrrrrrrrrrrrrrrrrrrr      >>>...XXXXXX@@@rrrrrrrrrrrrrrrrrrrrrrr",
"rrrrrrrrrrrrrrrrrrrr      >>>...XXXXXX@@@rrrrrrrrrrrrrrrrrrrrrrr",
"rrrrrrrrrrrrrrrrrrrrrrrrrr   ###%%%%%%333   rrrrrrrrrrrrrrrrrrrr",
"rrrrrrrrrrrrrrrrrrrrrrrrrr   ###%%%%%%333   rrrrrrrrrrrrrrrrrrrr",
"rrrrrrrrrrrrrrrrrrrrrrrrrr   ###%%%%%%333   rrrrrrrrrrrrrrrrrrrr",
"rrrrrrrrrrrrrrrrrrrrrrrrrrrrr            rrrrrrrrrrrrrrrrrrrrrrr",
"rrrrrrrrrrrrrrrrrrrrrrrrrrrrr            rrrrrrrrrrrrrrrrrrrrrrr",
"rrrrrrrrrrrrrrrrrrrrrrrrrrrrr            rrrrrrrrrrrrrrrrrrrrrrr",
"rrrrrrrrrrrrrrrrrrrrrrrrrrrrrrrrrrrrrrrrrrrrrrrrrrrrrrrrrrrrrrrr",
"rrrrrrrrrrrrrrrrrrrrrrrrrrrrrrrrrrrrrrrrrrrrrrrrrrrrrrrrrrrrrrrr"
};
