/* XPM */
static char *a5a48aecc46e43d081d0182fd53d35adJSZBpiyQBlW4GAYF[] = {
/* columns rows colors chars-per-pixel */
"64 64 13 1 ",
"  c None",
". c black",
"X c #B16719",
"o c #E0B167",
"O c #343D90",
"+ c #4E5F98",
"@ c #5667B8",
"# c #6788B1",
"$ c #FFE8A0",
"% c #88A0FF",
"& c #B8C0C8",
"* c #B8D0FF",
"= c white",
/* pixels */
"                                                                ",
"                                                                ",
"                                                                ",
"                                                                ",
"                                                                ",
"                                                                ",
"                      ..............                            ",
"                      ..............                            ",
"                      ..............                            ",
"                ......+++########+++......                      ",
"                ......+++########+++......                      ",
"                ......+++########+++......                      ",
"             ...OOO####################OOO...                   ",
"             ...OOO####################OOO...                   ",
"             ...OOO####################OOO...                   ",
"             ...##########################...                   ",
"             ...##########################...                   ",
"             ...##########################...                   ",
"          ...+++##########################+++...                ",
"          ...+++##########################+++...                ",
"          ...+++##########################+++...                ",
"          ...###======%%%###***##%%%======###...                ",
"          ...###======%%%###***##%%%======###...                ",
"          ...###======%%%###***##%%%======###...                ",
"          ...===...&&&===********===&&&...===...                ",
"          ...===...&&&===********===&&&...===...                ",
"          ...===...&&&===********===&&&...===...                ",
"          ...&&&...======&&&ooo&&======...&&&...                ",
"          ...&&&...======&&&ooo&&======...&&&...                ",
"          ...&&&...======&&&ooo&&======...&&&...                ",
"          ...###......===oooooooo===......###...                ",
"          ...###......===oooooooo===......###...                ",
"          ...###......===oooooooo===......###...                ",
"             ...###&&&&&&ooo$$$oo&&&&&&###...                   ",
"             ...###&&&&&&ooo$$$oo&&&&&&###...                   ",
"             ...###&&&&&&ooo$$$oo&&&&&&###...                   ",
"                ...OOO###&&&XXX&&&&&###OOO###...                ",
"                ...OOO###&&&XXX&&&&&###OOO###...                ",
"                ...OOO###&&&XXX&&&&&###OOO###...                ",
"                ...############OO#########OOO...                ",
"                ...############OO#########OOO...                ",
"                ...############OO#########OOO...                ",
"             ...%%%OOO######OOO%%OOOOOOOOO%%%%%%...             ",
"             ...%%%OOO######OOO%%OOOOOOOOO%%%%%%...             ",
"             ...%%%OOO######OOO%%OOOOOOOOO%%%%%%...             ",
"          ...******......OOOOOO**===%%%@@@...******...          ",
"          ...******......OOOOOO**===%%%@@@...******...          ",
"          ...******......OOOOOO**===%%%@@@...******...          ",
"          ............%%%***===**===***%%%............          ",
"          ............%%%***===**===***%%%............          ",
"          ............%%%***===**===***%%%............          ",
"                   ...@@@%%%%%%%%%%%@@@@@@...                   ",
"                   ...@@@%%%%%%%%%%%@@@@@@...                   ",
"                   ...@@@%%%%%%%%%%%@@@@@@...                   ",
"                   ...XXXXXX........XXXooo...                   ",
"                   ...XXXXXX........XXXooo...                   ",
"                   ...XXXXXX........XXXooo...                   ",
"                ...$$$ooo...        ......                      ",
"                ...$$$ooo...        ......                      ",
"                ...$$$ooo...        ......                      ",
"                .........                                       ",
"                .........                                       ",
"                .........                                       ",
"                                                                "
};
