/* XPM */
static char *_192c16e7e7b4519ce9cf4c32ca960e2YB9yn6KHbqNccJHY[] = {
/* columns rows colors chars-per-pixel */
"64 64 12 1 ",
"  c None",
". c black",
"X c #B16719",
"o c #E0B167",
"O c #343D90",
"+ c #4E5F98",
"@ c #6788B1",
"# c #FFE8A0",
"$ c #88A0FF",
"% c #B8C0C8",
"& c #B8D0FF",
"* c white",
/* pixels */
"                                                                ",
"                                                                ",
"                                                                ",
"                                                                ",
"                                                                ",
"                          ...............                       ",
"                          ...............                       ",
"                          ...............                       ",
"                    ......+++@@@@@@@@@+++......                 ",
"                    ......+++@@@@@@@@@+++......                 ",
"                    ......+++@@@@@@@@@+++......                 ",
"                 ...+++@@@@@@@@@@@@@@@@@@+++OOO...              ",
"                 ...+++@@@@@@@@@@@@@@@@@@+++OOO...              ",
"                 ...+++@@@@@@@@@@@@@@@@@@+++OOO...              ",
"                 ...+++@@@@@@@@@@@@@@@@@@+++OOO...              ",
"                 ...@@@@@@@@@@@@@@@@@@@@@@@@+++...              ",
"                 ...@@@@@@@@@@@@@@@@@@@@@@@@+++...              ",
"                 ...@@@@@@@@@@@@@@@@@@@@@@@@+++...              ",
"              ...$$$&&&$$$%%%%%%@@@@@@@@@@@@@@@OOO...           ",
"              ...$$$&&&$$$%%%%%%@@@@@@@@@@@@@@@OOO...           ",
"              ...$$$&&&$$$%%%%%%@@@@@@@@@@@@@@@OOO...           ",
"              ...&&&$$$*********%%%@@@@@@@@@@@@+++...           ",
"              ...&&&$$$*********%%%@@@@@@@@@@@@+++...           ",
"              ...&&&$$$*********%%%@@@@@@@@@@@@+++...           ",
"           ...ooo***%%%...*********@@@@@@@@@++++++...           ",
"           ...ooo***%%%...*********@@@@@@@@@++++++...           ",
"           ...ooo***%%%...*********@@@@@@@@@++++++...           ",
"        ...XXX###******...******%%%@@@@@@@@@+++OOO...           ",
"        ...XXX###******...******%%%@@@@@@@@@+++OOO...           ",
"        ...XXX###******...******%%%@@@@@@@@@+++OOO...           ",
"        ...oooXXX***......***%%%%%%@@@+++++++++...              ",
"        ...oooXXX***......***%%%%%%@@@+++++++++...              ",
"        ...oooXXX***......***%%%%%%@@@+++++++++...              ",
"        ...oooXXX***......***%%%%%%@@@+++++++++...              ",
"           ......@@@%%%%%%%%%%%%@@@++++++OOO...                 ",
"           ......@@@%%%%%%%%%%%%@@@++++++OOO...                 ",
"           ......@@@%%%%%%%%%%%%@@@++++++OOO...                 ",
"                 .........+++@@@@@@@@@@@@+++...                 ",
"                 .........+++@@@@@@@@@@@@+++...                 ",
"                 .........+++@@@@@@@@@@@@+++...                 ",
"                 ...+++@@@@@@@@@OOOOOO@@@@@@+++.........        ",
"                 ...+++@@@@@@@@@OOOOOO@@@@@@+++.........        ",
"                 ...+++@@@@@@@@@OOOOOO@@@@@@+++.........        ",
"                    ...@@@+++OOO$$$@@@OOO@@@@@@OOO$$$...        ",
"                    ...@@@+++OOO$$$@@@OOO@@@@@@OOO$$$...        ",
"                    ...@@@+++OOO$$$@@@OOO@@@@@@OOO$$$...        ",
"                    ...***OOO$$$@@@++++++OOO++++++...           ",
"                    ...***OOO$$$@@@++++++OOO++++++...           ",
"                    ...***OOO$$$@@@++++++OOO++++++...           ",
"                       ...&&&$$$@@@...++++++OOO...              ",
"                       ...&&&$$$@@@...++++++OOO...              ",
"                       ...&&&$$$@@@...++++++OOO...              ",
"                       ...&&&$$$@@@...++++++OOO...              ",
"                    ...XXX.........++++++XXX...                 ",
"                    ...XXX.........++++++XXX...                 ",
"                    ...XXX.........++++++XXX...                 ",
"                       .........###oooooo...                    ",
"                       .........###oooooo...                    ",
"                       .........###oooooo...                    ",
"                                .........                       ",
"                                .........                       ",
"                                .........                       ",
"                                                                ",
"                                                                "
};
