/* XPM */
static char *dec392bd500240289361c35da1bb10f7yM7Aaq396C2o92YB[] = {
/* columns rows colors chars-per-pixel */
"64 64 19 1 ",
"  c None",
". c black",
"X c #020000",
"o c #000002",
"O c #020202",
"+ c #AD671F",
"@ c #AF671F",
"# c #373F8D",
"$ c #373F8F",
"% c #4F5F95",
"& c #4F5F97",
"* c #5767B5",
"= c #5767B7",
"- c #6785AD",
"; c #6787AF",
": c #859DFD",
"> c #879FFF",
", c #B5CDFD",
"< c #B7CFFF",
/* pixels */
"                                                                ",
"                                                                ",
"                                                                ",
"                                                                ",
"                                                                ",
"                                                                ",
"                         ..............                         ",
"                         ..............                         ",
"                         ..............                         ",
"                   ......$$$&&;;;&&&$$$.....                    ",
"                   ......$$$&&;;;&&&$$$.....                    ",
"                   ......$$$&&;;;&&&$$$.....                    ",
"                ...$$$&&&;;;;;;;;;;;;;;&&$$$...                 ",
"                ...$$$&&&;;;;;;;;;;;;;;&&$$$...                 ",
"                ...$$$&&&;;;;;;;;;;;;;;&&$$$...                 ",
"                ...&&&;;;;;;;;;;;;;;;;;&&&&&...                 ",
"                ...&&&;;;;;;;;;;;;;;;;;&&&&&...                 ",
"                ...&&&;;;;;;;;;;;;;;;;;&&&&&...                 ",
"             ...$$$;;;;;;;;;;;;;;;;;;;;;;&&&$$$....             ",
"             ...$$$;;;;;;;;;;;;;;;;;;;;;;&&&$$$....             ",
"             ...$$$;;;;;;;;;;;;;;;;;;;;;;&&&$$$....             ",
"             ...&&&;;;;;;;;;;;;;;;;;;;;;;&&&&&&....             ",
"             ...&&&;;;;;;;;;;;;;;;;;;;;;;&&&&&&....             ",
"             ...&&&;;;;;;;;;;;;;;;;;;;;;;&&&&&&....             ",
"             ...&&&;;;;;;;;;;;;;;;;;;;;&&&&&&&&....             ",
"             ...&&&;;;;;;;;;;;;;;;;;;;;&&&&&&&&....             ",
"             ...&&&;;;;;;;;;;;;;;;;;;;;&&&&&&&&....             ",
"             ...&&&&&&;;;;;;;;;;;;;;&&&&&&&&&&&....             ",
"             ...&&&&&&;;;;;;;;;;;;;;&&&&&&&&&&&....             ",
"             ...&&&&&&;;;;;;;;;;;;;;&&&&&&&&&&&....             ",
"             ...$$$&&&&&&&&&;;;;;&&&&&&&&&&&$$$....             ",
"             ...$$$&&&&&&&&&;;;;;&&&&&&&&&&&$$$....             ",
"             ...$$$&&&&&&&&&;;;;;&&&&&&&&&&&$$$....             ",
"                ...$$$&&&&&&&&&&&&&&&&&&&$$$...                 ",
"                ...$$$&&&&&&&&&&&&&&&&&&&$$$...                 ",
"                ...$$$&&&&&&&&&&&&&&&&&&&$$$...                 ",
"                   ...........&&&&&&........                    ",
"                   ...........&&&&&&........                    ",
"                   ...........&&&&&&........                    ",
"             .........$$$&&&&&;;;;;;...>>...............        ",
"             .........$$$&&&&&;;;;;;...>>...............        ",
"             .........$$$&&&&&;;;;;;...>>...............        ",
"             ...<<<<<<>>>$$$&&&&&...===$$>>>...>>>><<...        ",
"             ...<<<<<<>>>$$$&&&&&...===$$>>>...>>>><<...        ",
"             ...<<<<<<>>>$$$&&&&&...===$$>>>...>>>><<...        ",
"                ...>>>>>>===$$&&&===>>>>>...===<<<<..           ",
"                ...>>>>>>===$$&&&===>>>>>...===<<<<..           ",
"                ...>>>>>>===$$&&&===>>>>>...===<<<<..           ",
"                   ......===>>===;;;===..======....             ",
"                   ......===>>===;;;===..======....             ",
"                   ......===>>===;;;===..======....             ",
"                         ...==>>>>>>>>>>>>>>===....             ",
"                         ...==>>>>>>>>>>>>>>===....             ",
"                         ...==>>>>>>>>>>>>>>===....             ",
"                            ........========@@@....             ",
"                            ........========@@@....             ",
"                            ........=====***@@@....             ",
"                                    ...@@@@@...                 ",
"                                    ...@@@@@...                 ",
"                                    ...@@@@@...                 ",
"                                       .....                    ",
"                                       .....                    ",
"                                       .....                    ",
"                                                                "
};
