/* XPM */
static char *_28687e51ebe4fe59c24503d7871cf12dhgIVqhH7QqlpHpO[] = {
/* columns rows colors chars-per-pixel */
"64 64 154 2 ",
"   c None",
".  c #000000",
"X  c #080807",
"o  c #070708",
"O  c #080708",
"+  c #0A0A0B",
"@  c #0F100F",
"#  c #0F0F10",
"$  c #0F1010",
"%  c #141414",
"&  c #181616",
"*  c #181817",
"=  c #171718",
"-  c #1D1C1C",
";  c #20201F",
":  c #242424",
">  c #292727",
",  c #272927",
"<  c #2C2C2B",
"1  c #333333",
"2  c #383737",
"3  c #383837",
"4  c #383738",
"5  c #373838",
"6  c #3B3B3B",
"7  c #3F403F",
"8  c #434443",
"9  c #4A494A",
"0  c #50504F",
"q  c #4F4F50",
"w  c #565655",
"e  c #5B5B5B",
"r  c #5F6161",
"t  c #646464",
"y  c #686767",
"u  c #686768",
"i  c #6A6A6A",
"p  c #747474",
"a  c #787777",
"s  c #787778",
"d  c #7B7C7C",
"f  c #848485",
"g  c #8D8D8D",
"h  c #908E8F",
"j  c #90908F",
"k  c #939393",
"l  c #9C9C9C",
"z  c #A0A09F",
"x  c #A3A3A3",
"c  c #A8A7A7",
"v  c #ABABAB",
"b  c #B0B0AF",
"n  c #B2B2B2",
"m  c #BBBABB",
"M  c #C5C5C5",
"N  c #C8C7C8",
"B  c #CCCCCC",
"V  c #D0CFCF",
"C  c #D0CFD0",
"Z  c #CFD0D0",
"A  c #D4D3D4",
"S  c #D7D7D8",
"D  c #DCDBDC",
"F  c gainsboro",
"G  c #DEDFDD",
"H  c #DDDDDE",
"J  c #DDDFDE",
"K  c #DEDFDF",
"L  c #DBDBDB",
"P  c #DFE0E0",
"I  c #E1E1E2",
"U  c #E1E2E2",
"Y  c #E3E2E3",
"T  c #E7E7E7",
"R  c #E3E3E3",
"E  c #E8E7E7",
"W  c #E8E7E8",
"Q  c #E9EAE9",
"!  c #E9EAEA",
"~  c #EAEAEA",
"^  c #EBECEC",
"/  c #ECECEC",
"(  c #ECEDED",
")  c #EFEFEE",
"_  c #ECECEC",
"`  c #F2F1F1",
"'  c #F1F2F2",
"]  c #F3F2F2",
"[  c #F2F3F2",
"{  c #F3F2F3",
"}  c #F2F3F3",
"|  c #F3F3F3",
" . c #F3F4F3",
".. c #F3F3F4",
"X. c #F4F4F4",
"o. c #F6F5F6",
"O. c #F6F6F6",
"+. c #F7F6F7",
"@. c #F4F4F4",
"#. c #F8F8F7",
"$. c #F8F7F8",
"%. c #F8F7F8",
"&. c #F7F9F9",
"*. c #F9F8F8",
"=. c #F8F9F8",
"-. c #F9F9F8",
";. c #F9F9F9",
":. c #F9FAF9",
">. c #FAFAF9",
",. c #F8F9FA",
"<. c #F9F9FA",
"1. c #FAF9FA",
"2. c #F8FAFA",
"3. c #F9FAFA",
"4. c #FAFBFA",
"5. c #FBFBFA",
"6. c #FAFAFB",
"7. c #FAFBFB",
"8. c #FBFBFB",
"9. c #FCFBFB",
"0. c #FAFCFA",
"q. c #FBFCFB",
"w. c #FBFDFB",
"e. c #FCFCFB",
"r. c #FCFDFB",
"t. c #FCFBFC",
"y. c #FDFBFC",
"u. c #FBFCFC",
"i. c gray99",
"p. c #FDFCFC",
"a. c #FCFDFC",
"s. c #FDFDFC",
"d. c #FCFCFD",
"f. c #FDFCFD",
"g. c #FCFDFD",
"h. c #FDFDFD",
"j. c #FEFDFD",
"k. c #FCFEFC",
"l. c #FDFEFD",
"z. c #FEFEFD",
"x. c #FEFFFD",
"c. c #FEFDFE",
"v. c #FFFDFE",
"b. c #FDFEFE",
"n. c #FDFFFE",
"m. c #FEFEFE",
"M. c #FFFEFE",
"N. c #FEFFFE",
"B. c #FFFFFE",
"V. c #FEFEFF",
"C. c #FFFEFF",
"Z. c #FEFFFF",
"A. c white",
"S. c #FEFEFE",
/* pixels */
"                                                                                                                                ",
"                                                                                                                                ",
"                                                                                                                                ",
"                                                                                                                                ",
"                                                                                                                                ",
"                                                      . . . . . .                                                               ",
"                                                    . . . . . . . .                                                             ",
"                                                  . . . . . . . . . . .                                                         ",
"                                                . . . . . . . . . . . . .                                                       ",
"                                              1 o . . . . . . . . . . . . . - 4                                                 ",
"                                            . . . . . . . . . . . . . . . = . .                                                 ",
"                                        % 0 e w % . . . . . . . . . . . o . 6 e e e q %                                         ",
"                                  1 6 4 . N A.( 7 . + . . . . . . . . . 1 . g 4.' A.N . 4 6 1                                   ",
"                                - . . . N 4.A.A.8 . % . . . . . . . + = . v ( A.A.A.4.N . . . -                                 ",
"                                . f x v A.A.u.o.8 . @ . . . . . . . % : . L A.4.u.4.A.A.v x f .                                 ",
"                              * . D A.A.A.A.A.&.8 . $ . . . . . . o + : . A A.A.A.A.A.A.A.A.D . *                               ",
"                          1 . . ' A.A.A.A.A.A.$.o . = . . . . . . 1 . 1 ^ A.0.A.A.A.A.A.A.A.A.' . . 1                           ",
"                        w . p F A.A.A.A.A.A.A.y.S f . : . . = < 1 . u F 0.A.A.A.A.A.e.e.A.A.A.A.F p . w                         ",
"                        . u A A.A.A.A.A.A.A.A.A.A.l . 6 . * . . . u B A.A.A.A.A.A.A.A.A.A.A.A.A.A.A u .                         ",
"                      4 , Y A.4.A.A.A.A.A.A.A.A.A.v . 1 - % 6 e 4 F A.o.A.A.4.' '  .' o.u.A.A.A.4.A.Y , 4                       ",
"                  6 . < E A.9.A.A.A.A.A.A.A.A.A.A.A.N . . . g 4.' 4.A.A.o.A.F 4 e t 7 s u.A.4.A.A.9.A.W < . 6                   ",
"                - . f Y A.A.A.A.A.A.A.A.A.A.A.A.A.A.o.A S Z T A.A.A.A.A.A.B u . . . . + f ( A.A.A.A.A.A.Y f . *                 ",
"                - . x A.4.A.A.A.A.A.A.A.A.A.A.A.A.A.A.A.A.A.A.4.A.A.A.4.F u . 1 , , , . . c ! A.A.A.A.4.A.c . -                 ",
"                - . l A.A.A.A.A.A.A.A.A.A.A.A.A.A.A.A.A.A.A.A.A.A.A.A. .4 . 1 . . . : 6 8 . k A.A.A.A.A.A.l . -                 ",
"              o : . k A.A.A.A.A.A.A.A.A.A.A.A.A.A.A.A.A.A.A.A.A.A.y.A...e . < . ; . c 4.t . c A.A.A.A.A.A.k . : o               ",
"              O . v ! A.A.A.A.A.A.A.A.A.A.A.A.A.A.A.A.A.A.A.A.A.A.u.A.' e . , . % . u x 9 . x A.A.A.A.A.A.! v . X               ",
"              + . L A.4.A.A.A.A.A.A.A.A.A.A.A.A.A.A.A.A.A.A.A.A.A.u.A.' e . , . . * . . < . z A.A.A.A.A.4.A.D . +               ",
"              + . A A.4.A.A.A.A.A.A.A.A.A.A.A.A.A.A.A.A.A.A.A.A.A.A.A. .e . , . . . - < 1 . x A.A.A.A.A.0.A.C . +               ",
"              + . A A.4.A.A.A.A.A.A.A.A.A.A.A.A.A.A.A.A.A.A.A.A.A.9.A.' 1 . 1 . . . . . 4 . k A.A.A.A.A.4.A.A . +               ",
"              + . A A.4.A.A.A.A.A.A.A.A.A.A.A.A.A.A.A.A.A.A.A.A.A.A.A.4.P d . % . . + = . v ! A.A.A.A.A.4.A.A . +               ",
"              + . A A.4.A.A.A.A.A.A.A.A.A.A.A.A.A.A.A.A.A.A.A.A.A.A.A.A.A.l . : o . % ; . S A.A.A.A.A.A.4.A.A . +               ",
"              + . A A.4.A.A.A.A.A.A.A.A.A.A.A.A.A.A.A.A.A.A.A.A.A.A.A.A.A.x . * + o + : . A A.A.A.A.A.A.4.A.A . +               ",
"              + . S A.4.A.A.A.A.A.A.A.A.A.A.A.A.A.A.A.A.A.A.A.A.A.A.A.A.4.A.N . = 4 . 5 ^ A.u.A.A.A.A.A.4.A.S . +               ",
"                  f A A.A.A.A.A.A.A.A.A.A.A.A.A.A.A.A.A.A.A.A.A.A.A.A.A.A.A. .N . . i F e.A.A.A.A.A.A.A.A.A f                   ",
"                  . k A.A.A.A.A.A.A.A.A.A.A.A.A.A.A.A.A.A.A.A.A.A.A.A.A.A.A.A.A.c g N A.A.A.A.A.A.A.A.A.A.k .                   ",
"                  . c A.A.A.A.A.A.A.A.A.A.A.A.A.A.A.A.A.A.A.A.A.A.A.A.A.A.A.A.8.A.A.A.4.A.A.A.A.A.A.A.A.A.c .                   ",
"                  . v A.4.4.A.A.A.A.A.A.A.A.A.A.A.A.A.A.A.A.A.A.A.A.A.A.A.A.A.A.A.A.A.A.A.A.A.A.A.A.4.4.A.v .                   ",
"                    t m A.A.A.A.A.A.A.A.A.A.A.A.A.A.A.A.A.A.A.A.A.A.A.A.A.A.A.A.A.A.A.A.A.A.A.A.A.A.A.A.m r                     ",
"                      . B A Y A.A.A.A.A.A.A.A.A.A.A.A.A.A.A.A.A.A.A.A.A.A.A.A.A.A.A.A.A.A.A.A.A.A.Y A B .                       ",
"                        . . l A.A.A.A.A.A.A.A.A.A.A.A.A.A.A.A.A.A.A.A.A.A.A.A.A.A.A.A.A.A.A.A.A.A.l . .                         ",
"                        3 . c A.A.A.A.A.A.A.A.A.A.A.A.A.A.A.A.A.A.A.A.A.A.A.A.A.A.A.A.A.A.A.A.A.A.c . 2                         ",
"                          . u x g k j n A.A.A.A.A.A.A.A.A.A.A.A.A.A.A.A.A.A.A.A.A.A.A.A.n k k g x y .                           ",
"                            . . g k 9 . M A N B B B B B A A A A A A A A A A A B B N A M . 9 k g . .                             ",
"                              w o.A.T 8 8 1 1 1 1 1 1 , . . . . . . . . . . . 1 1 1 1 8 8 T A.o.w                               ",
"                              + < A A.( o.o.o.o.o.' 4.! t . 1 - - - - * 4 . x 4.o.o.o.o.( A.A < +                               ",
"                              . . B A.A.A.A.A.A.A.A.A.#.: . 1 . + + # . 6 . k A.A.A.A.A.A.A.B . .                               ",
"                              + . A A.4.A.y.8.8.e.4.A.o.b w . o . . o o . p N A.u.A.A.A.4.A.A . +                               ",
"                              + . A A.4.A.A.A.A.A.A.A.A.A.x . - + . % : . S A.A.A.A.A.A.4.A.A . +                               ",
"                                . S A.4.A.A.A.A.A.A.A.A.A.k . < - * : : . A A.A.A.A.A.A.4.A.S .                                 ",
"                                . a V A.A.A.A.A.A.A.A.A.A.! c . . . . % M o.A.A.A.A.A.A.A.V s .                                 ",
"                                , . u Y 4.A.A.A.A.A.A.A.4.A.! k l l k v A.A.u.A.A.A.A.4.Y u . >                                 ",
"                                  w . 1 ' A.4.A.A.A.A.A.A.4.A.A.A.A.A.A.u.A.A.A.A.4.A.' 1 . w                                   ",
"                                  1 . t 4.A.A.4.A.A.A.A.4.A.A.A.A.A.A.4.A.A.A.A.4.A.A.4.t . 1                                   ",
"                                    . 1 l k N A.A.A.A.A.A.N h l l g N A.A.A.A.A.A.N k l 1 .                                     ",
"                                      . . . p L A.A.A.4.F i . . . . i F 4.A.A.A.L p . . .                                       ",
"                                        = , . . ' 4.A.' 4 . 4 = = 4 . 4 ' A.$.' . . , &                                         ",
"                                              = 9 . n A.w . < . . < . w A.n . 9 =                                               ",
"                                                . . t x 1 . = . . = . 1 x t . .                                                 ",
"                                                % : . . . % . . . . % . . . : %                                                 ",
"                                                        + . . . . . . +                                                         ",
"                                                          . . . . . .                                                           ",
"                                                                                                                                ",
"                                                                                                                                ",
"                                                                                                                                "
};
