/* XPM */
static char *c93af240f31f4279dc230f1f02988569pjX695CwNoGKuVyI[] = {
/* columns rows colors chars-per-pixel */
"64 64 140 2 ",
"   c None",
".  c #000000",
"X  c #070807",
"o  c #0A0A0A",
"O  c #100F0F",
"+  c #0F0F10",
"@  c #100F10",
"#  c #151515",
"$  c #1B1C1B",
"%  c #201F1F",
"&  c #1F1F20",
"*  c #232323",
"=  c #272828",
"-  c #2C2C2C",
";  c #2F302F",
":  c #302F30",
">  c #343434",
",  c #383837",
"<  c #3B3B3B",
"1  c #434343",
"2  c gray30",
"3  c #515151",
"4  c #5B5B5B",
"5  c #61615F",
"6  c #5F6161",
"7  c #646464",
"8  c #6A6A6A",
"9  c #706F6F",
"0  c #747474",
"q  c #7D7D7D",
"w  c #838383",
"e  c gray54",
"r  c #8F9090",
"t  c #939393",
"y  c #9B9B9B",
"u  c #A3A4A3",
"i  c #A8A8A7",
"p  c #AAAAAA",
"a  c #AFB0B0",
"s  c gray69",
"d  c #BBBABB",
"f  c #C4C4C4",
"g  c #CDCDCD",
"h  c #D0CFCF",
"j  c #CFD0CF",
"k  c #D0D0CF",
"l  c #D0CFD0",
"z  c #CFD0D0",
"x  c #D0D0D0",
"c  c #D2D2D1",
"v  c #D2D2D2",
"b  c #D3D2D2",
"n  c #D3D4D4",
"m  c gray83",
"M  c #D5D4D5",
"N  c #D5D5D5",
"B  c #D6D6D5",
"V  c #D5D6D6",
"C  c #D7D7D7",
"Z  c #D4D4D4",
"A  c #D8D7D8",
"S  c #D7D8D8",
"D  c #D8D8D8",
"F  c gray85",
"G  c #D9DAD9",
"H  c #DBDADB",
"J  c gray86",
"K  c #DCDBDC",
"L  c #DBDCDC",
"P  c #DDDDDD",
"I  c gray87",
"U  c #DADADA",
"Y  c gray88",
"T  c #E1E1E1",
"R  c #E2E1E2",
"E  c #E1E2E2",
"W  c #E2E2E2",
"Q  c #E4E4E4",
"!  c #E5E4E4",
"~  c #E6E6E5",
"^  c #E5E5E6",
"/  c #E7E7E6",
"(  c #E7E7E7",
")  c #E1E1E1",
"_  c #E9E9E9",
"`  c #ECECEB",
"'  c #ECECEC",
"]  c #EEEEEE",
"[  c #EFEFEE",
"{  c #EFEFEF",
"}  c #EBEBEA",
"|  c #F0EFEF",
" . c #EEF0EF",
".. c #F0F0EF",
"X. c #EFEFF0",
"o. c #EEF0F0",
"O. c #F1F1F0",
"+. c #F1F1F1",
"@. c #F3F3F2",
"#. c #F3F3F3",
"$. c #F5F5F4",
"%. c #F4F4F5",
"&. c gray96",
"*. c gray97",
"=. c #F4F4F4",
"-. c #F8F8F7",
";. c #F8F7F8",
":. c #F8F8F8",
">. c #F9F9F9",
",. c #FAF9F9",
"<. c #F9FAF8",
"1. c #F9F9FA",
"2. c #FBFBFA",
"3. c #FBFAFB",
"4. c #FAFBFB",
"5. c #FBFBFB",
"6. c #FBFCFB",
"7. c #FCFCFB",
"8. c #FCFBFC",
"9. c gray99",
"0. c #FCFDFC",
"q. c #FDFDFC",
"w. c #FDFCFD",
"e. c #FCFDFD",
"r. c #FDFDFD",
"t. c #FEFEFD",
"y. c #FDFDFE",
"u. c #FEFDFE",
"i. c #FCFEFE",
"p. c #FDFEFE",
"a. c #FDFFFF",
"s. c #FEFEFE",
"d. c #FFFEFE",
"f. c #FEFFFE",
"g. c #FFFFFE",
"h. c #FEFEFF",
"j. c #FFFEFF",
"k. c #FEFFFF",
"l. c white",
"z. c #FEFEFE",
/* pixels */
"                                                                                                                                ",
"                                                                                                                                ",
"                                                                                                                                ",
"                                                                                                                                ",
"                                                                                                                                ",
"                                                                                                                                ",
"                                                                                                                                ",
"                                                                                                                                ",
"                . . . . . . .                         $ $ $ $ $ $ $ $ $ $                         . . . . . . .                 ",
"              . . . . . . . . .               > < . . . . . . . . . . . . . . < >               . . . . . . . . .               ",
"            . . . . . . . . . .             . . . w i y y y y y y y y y y i w . . .             . . . . . . . . . .             ",
"          . . . . . . . . . . . .       # 3 4 4 < T l.l.l.l.l.l.l.l.l.l.l.l.T < 4 4 3 #       . . . . . . . . . . . .           ",
"        . . . . . . . . . . . . . = 1 > . f l.#.#.5.l.l.l.l.l.l.l.l.l.l.l.l.5.#.#.l.f . > 1 = . . . . . . . . . . . . .         ",
"        . . . . . . . . . . . . # . . . f 5.l.l.l.l.l.l.l.l.l.l.l.l.l.l.l.l.l.l.l.l.5.f . . . # . . . . . . . . . . . .         ",
"        . . . . . . . . . . X X . e u p l.l.5.l.7.l.l.l.l.l.l.l.l.l.l.l.l.l.l.l.l.5.l.l.p u e . X X . . . . . . . . . .         ",
"        . . . . . . . . . X X # . J l.l.l.l.l.l.l.l.l.l.l.l.l.l.l.l.l.l.l.l.l.l.l.l.l.l.l.l.J . # X X . . . . . . . . .         ",
"        . . . . . . . . . = . . #.l.l.l.l.l.l.l.l.l.l.l.l.l.l.l.l.l.l.l.l.l.l.l.l.l.l.l.l.l.l.#.. . = . . . . . . . . .         ",
"        . . . . . . . . 1 . 0 J l.l.l.l.l.l.l.l.l.l.l.l.l.l.l.l.l.l.l.l.l.l.l.l.l.l.l.l.l.l.l.l.J 0 . 1 . . . . . . . .         ",
"        . . . . . . # . . 7 x l.l.l.l.l.l.l.l.l.l.l.l.l.l.l.l.l.l.l.l.l.l.l.l.l.l.l.l.l.l.l.l.l.l.h 7 . . # . . . . . .         ",
"        . . . . . . o > - T l.5.l.l.l.l.l.l.l.l.l.l.l.l.l.l.l.l.l.l.l.l.l.l.l.l.l.l.l.l.l.l.l.l.5.l.T - > o . . . . . .         ",
"        . . . . . - . - ! l.l.l.5.5.5.5.5.5.l.l.l.l.l.l.l.l.l.l.l.l.l.l.l.l.l.l.l.l.5.5.5.5.5.5.l.8.l.! - . - . . . . .         ",
"        . . . . # . q T l.l.l.l.l.l.l.l.l.l.l.l.l.l.l.l.l.l.l.l.l.l.l.l.l.l.l.l.l.l.l.l.l.l.l.l.l.l.l.l.T q . # . . . .         ",
"        . . . X $ . u l.l.l.l.l.B x x x B g ! l.l.l.l.l.l.l.l.l.l.l.l.l.l.l.l.l.l.! g n x x x B l.l.l.6.l.u . $ X . . .         ",
"          . . X $ . y l.l.l.l.#.. . . . . . t l.l.l.l.l.l.l.l.l.l.l.l.l.l.l.l.l.l.t . . . . . . #.l.l.l.l.y . $ X . .           ",
"          . . . * . t l.5.l.J . # o X o * # . 7 l.l.l.l.l.l.l.l.l.l.l.l.l.l.l.l.7 . # * o X o # . J l.5.l.t . * X . .           ",
"            X X . i _ l.l.g 0 . X . # . . . . . y ! l.l.l.l.l.l.l.l.l.l.l.l.! y . . . . . # . X . 0 g l.l._ i . X X             ",
"              X . K l.&.T 7 . = . $ . > i 8 . $ . f l.5.l.l.l.l.l.l.l.l.5.l.f . $ . 8 i > . $ . = . 7 T &.l.L . X               ",
"              X . f l.' > . 1 . . - . 3 5.i . > 2 J l.l.l.l.l.l.l.l.l.l.l.l.J 2 > . i 5.3 . - . . 1 . > ' l.f . X               ",
"              X . g l.| 7 . = . . X . # 3 < . . ' l.l.l.l.5.5.5.5.5.5.l.l.l.l.' . . < 3 # . X . . = . 7 X.l.g . X               ",
"              X . x l.X.4 . - . . . X . . . e P l.l.l.l.l.l.l.l.l.l.l.l.l.l.l.l.P e . . . o . . . - . 4 ..l.l . X               ",
"              X . l l.o.4 . - . . . . . 1 . u l.l.l.l.l.J x B x x B g B l.l.l.l.l.u . 1 . . . . . - . 4 ..l.l . X               ",
"              X . h l. .4 . - . . . . . - . i l.l.l.l.' < . . . . . . < ` l.l.l.l.i . - . . . . . - . 4 X.l.k . X               ",
"              X . B l.' < . > . . . O @ . g l.l.l.l.B . - $ . X X . $ - . B l.l.l.l.g . + + . . . > . < ' l.B . X               ",
"                  w B l.P 8 . > - > . 3 f &.l.l.l.l.&.f . . < . . < . . f &.l.l.l.l.&.f 3 . > - > . 8 P l.B w                   ",
"                  . r l.l.g 8 . . . . 1 l.l.5.l.l.l.l.l.s > . $ $ . > a l.l.l.l.l.5.l.l.1 . . . . 8 g l.l.t .                   ",
"                  . i l.&.l.P < 4 7 1 0 #.l.l.l.l.l.l.5.l.s . - = . a l.5.l.l.l.l.l.l.#.0 1 7 4 < P l.&.l.i .                   ",
"                  . p l.5.5.5.#.#.#.#.&.l.l.l.l.l.l.l.l.5.l.f . . f l.5.l.l.l.l.l.l.l.l.&.#.#.#.#.;.5.5.l.p .                   ",
"                    6 d l.l.l.l.l.l.l.l.l.l.l.l.l.l.l.l.l.l.&.x x &.l.l.l.l.l.l.l.l.l.l.l.l.l.l.l.l.l.l.d 5                     ",
"                      . g B T l.l.l.l.l.l.l.l.l.l.l.l.l.l.l.l.l.l.l.l.l.l.l.l.l.l.l.l.l.l.l.l.l.l.T B g .                       ",
"                        . . y l.l.l.l.l.l.l.l.l.l.l.l.l.l.l.l.l.l.l.l.l.l.l.l.l.l.l.l.l.l.l.l.l.l.y . .                         ",
"                        < . i l.l.l.l.l.l.l.l.l.l.l.l.l.l.l.l.l.l.l.l.l.l.l.l.l.l.l.l.l.l.l.l.l.l.i . ,                         ",
"                          . 7 i y u y p l.l.l.l.l.l.l.l.l.l.l.l.l.l.l.l.l.l.l.l.l.l.l.l.p y u y i 7 .                           ",
"                            . . . . . . f J x B B x g g g g g g g g g g g g x B B x J f . . . . . .                             ",
"                              > > - > = . . . . . . < : > > > > > > > > ; < . . . . . . = > - > >                               ",
"                              . . * > - & $ * * . f l.#.&.&.&.&.&.&.&.&.#.l.f . * * $ % - > * . .                               ",
"                              . # . . . . * $ $ . A l.l.l.l.l.l.l.l.l.l.l.l.J . $ $ * . . . . # .                               ",
"                              . . w i t * . . . . g l.5.l.8.8.6.l.l.l.l.5.l.g . . . . * t i w . .                               ",
"                              X . B l.&.8 # 3 1 o B l.l.l.l.l.l.l.l.l.l.l.l.B o 1 3 # 9 &.l.B . X                               ",
"                                . J l.l.5.5.5.5.5.l.l.l.l.l.l.l.l.l.l.l.l.l.l.5.5.5.;.5.l.l.J .                                 ",
"                                . e u i &.l.l.l.l.l.l.l.l.l.l.l.l.l.l.l.l.l.l.l.l.l.l.&.i u e .                                 ",
"                                o . . - -.l.5.l.l.l.l.l.l.l.l.l.l.l.l.l.l.l.l.l.l.5.l.5.- . . o                                 ",
"                                  2 . 7 _ l.l.l.l.l.l.l.l.l.l.l.l.l.l.l.l.l.l.l.l.l.l._ 7 . 2                                   ",
"                                  . . = - T l.l.l.5.5.l.l.l.l.l.l.l.l.l.7.5.5.5.5.l.T = = . .                                   ",
"                                    # . . q y i l.l.l.l.l.l.l.l.l.l.l.l.l.l.l.l.l.k 7 . . #                                     ",
"                                      X - . . . g B g J l.l.l.l.l.l.l.l.J x B x J 0 . 1 .                                       ",
"                                        . # * # . . . < ' l.&.5.5.&.l.' < . . . . . $ .                                         ",
"                                        . . X X X o . # 1 1 1 1 1 1 1 1 # . o X X X . .                                         ",
"                                        . . . . X X X . . . . . . . . . . X X X X . . .                                         ",
"                                        . . . . . . . . # # # # # # # # . . . . . . . .                                         ",
"                                          . . . . . . .                 . . . . . . .                                           ",
"                                          . . . . . .                     . . . . . .                                           ",
"                                                                                                                                ",
"                                                                                                                                ",
"                                                                                                                                "
};
