/* XPM */
static char *_7aa4f653e3a4f48c3c94cd869856abfBYrbNcCUJsCaMmCP[] = {
/* columns rows colors chars-per-pixel */
"64 64 147 2 ",
"   c None",
".  c #000000",
"X  c #070708",
"o  c #0B0A0B",
"O  c #0F100F",
"+  c #100F10",
"@  c #0F1010",
"#  c #141414",
"$  c #181616",
"%  c #171718",
"&  c #1C1C1C",
"*  c #1F2020",
"=  c #242424",
"-  c #292727",
";  c #2C2C2C",
":  c #333333",
">  c #383738",
",  c #3B3B3B",
"<  c #40403F",
"1  c #434343",
"2  c #4A4A4A",
"3  c #50504F",
"4  c #4F5050",
"5  c #565555",
"6  c #5B5B5B",
"7  c #636363",
"8  c #686767",
"9  c #676967",
"0  c #686768",
"q  c #6A6A6A",
"w  c #747474",
"e  c #787777",
"r  c #7C7C7C",
"t  c #858485",
"y  c #8D8D8D",
"u  c #908F90",
"i  c #939393",
"p  c #9C9C9C",
"a  c #A0A09F",
"s  c #A3A3A3",
"d  c #A8A7A7",
"f  c #A8A7A8",
"g  c #ABABAB",
"h  c #B2B2B2",
"j  c #BABABB",
"k  c #C5C5C5",
"l  c #C7C8C8",
"z  c #CCCCCC",
"x  c #CFCFD0",
"c  c #D0CFD0",
"v  c #D0D0D0",
"b  c #D0D1D1",
"n  c #D2D2D2",
"m  c #D2D2D3",
"M  c #D3D2D3",
"N  c LightGray",
"B  c #D6D7D7",
"V  c #D7D7D7",
"C  c #D4D4D4",
"Z  c gray85",
"A  c gray86",
"S  c #DCDBDC",
"D  c #DBDCDC",
"F  c gainsboro",
"G  c #DDDEDE",
"H  c #DEDFDE",
"J  c #DFDFDF",
"K  c #DCDBDB",
"L  c gray88",
"P  c #E1E1E1",
"I  c #E1E2E2",
"U  c #E3E2E3",
"Y  c gray89",
"T  c #E6E6E7",
"R  c #E3E3E3",
"E  c #E8E7E7",
"W  c #E8E7E8",
"Q  c #E9E9E9",
"!  c #E9EAE9",
"~  c #EAEAEA",
"^  c #EAEAEB",
"/  c #EBECEB",
"(  c #ECEDEC",
")  c gray93",
"_  c #EFEFEF",
"`  c #ECECEC",
"'  c #F2F1F2",
"]  c gray95",
"[  c #F3F3F2",
"{  c #F3F2F3",
"}  c #F2F3F3",
"|  c #F3F3F3",
" . c #F2F4F2",
".. c #F4F4F3",
"X. c #F3F4F4",
"o. c #F3F5F4",
"O. c #F6F6F5",
"+. c #F6F6F6",
"@. c #F7F6F6",
"#. c #F6F6F7",
"$. c #F4F4F4",
"%. c #F9F9F7",
"&. c #F7F7F8",
"*. c #F8F7F8",
"=. c #F7F8F8",
"-. c #F8F9F8",
";. c #F9F9F8",
":. c #F8F9F9",
">. c #F9F9F9",
",. c #FAF9F9",
"<. c #F9FAF9",
"1. c #FAF9FA",
"2. c #F9FAFA",
"3. c gray98",
"4. c #FAFBFA",
"5. c #FBFBFA",
"6. c #FAFBFB",
"7. c #FBFBFB",
"8. c #FCFBFB",
"9. c #FAFCFB",
"0. c #FBFCFB",
"q. c #FCFCFB",
"w. c #FBFBFC",
"e. c #FCFBFC",
"r. c #FBFCFC",
"t. c gray99",
"y. c #FDFCFC",
"u. c #FCFDFC",
"i. c #FDFDFC",
"p. c #FDFCFD",
"a. c #FCFDFD",
"s. c #FEFDFD",
"d. c #FDFEFC",
"f. c #FDFEFD",
"g. c #FEFEFD",
"h. c #FEFDFE",
"j. c #FFFDFF",
"k. c #FDFEFE",
"l. c #FEFEFE",
"z. c #FFFEFE",
"x. c #FEFFFE",
"c. c #FFFFFE",
"v. c #FEFEFF",
"b. c #FFFEFF",
"n. c #FEFFFF",
"m. c white",
"M. c #FEFEFE",
/* pixels */
"                                                                                                                                ",
"                                                                                                                                ",
"                                                                                                                                ",
"                                                                                                                                ",
"                                                                                                                                ",
"                                                              . . . . . .                                                       ",
"                                                            . . . . . . . .                                                     ",
"                                                        . . . . . . . . . . .                                                   ",
"                                                      . . . . . . . . . . . . .                                                 ",
"                                                > & . . . . . . . . . . . . . X :                                               ",
"                                                . . % . . . . . . . . . . . . . . .                                             ",
"                                        # 4 6 6 6 , . X . . . . . . . . . . . # 5 6 3 #                                         ",
"                                  : , > . l m.| ,.y . : . . . . . . . . . o . < ( m.k . > , :                                   ",
"                                & . . . k ,.m.m.m.( g . % o . . . . . . . # . 1 m.m.,.k . . . &                                 ",
"                                . t s g m.m.,.r.,.m.D . * # . . . . . . . o . 1 @.w.m.m.g s t .                                 ",
"                              % . S m.m.m.m.m.m.m.m.B . - o X . . . . . . + . 1 ,.m.m.m.m.m.S . %                               ",
"                          : . . | m.m.m.m.m.m.m.m.r.m./ : . : . . . . . . % . X &.m.m.m.m.m.m.| . . :                           ",
"                        5 . w J m.m.m.m.m.q.m.m.m.m.m.,.J q . : ; % . . - . t A r.m.m.m.m.m.m.m.J w . 5                         ",
"                        . q N m.m.m.m.m.m.m.m.m.m.m.q.m.m.z q . . . % . , . p m.m.m.m.m.m.m.m.m.m.N q .                         ",
"                      > ; L m.,.m.m.m.r.o.| |  .| ,.m.m.@.m.J > 6 , # & : . g m.m.m.m.m.m.m.m.m.,.m.L ; >                       ",
"                  , . ; W m.e.m.m.,.m.e.e , 7 6 > J m.@.m.m.,.| ,.y . . . k m.m.m.m.m.m.m.m.m.m.m.8.m.E ; . ,                   ",
"                % . t L m.m.m.m.m.m.( t o . . . . q z m.m.m.m.m.m.T x B N @.m.m.m.m.m.m.m.m.m.m.m.m.m.m.L t . &                 ",
"                & . s m.,.m.m.m.m.! s . . ; ; ; : . q J ,.m.m.q.,.m.m.m.m.m.m.m.m.m.m.m.m.m.m.m.m.m.m.,.m.s . &                 ",
"                & . p m.m.m.m.m.m.i . 1 , - . . . : . > | m.e.m.m.m.m.m.m.m.m.m.m.m.m.m.m.m.m.m.m.m.m.m.m.p . &                 ",
"              X = . i m.m.m.m.m.m.s . 7 ,.s . * . ; . 6 o.m.e.m.m.m.m.m.m.m.m.m.m.m.m.m.m.m.m.m.m.m.m.m.m.i . = X               ",
"              o . g ! m.m.m.m.m.m.s . 2 s q . # . ; . 6 | m.m.m.m.m.m.m.m.m.m.m.m.m.m.m.m.m.m.m.m.m.m.m.m.! g . X               ",
"              o . J m.,.m.m.m.m.m.a . ; . . % . . ; . 6 | m.m.m.m.m.m.m.m.m.m.m.m.m.m.m.m.m.m.m.m.m.m.m.,.m.A . o               ",
"              o . N m.0.m.m.m.m.m.s . : ; & . . . ; . 6 ..m.e.m.m.m.m.m.m.m.m.m.m.m.m.m.m.m.m.m.m.m.m.m.0.m.c . o               ",
"              o . N m.,.m.m.m.m.m.i . : . . . . . : . : | m.8.m.m.m.m.m.m.m.m.m.m.m.m.m.m.m.m.m.m.m.m.m.,.m.N . o               ",
"              o . N m.,.m.m.m.m.m.! g . % o . . # . r L ,.m.m.m.m.m.m.m.m.m.m.m.m.m.m.m.m.m.m.m.m.m.m.m.,.m.N . o               ",
"              o . N m.,.m.m.m.m.m.m.A . = % . X = . p m.m.m.m.m.m.m.m.m.m.m.m.m.m.m.m.m.m.m.m.m.m.m.m.m.,.m.N . o               ",
"              o . N m.,.m.m.m.m.m.m.B . - o X o % . s m.m.m.m.m.m.m.m.m.m.m.m.m.m.m.m.m.m.m.m.m.m.m.m.m.,.m.N . o               ",
"              o . A m.,.m.m.m.m.m.m.m.! : . > % . l m.0.m.m.m.m.m.m.m.m.m.m.m.m.m.m.m.m.m.m.m.m.m.m.m.m.,.m.A . o               ",
"                  t N m.m.m.m.m.m.m.m.e.J q . . l o.m.m.m.m.m.m.m.m.m.m.m.m.m.m.m.m.m.m.m.m.m.m.m.m.m.m.m.N t                   ",
"                  . i m.m.m.m.m.m.m.m.m.m.l y s m.m.m.m.m.m.m.m.m.m.m.m.m.m.m.m.m.m.m.m.m.m.m.m.m.m.m.m.m.i .                   ",
"                  . s m.m.m.m.m.m.m.m.m.,.m.m.m.8.m.m.m.m.m.m.m.m.m.m.m.m.m.m.m.m.m.m.m.m.m.m.m.m.m.m.m.m.s .                   ",
"                  . g m.,.,.m.m.m.m.m.m.m.m.m.m.m.m.m.m.m.m.m.m.m.m.m.m.m.m.m.m.m.m.m.m.m.m.m.m.m.m.,.,.m.g .                   ",
"                    7 j m.m.m.m.m.m.m.m.m.m.m.m.m.m.m.m.m.m.m.m.m.m.m.m.m.m.m.m.m.m.m.m.m.m.m.m.m.m.m.m.j 7                     ",
"                      . z B L m.m.m.m.m.m.m.m.m.m.m.m.m.m.m.m.m.m.m.m.m.m.m.m.m.m.m.m.m.m.m.m.m.m.L B z .                       ",
"                        . . p m.m.m.m.m.m.m.m.m.m.m.m.m.m.m.m.m.m.m.m.m.m.m.m.m.m.m.m.m.m.m.m.m.m.p . .                         ",
"                        > . f m.m.m.m.m.m.m.m.m.m.m.m.m.m.m.m.m.m.m.m.e.m.m.m.m.m.m.m.m.m.m.m.m.m.d . >                         ",
"                          . 0 s y i u h m.m.m.m.m.m.m.m.m.m.m.m.m.m.m.m.m.m.m.m.m.m.m.m.h i i y s 8 .                           ",
"                            . . y i 2 . k C l z z N B B B B B B B B B B z z z z z l N k . 2 i y . .                             ",
"                              5 @.m.T 1 1 : : : : . . . . . . . . . . . ; : : : : : : 1 1 T m.@.5                               ",
"                              o ; B m.( @.@.@.@.,.s . > % & & & & : . 7 ! ,.| @.@.@.@.@.( m.B ; o                               ",
"                              . . z m.m.m.m.m.m.m.i . , . @ O o . : . - %.m.m.m.m.m.m.m.m.m.z . .                               ",
"                              o . B m.,.m.r.r.0.m.l w . . X . . X . 5 h @.m.,.m.q.w.e.m.=.m.B . o                               ",
"                              o . N m.,.m.m.m.m.m.m.A . = # . o & . s m.m.m.m.m.m.m.m.m.,.m.N . o                               ",
"                                . A m.,.m.m.m.m.m.m.N . - - % & ; . i m.m.m.m.m.m.m.m.m.,.m.A .                                 ",
"                                . e z m.m.m.m.m.m.m.@.k # . . . . s ! m.m.m.m.m.m.m.m.m.m.z e .                                 ",
"                                - . q L ,.m.m.m.m.e.m.m.g i p p i ! m.,.m.m.m.m.m.m.m.,.L 9 . -                                 ",
"                                  5 . : | m.,.m.m.m.m.r.m.m.m.m.m.m.,.m.m.m.m.m.m.,.m.| : . 5                                   ",
"                                  : . 7 ,.m.m.,.m.m.m.m.,.m.m.m.m.m.m.,.m.m.m.m.,.m.m.,.7 . :                                   ",
"                                    . : p i l m.m.m.m.m.m.l y p p y l m.m.m.m.m.m.l i p : .                                     ",
"                                      . . . w S m.m.m.,.J q . . . . q J ,.m.m.m.S w . . .                                       ",
"                                        $ ; . . | *.m.| > . > % % > . > | m.,.| . . ; %                                         ",
"                                              % 2 . h m.5 . ; . . ; . 5 m.h . 2 %                                               ",
"                                                . . 7 s : . % . . % . : s 7 . .                                                 ",
"                                                # - . . . # . . . . # . . . - #                                                 ",
"                                                        o . . . . . . o                                                         ",
"                                                          . . . . . .                                                           ",
"                                                                                                                                ",
"                                                                                                                                ",
"                                                                                                                                "
};
