/* XPM */
static char *Pandoul_b1708864870[] = {
/* columns rows colors chars-per-pixel */
"64 64 230 2 ",
"   c None",
".  c black",
"X  c #010000",
"o  c #000100",
"O  c #010100",
"+  c #000001",
"@  c #010101",
"#  c #020000",
"$  c #020101",
"%  c #000200",
"&  c #010201",
"*  c #010102",
"=  c #020202",
"-  c #020302",
";  c #030302",
":  c gray1",
">  c #040303",
",  c #030403",
"<  c #040404",
"1  c #050404",
"2  c #040504",
"3  c #040405",
"4  c gray2",
"5  c #060505",
"6  c #050506",
"7  c #070707",
"8  c #080807",
"9  c gray3",
"0  c #090808",
"q  c #080809",
"w  c #090909",
"e  c #0A0909",
"r  c #090A09",
"t  c gray4",
"y  c #0B0A0A",
"u  c #0D0B0D",
"i  c gray5",
"p  c #0E0D0D",
"a  c #0D0E0D",
"s  c #0D0D0E",
"d  c #0E0E0E",
"f  c #0E0E0F",
"g  c gray7",
"h  c #131313",
"j  c #151515",
"k  c #171515",
"l  c #151517",
"z  c #161616",
"x  c #161716",
"c  c #171617",
"v  c #161717",
"b  c gray9",
"n  c #1B1B1B",
"m  c #1D1D1D",
"M  c #202020",
"N  c gray13",
"B  c #222121",
"V  c #232323",
"C  c gray14",
"Z  c #272727",
"A  c gray16",
"S  c #292A29",
"D  c #2B2B29",
"F  c #2B2B2A",
"G  c gray17",
"H  c #2C2C2C",
"J  c #2D2C2C",
"K  c gray18",
"L  c #2F2F2F",
"P  c #323132",
"I  c #323232",
"U  c #333232",
"Y  c #323332",
"T  c #323233",
"R  c #343433",
"E  c #343334",
"W  c #343434",
"Q  c #353535",
"!  c #373737",
"~  c gray22",
"^  c #3A3A3A",
"/  c #3C3C3C",
"(  c gray25",
")  c #414141",
"_  c #434242",
"`  c #434342",
"'  c #424243",
"]  c #434343",
"[  c #444444",
"{  c #464646",
"}  c gray29",
"|  c #4B4B4B",
" . c #505050",
".. c gray34",
"X. c #5B5A5A",
"o. c #5B5A5B",
"O. c gray36",
"+. c #61615F",
"@. c gray38",
"#. c #626262",
"$. c #666566",
"%. c gray40",
"&. c #686868",
"*. c #727272",
"=. c #7C7C7C",
"-. c #7E7E7E",
";. c #818181",
":. c gray52",
">. c #868687",
",. c gray54",
"<. c gray55",
"1. c #8E8E8D",
"2. c #8E8E8E",
"3. c #909090",
"4. c #919091",
"5. c gray57",
"6. c #929291",
"7. c #939392",
"8. c #929293",
"9. c #939393",
"0. c #979797",
"q. c #9A9A9A",
"w. c #9B9B9B",
"e. c #9C9D9C",
"r. c #9C9C9D",
"t. c #9D9C9D",
"y. c #9D9D9D",
"u. c gray62",
"i. c #A1A0A1",
"p. c gray63",
"a. c #A2A2A2",
"s. c #A4A4A4",
"d. c #A7A7A7",
"f. c gray66",
"g. c #A9A8A9",
"h. c #A9A9A9",
"j. c #AAAAAA",
"k. c #ACACAB",
"l. c #ACACAC",
"z. c gray70",
"x. c #BABBBA",
"c. c #BBBBBB",
"v. c #C2C3C3",
"b. c #C3C3C3",
"n. c #C6C6C6",
"m. c #C8C7C8",
"M. c #C8C8C8",
"N. c #CBCBCB",
"B. c #CCCCCB",
"V. c gray80",
"C. c #CECECD",
"Z. c #CECDCE",
"A. c #CDCECE",
"S. c #CECECE",
"D. c #CECFCF",
"F. c gray81",
"G. c #CFCFD0",
"H. c #D0D0D0",
"J. c #D2D2D1",
"K. c #D2D2D2",
"L. c #D3D2D3",
"P. c LightGray",
"I. c #D3D4D4",
"U. c gray83",
"Y. c #D4D5D5",
"T. c #D5D5D5",
"R. c gray84",
"E. c #D8D8D8",
"W. c #D9D8D9",
"Q. c #DADADA",
"!. c gray86",
"~. c #DDDCDD",
"^. c #DCDDDD",
"/. c gray88",
"(. c #E1E1E1",
"). c #E2E1E2",
"_. c #E2E2E2",
"`. c gray90",
"'. c #E5E5E6",
"]. c #E7E7E7",
"[. c #E9E9E9",
"{. c #EAEAEA",
"}. c #ECECEC",
"|. c #EFEFEF",
" X c #F0F1F1",
".X c #F1F1F1",
"XX c #F3F3F2",
"oX c #F3F3F3",
"OX c #F5F5F4",
"+X c #F5F4F5",
"@X c #F4F5F5",
"#X c gray96",
"$X c #F6F6F5",
"%X c #F6F6F6",
"&X c #F7F7F6",
"*X c gray97",
"=X c #F8F8F7",
"-X c #F8F8F8",
";X c #F9F9F9",
":X c #F8FAF9",
">X c #FAFAF9",
",X c #F9FAFA",
"<X c gray98",
"1X c #FBFBFA",
"2X c #FBFAFB",
"3X c #FAFBFB",
"4X c #FBFBFB",
"5X c #FBFCFB",
"6X c #FCFCFB",
"7X c #FBFBFC",
"8X c #FCFBFC",
"9X c #FBFCFC",
"0X c gray99",
"qX c #FDFDFC",
"wX c #FDFCFD",
"eX c #FCFDFD",
"rX c #FDFDFD",
"tX c #FEFDFD",
"yX c #FDFEFD",
"uX c #FEFEFD",
"iX c #FEFDFE",
"pX c #FDFEFE",
"aX c #FEFEFE",
"sX c #FFFEFE",
"dX c #FEFFFE",
"fX c #FFFFFE",
"gX c #FEFEFF",
"hX c #FFFEFF",
"jX c #FEFFFF",
"kX c white",
/* pixels */
"                                                                                                                                ",
"                                                                                                                                ",
"                                                                                                                                ",
"                                                                                                                                ",
"                                                                                                                                ",
"                                                                                                                                ",
"                                                                                                                                ",
"                                                                                                                                ",
"                + + + + + % %                         n m m m m m m m m n                         % + + + + + +                 ",
"              + + + + + + + + +               R / + + + + + + + + + + + + + + / R               + % + $ + + + $ +               ",
"            + + + + + + + + + +             + + + ;.h.y.y.y.u.y.y.y.y.y.y.h.;.+ + +             + + + + + + + + + +             ",
"          + + $ + + + + + + + + +       h  .O.X./ _.0X0X0X0X0X0X0X0X0X0X0X0X_./ X.O. .h       + + + + + + + + $ + + +           ",
"        + + + + + + + + + + % $ + Z ) ! + M.0X%X.X0X0X0X0X0X0X0X0X0X0X0X0X0X0X%X.X0XM.+ ~ ) Z + + + + + + + % + + + + +         ",
"        + + + + + + + + + + + + b + + + n.0X0X0X0X0X0X0X0X0X0X0X0X0X0X0X0X0X0X0X0X0X0XM.+ + + j + + + + + % + + + + + +         ",
"        + + + + + + + + + + 5 5 + >.s.l.0X0X0X0X0X0X0X0X0X0X0X0X0X0X0X0X0X0X0X0X0X0X0X0Xk.a.,.+ 5 5 + + + + + + + + + +         ",
"        + + + + + + + + + 2 8 b + ^.0X0X0X0X0X0X0X0X0X0X0X0X0X0X0X0X0X0X0X0X0X0X0X0X0X0X0X0X!.+ b 8 2 + + + + + + + % +         ",
"        + + + + + + + + + C + + .X0X0X0X0X0X0X0X0X0X0X0X0X0X0X0X0X0X0X0X0X0X0X0X0X0X0X0X0X0X0XoX+ + C + + + + + + + + +         ",
"        + + + + + 2 + + ) + *.^.0X0X0X0X0X0X0X0X0X0X0X0X0X0X0X0X0X0X0X0X0X0X0X0X0X0X0X0X0X0X0X0X!.*.+ ) + + 2 + + + + +         ",
"        + + + + + + h 2 + $.F.0X0X0X0X0X0X0X0X0X0X0X0X0X0X0X0X0X0X0X0X0X0X0X0X0X0X0X0X0X0X0X0X0X0XJ.%.+ 2 h + + + + + +         ",
"        + % + + + + p Q D _.0X5X0X0X0X0X0X0X0X0X0X0X0X0X0X0X0X0X0X0X0X0X0X0X0X0X0X0X0X0X0X0X0X0X4X0X_.D Q f $ + + + + +         ",
"        + + + + + K + J {.0X0X0X0X0X0X0X0X0X0X0X0X0X0X0X0X0X0X0X0X0X0X0X0X0X0X0X0X0X0X0X0X0X0X0X0X0X0X{.K + K + + + + +         ",
"        + + + 2 h + =./.0X0X0X0X0X0X0X0X0X0X0X0X0X0X0X0X0X0X0X0X0X0X0X0X0X0X0X0X0X0X0X0X0X0X0X0X0X0X0X0X_.=.+ h 2 + + +         ",
"        + + + 2 m + s.0X0X0X0X0X0X0X0X0X0X0X0X0X0X0X0X0X0X0X0X0X0X0X0X0X0X0X0X0X0X0X0X0X0X0X0X0X0X0X0X0X0Xa.+ m 2 + + $         ",
"          $ + 2 n + y.0X0X0X0X0X0X0X0X0X0X0X0X0X0X0X0X0X0X0X0X0X0X0X0X0X0X0X0X0X0X0X0X0X0X0X0X0X0X0X0X0X0Xy.+ n 5 + +           ",
"          j + 5 B + 7.0X0X0X0X0X0X0X0X0X0X0X0X0X0X0X0X0X0X0X0X0X0X0X0X0X0X0X0X0X0X0X0X0X0X0X0X0X0X0X0X0X0X7.+ B 2 + +           ",
"            B $ + h.}.0X0X0X0X0X0X0X0X0X0X0X0X0X0X0X0X0X0X0X0X0X0X0X0X0X0X0X0X0X0X0X0X0X0X0X0X0X0X0X0X0X0X{.h.+ 5 5             ",
"              b + ^.0X0X0X0X0X0X0X0X0X0X0X0X0X0X0X0X0X0X0X0X0X0X0X0X0X0X0X0X0X0X0X0X0X0X0X0X0X0X0X0X0X0X0X0X^.+ y               ",
"        0X    V + J.0X0X0X0X0X0X0X0X0X0X0X0X0X0X0X0X0X0X0X0X0X0X0X0X0X0X0X0X0X0X0X0X0X0X0X0X0X0X0X0X0X0X0X0XF.+ y               ",
"              p + J.0X0X0X0X0X0X0X0X0X0X0X0X0X0X0X0X0X0X0X0X0X0X0X0X0X0X0X0X0X0X0X0X0X0X0X0X0X0X0X0X0X0X0X0XT.+ y               ",
"              8 + P.0X0X0X0X0X0X0X0X0X0X0X0X0X0X0X0X0X0X0X0X0X0X0X0X0X0X0X0X0X0X0X0X0X0X0X0X0X0X0X0X0X0X0X0XT.+ y               ",
"              y + P.0X0X0X0X0X0X0X0X0X0X0X0X0X0X0X0X0X0X0X0X0X0X0X0X0X0X0X0X0X0X0X0X0X0X0X0X0X0X0X0X0X0X6X0XJ.+ 9               ",
"              y + P.0X0X0X0X0X0X0X0X0X0X0X0X0X0X0X0X0X0X0X0X0X0X0X0X0X0X0X0X0X0X0X0X0X0X0X0X0X0X0X0X0X0X0X0XJ.+ y               ",
"              y + !.0X0X0X0X0X0X0X0X0X0X0X0X0X0X0X0X0X0X0X0X0X0X0X0X0X0X0X0X0X0X0X0X0X0X0X0X0X0X0X0X0X0X0X0X^.+ y               ",
"                  :.T.0X0X0X0X0X0X0X0X0X0X0X0X0X0X0X0X0X0X0X0X0X0X0X0X0X0X0X0X0X0X0X0X0X0X0X0X0X0X0X0X0X0XU.:.                  ",
"                  + 9.0X0X0X0X0X0X0X0X0X0X0X0X0X0X0X0X0X0X0X0X0X0X0X0X0X0X0X0X0X0X0X0X0X0X0X0X0X0X0X0X0X0X9.+                   ",
"                  + h.0X0X0X0X0X0X0X0X0X0X0X0X0X0X0X0X0X0X0X0X0X0X0X0X0X0X0X0X0X0X0X0X0X0X0X0X0X0X0X0X0X0Xf.+                   ",
"                  + k.0X0X6X0X0X0X0X0X0X0X0X0X0X0X0X0X0X0X0X0X0X0X0X0X0X0X0X0X0X0X0X0X0X0X0X0X0X0X0X0X0X0Xl.+                   ",
"                    #.c.0X0X0X0X0X0X0X0X0X0X0X0X0X0X0X0X0X0X0X0X0X0X0X0X0X0X0X0X0X0X0X0X0X0X0X0X0X0X0X0Xc.#.                    ",
"                      + F.T.].0X0X0X0X0X0X0X0X0X0X0X0X0X0X0X0X0X0X0X0X0X0X0X0X0X0X0X0X0X0X0X0X0X0X_.T.H.+                       ",
"                        + + q.0X0X0X0X0X0X0X0X0X0X0X0X0X0X0X0X0X0X0X0X0X0X0X0X0X0X0X0X0X0X0X0X0X0Xy.+ +                         ",
"                        ~ + f.0X0X0X0X0X0X0X0X0X0X0X0X0X0X0X0X0X0X0X0X0X0X0X0X0X0X0X0X0X0X0X0X0X0Xf.+ ~                         ",
"                          + &.s.1.9.7.z.0X0X0X0X0X0X0X0X0X0X0X0X0X0X0X0X0X0X0X0X0X0X0X0Xz.7.7.1.s.&.+                           ",
"                            + + 1.q.} + b.U.F.F.F.F.F.F.J.F.F.F.F.F.J.F.F.F.F.F.J.M.T.n.+ } 0.1.+ +                             ",
"                              ..=X0X].) ) T E T T T T W T T T T T T T T T L T T T Q T ) ` ].0X%X..                              ",
"                              y K T.0X.X%X*X%X%X=X%X%X%X%X-X%X-XoX+X-X%X%X%X4X%X%X+X-X%X.X0XT.J y                               ",
"                              + + J.0X0X0X0X0X0X0X0X0X0X0X0X0X0X0X0X0X0X0X0X0X0X0X0X0X0X0X0XF.+ +                               ",
"                              p + T.0X4X0X0X0X0X0X0X0X0X0X0X0X0X0X0X0X0X0X0X0X0X0X0X0X0X4X0XT.+ p                               ",
"                              y + J.0X0X0X0X0X0X0X0X0X0X0X0X0X0X0X0X0X0X0X0X0X0X0X0X0X0X0X0XT.+ y                               ",
"                                + !.0X0X0X0X0X0X0X0X0X0X0X0X0X0X0X0X0X0X0X0X0X0X0X0X0X0X0X0X!.+                                 ",
"                                + ,.a.h.=X0X0X0X0X0X0X0X0X0X0X0X0X0X0X0X0X0X0X0X0X0X0X%Xl.u.,.+                                 ",
"                                u + + D 4X0X0X0X0X0X0X0X0X0X0X0X0X0X0X0X0X0X0X0X0X0X0X4XK + + p                                 ",
"                                  } + #.{.0X0X0X0X0X0X0X0X0X0X0X0X0X0X0X0X0X0X0X0X0X0X{.#.+ }                                   ",
"                                  + + D J _.0X0X0X0X0X0X0X0X0X0X0X0X0X0X0X0X0X0X0X0X_.K D + +                                   ",
"                                    j + + =.a.s.0X0X0X0X0X0X0X0X0X0X0X0X0X0X0X0Xs.a.=.+ + b                                     ",
"                                      5 L + + + F.T.F.E.0X0X0X0X0X0X0X0X!.F.T.B.+ + + L 5                                       ",
"                      0X                + h M j + + + / }.0X4X4X4X4X0X}.~ + + + j M h +                                         ",
"                                        + % 2 2 y a + b ` { ` ` { ) { ) j + p 8 2 2 2 +                                         ",
"                                        + + + + 5 2 r + + + + + + + + + + y 2 5 + + + +                                         ",
"                                        + + + + + + + $ h j j b j j b h % % + + + + + +                                         ",
"                                          + + + + + + +                 + + + + + + +                                           ",
"                                          + + + + + +                     + + + + + +                                           ",
"                                                                                                                                ",
"                                                                                                                                ",
"                                                                                                                                "
};
