/* XPM */
static char *cceda6a98aaa419fe088c07d8302b495eT54XKpLyAbOBoBh[] = {
/* columns rows colors chars-per-pixel */
"64 64 108 2 ",
"   c #02932D",
".  c #0A8934",
"X  c #098138",
"o  c #0B9432",
"O  c #0B9932",
"+  c #119534",
"@  c #139A34",
"#  c #199C37",
"$  c #1C9A3A",
"%  c #239C3E",
"&  c #1CA038",
"*  c #24A33C",
"=  c #2AA53F",
"-  c #27A93F",
";  c #2CAB3F",
":  c #279D40",
">  c #2A9F42",
",  c #2BA242",
"<  c #2EAA43",
"1  c #32A546",
"2  c #33AC44",
"3  c #36A64A",
"4  c #39A64B",
"5  c #37AB48",
"6  c #3DAC4D",
"7  c #2DB042",
"8  c #33B246",
"9  c #39B147",
"0  c #33B847",
"q  c #3CB34A",
"w  c #3CBB4C",
"e  c #40AD4F",
"r  c #42B44E",
"t  c #46BB4F",
"y  c #43AC52",
"u  c #46B452",
"i  c #49B653",
"p  c #47BA51",
"a  c #4ABD52",
"s  c #4CB559",
"d  c #4DBC59",
"f  c #51BB5C",
"g  c #55BB61",
"h  c #59BD65",
"j  c #47C14F",
"k  c #43C551",
"l  c #4CC354",
"z  c #4EC956",
"x  c #4DC458",
"c  c #4FCB58",
"v  c #50C057",
"b  c #50C757",
"n  c #50C058",
"m  c #50C558",
"M  c #55C25C",
"N  c #54C35C",
"B  c #55C45D",
"V  c #58C55F",
"C  c #50CB58",
"Z  c #50CD59",
"A  c #52CE5A",
"S  c #54C85C",
"D  c #52D15B",
"F  c #52D35B",
"G  c #52D45B",
"H  c #53D65C",
"J  c #54D45C",
"K  c #54D75C",
"L  c #55DA5E",
"P  c #55DB5E",
"I  c #57C561",
"U  c #5AC661",
"Y  c #5BC762",
"T  c #5FC766",
"R  c #57CC61",
"E  c #5BCA62",
"W  c #5BCA63",
"Q  c #5DCA65",
"!  c #5FC468",
"~  c #56D060",
"^  c #5CD464",
"/  c #5DD965",
"(  c #60CA67",
")  c #62C46C",
"_  c #61CA68",
"`  c #64CB6B",
"'  c #65CA6C",
"]  c #66CD6D",
"[  c #68CE6F",
"{  c #64D56C",
"}  c #68D66F",
"|  c #61DA69",
" . c #6ACE72",
".. c #6CCF73",
"X. c #6AD171",
"o. c #6DD074",
"O. c #6DD374",
"+. c #6ED975",
"@. c #70D377",
"#. c #71D278",
"$. c #74D47B",
"%. c #76D67E",
"&. c #78D77F",
"*. c #73D87B",
"=. c #78D87F",
"-. c #79D780",
";. c #7AD880",
":. c #7CD983",
/* pixels */
"a l a t w t l l l 2 @ 2 a i 9 9 t l a p i a l i i c J c w 9 t l l a = O 9 a t 9 9 a l a p i a a i i F J z q 9 p l b t * & q i a ",
"l l l z c z l a a 9 = 9 l l l l a i i a a a a l l F L H l a l l l a 5 * r l l l l a i i a a a a l z G L F l a l l l p 2 < r l l ",
"z F F C z Z z a a t r t l F J Z l u u i l a a l F J L J z l Z l a a t r p l F H Z a u u a a a a l F J L G z l Z l a a t t a a a ",
"k L L z l l l a a a a a l c H F l u u i a a a l z H L J l l z l a a a a a l Z H F l u u a a a a l Z H L G l l z l a a a l a 9 2 ",
"w F J z a a a a a a a a a l c c a i a a a i l l l Z F F l a a a a a a a a a l Z c a i a a i a l l l Z G Z l a a a a a a l p 2 - ",
"t l l l a a a a a a a a a a l a u u a a u u c F Z z l l l a a a a a a a a a a l a u p l a u i c F Z l l l l a a a a a a a a r w ",
"C l a t a a a a a a a a a a a u y u a a u y l H L Z l a t a a a a a a a a a a a u y u a a y u x J L Z l a a a a a a a a a a l Z ",
"H Z m n l a a a a a a l l l l i u u a l u y i z F H Z n n l a a a a a a l l l a u u u l a u u a z G G C n l l a a a a a a l z F ",
"c S ] o.` n t a a a l z F F l a i a l a i i a l l l S [ o._ l t a a a l c F Z l a i a a a a i a l l l E  .o.Q a t a a a l c c l ",
"l B o.;.$.' M a a l z F L L z a a i u u i a i i a a U #.;.#._ n a a l z G L H l a a u u u a a i i a a Q $.-.o.T n a a l Z G F c ",
"t B #.;.&.o.Q a a l G L L G l a a i u y u i u u u a U $.;.%.o.U a a z H L L F l a a u y y u i u u p a _ %.;.%.X.B a a c J L H Z ",
"t B o.-.*.X.R a a z J L F z l a a l a u u i y y u i U #.-.*.} S a a c L L F l l a a l a u u u y y u p Q $.-.*.{ m a a Z L L F l ",
"a n ' #.*./ c a a l Z F z a a a l F Z a u i u y u p B [ $.+.^ z a a l F F l a a l z G Z i u i u y u p B  .$.+.J l a a z F Z l a ",
"a a l ` o.^ z a a a l l a a a l F L F l i a a a a a a n [ X.^ z a a a l l a a a l G L F a i a a a a a a M  .X.F l a a a l l a a ",
"a a a n U n a a a a a a a a a l H L F a u a a l z l a a B I d a a a a a a a a a l J L Z i i a l l z l t a B I d a a a a a a a a ",
"a a a a u y u a a a a a a a a l G H x u y u i c F z a a a u y u a l a a a a a a z H F l y u u a Z G l a a i u y u a a a a a a a ",
"a a a u y y u a a a a a a a i l F x u y y u i z F z a a u y y u a a a a a a a a l F x y y y u a c F l a i u y y u a a a a a a a ",
"i a a u y u i a u u a l a a u a l i y y u u i l l l a a u y u i a u p a a l a p a l i y u u u a l z l a i y y u a i u i a a i u ",
"u a a u u i a a u u a a a u y u i u u i a a a a a a a a u u i a i u u a a a u y u i u u a a a a a a a l i u u i a i u i a a u y ",
"u a a i i a a a i i a a i u y y i a i a a l a a a a a a i i a a a i i a a i y y u i a i a l a a a a a a a a i a l a i i a a u y ",
"u a a a l l l a a a a V ! h s u a l a u p a a a a a a a a l l l a a a a U ! h s u a l i u i a a a a a a a a l l l a a a n U f y ",
"i a a a l F Z a a t m ] &.$.U a a a i u u a a a a a a a a z G z a a a m X.-.o.U t a a i u u a a a a a a a l c F z a a t E  .) e ",
"a a a l F J Z a a l F X.-.%.Q a a a a i i a a a a a a l z H L c a a l F o.;.#.U t a a a i i a a a a a a l c H H z a a z ^ o.' q ",
"l a i c H F l a a S } *.-.%.T a a a a a a a a a l a i i Z J Z l i a S } *.-.#.U t a a a a a a a a a a i a Z H c l i a R o.*._ t ",
"a u u l F z l l a E o.*.&.@.E a a a a l a a a a a i u u x F z l a a E o.%.=.o.B t a a a l a a a a i i u i x F l l a a ( *.%._ l ",
"a y y i l Z Z c l C { *.*.{ C a a a l z z a a i u u y y i z Z Z z l S } *.+.{ m a a a l c l a a p u u y y a z Z Z z l R X.*.} F ",
"l u y u l G L J Z z Z { } Z l a a a l F F l l u y y y u u l H L H z z F } { Z l a a a l H F l a u y y y u i z L L F z z ^ } | J ",
"z a a a l F L H H z l Z F l a l a a l F J F l u y u a a a l F J H F z l F Z l a a a a l F H Z l u y i l a a l H J H F l l F L F ",
"c F F l l l z z z l l l l a z z l a l l z z l u i l F Z l l l z z z l a l l l z z l a l l z l a u i c F Z l l l z z z l l l z z ",
"z F F l a a a a a a a a a a z c a i a a i i l l l c F Z l a a a a a a a a a l z z i i a a i a l l l Z F Z l a a a a a a a a l z ",
"z l l a a a a a a a a a a a l a u u a a u u c H F z l l a a a a a a a a a a a l i u u a a u i c J F z l l a a a a a a a a a z H ",
"G z a t a a a a a a a a a a a u y u a a u y l F L F l a t a a a a a a a a a a a u y u l a u u l G L F l t t a a a a a a a a c J ",
"F Z B B n l a a a a a l l l l i u u a a u u i z F F Z B B n a a a a a a l l l a u u i l a u u a z F F C B M n a a a a a a l c Z ",
"l S [ @.[ M a a a a l c G F l a i i a a a i i a l l E  .@.` n a a a a l Z G F l i i i a a a i i l l l E o.o._ l a a a a l Z c l ",
"t M #.:.%.] M a a l z H L L z a a i u u i a p i t a U $.:.$.` n a a l c H L H z a a i u u a a i i a t ( %.:.#.( n a a l Z H F z ",
"t B o.-.%.*.( a a z H L J F l a a p y y u i u u p a U *.-.%.o.E a a c L L J F l a a u y y u u u u i a ( $.-.%.o.B a a Z L L H c ",
"r B o.-.*.{ Z a a z H L F l a a a z x u u i u y y p U *.-.*.{ C a a c L L F l a a a z x u u u u y u p ( %.-.o.^ x a a Z L J x i ",
"p l _ #.*./ c a a l c Z z a a a z F Z a u a u u u i n _ $.+./ z a a l c Z l a a l z G Z i i i u u u i M [ *.+.L z a a l Z c a u ",
"a a l _ X.^ z a a a l l a a a l F L F l i a a a a a a n ] } ~ l a a a l l a a a l G L F a i a a a a a a M ] } F l a a a l l a a ",
"a a a n M d i a a a a a a a a l H L Z i u a a z Z l a a n M d i a a a a a a a a z J L c i u a l z Z l t a n M i i a a a a a a a ",
"a a a p u y u a a a a a a a a l F F x y y u i c F z a a p r y u a a a a a a a a z H F a y y u a Z G l a a p y y u a a a a a a a ",
"a a a u y y u a a a a a a a i l Z l y y y y i z F z a a u y y u a a a a a a a a l F a y y y u a c F l a i u y y i a a a a a a a ",
"u a a u y u a i u u a a l a u i l i y u u u i l l l a a u y u a i u u a a l a u i l u y u u u a l l l a i y y u a i u i a a u u ",
"u a a u u i a a u u a a t r y y i u u i l a a a a a a a u u i a i u u a a t u y u i u u a a a a a a a a i u u a a i u i a a u y ",
"u a a a a a a a i a a a a u y u i a a a a a a a a a a a i a a a a i a a a i y y u a a i a a a a a a a a a a a a a a i a a a u y ",
"u a a a l z l a a a a U ' ) f p a l a u u a a a a a a a a l z l a a a a Q ' ! d p a a i u i a a a a a a a a l z l a a a M T g y ",
"i a a l z F Z a a j m } &.$.U a a l i u u a a a a a a a l c G c a a l C o.-.@.U t a l i u u a a a a a a a l Z G z a a j R X.) 6 ",
"a a a z G J Z a a l ^ o.:.&.Q a a a a i i a a a a a a a z H H z a a z ^ *.:.*.U t a a a i i a a a a a a l c H H l a a z { @.' q ",
"l i u c H F l a a S } *.&.$.T a a a a a a a a a a a i i c H Z l a a E X.*.-.@.U t a a a a a a a a a a u a Z H z l a a R +.*._ t ",
"a u y a Z z l l a U o.=.%.o.E a a a a l l a a a a i u y x Z l l a a Q *.%.*.o.B a a a a l a a a a i i y i x Z l l a a _ $.%._ l ",
"a y y u l F G F l z ^ +.*.^ C a a a l Z z a a u u y y y i l F G c l C { *.+.^ l a a a l Z l a a u y y y y a z F F z l Z } *.} F ",
"l u y u l G L L F z Z ^ { Z l a a a l F H z l u y y u u u l H L J Z z Z { ^ C l a a a z H F z a u y y u u i z L L H c z Z { | H ",
"z l l a l Z H G F z l C Z l l l a a l Z H F l u u i l l a l F H G F z l Z C l l l a a l F G Z a u u a l l a l F H G F l l Z J F ",
"z F F l l l l l l l a l l l z z l a a l l l l i a z F F l l l l l l l a l l l z z a a l l l l a i a c F Z l l l l l l l a l l z ",
"l Z Z l a a a a a a a a a a z z a i a a i p l z z c Z Z l a a a a a a a a a l z l i i a a u i l z z Z F Z l a a a a a a a a i l ",
"l l l a a a a a a a a a a a l i u u a a u u c H G z l l a a a a a a a a a a a a i y u a a u i c L F z l a a a a a a a a a a a l ",
"C z a t a a a a a a a a a a a u y u a a u y a F L F l a t a a a a a a a a a a a u y u l a u u l F L F l a t a a a a a a a a a t ",
"l Z S U M a t a a a a l l l l i u p a a p u i l Z F Z V U n a a a a a a l l l l i u i l a u u a z F F S U U n a a a a a a l t 2 ",
"8 B o.%.o.B a a a a l Z H G l a i a a a a a a a l l E o.%. .M a a a a l F H F l i i a a a a i a a l l Q #.$.] l a a a a C c w + ",
"; M *.:.&. .U a a l Z J L L z a a p u u i a u i p a U %.:.%. .B a a l F J L H l a a i u u i i u u a t _ %.:.*.] n a a z J G 0 o ",
"2 a ! ' ..o.Q a a l C F F F l a a i y 4 5 9 r i a a V  .o.o.[ U a i l F F F F Z l i 5 3 u i i u u a a U  ... .] E l i p z z 8 + ",
"9 q < 3 d R Z a a p u p l l a a a a q % @ * q i a a a a n M M v p u u l l a l z l 6 : , r a a i i a a i s f M B C l q , 8 w 5 o ",
"5 q , $ * 7 q u a q , = 5 r i a a i 5 # + > 6 i p 9 = ; q t t p 6 1 5 i i 5 2 8 8 , % 1 r i a a i r 5 * , q t r q 8 , % 1 q 1 . ",
"3 i u , o   : y r < @   % 6 i a t u 4 $ % y y i r *   @ 5 a a u , # * q 6 > O     @ 1 y y r t a i 4 #   @ 5 u 6 %   o 1 u u , X "
};
