/* XPM */
static char *d0a0fec35a9140ed86e2ea2973f275be[] = {
/* columns rows colors chars-per-pixel */
"48 48 8 1 ",
"  c None",
". c #108239",
"X c #109631",
"o c #42AA52",
"O c #4ABE52",
"+ c #638E63",
"@ c #54D85D",
"# c #77D67E",
/* pixels */
"       oX   Xo      X  oX   Xo      X  oX       ",
"   OXXoO@XoX@Xo OX O@XoO@XoX@Xo OX O@XoO@XoXX   ",
"  Xo@@o@@OoO@XOooOXOO@o@@OoO@XOooOXOO@o@@OoOoX  ",
" X@o@OXO@OXOOXOOoOOo@OXO@OXOOXOOoOOo@OXO@OXOo@X ",
" o@OOO@OOOXOOOOOOOOO@@OOOOXOOOOOOOOO@@OOOOXOO@o ",
" XoO@@O@OOOO@@OoOOO@@@O@OOOO@@OoOOO@@@O@OOOOOoX ",
"oX@X@@OOOOOOO@OOOOOO@@OOOOOOO@OOOOOO@@OOOOOOX@Xo",
"X@@OOOOOOOOOOOoOOo@@OOOOOOOOOOoOOo@@OOOOOOOOO@@X",
"+XO@@OOOOOOOOOoOOoO@@OOOOOOOOOoOOoO@@OOOOOOO@OX+",
"XO@@O##OOOO@@OOOOOOOO##OOOO@@OOOOOOOO##OOOO@O@OX",
"oXoOO###OO@@@OOooOoOO###OO@@@OOooOoOO###OO@@@oXo",
"XOOOO##@OO@@OOO@oOooO##@OO@@OOO@oOooO##@OO@@OOOX",
" XOOOO#@OOOOOO@@OOOOOO#@OOOOOO@@OOOOOO#@OOOOOOX ",
" XoOOOOoOOOOOO@@oOO@OOOoOOOOOO@@oOO@OOOoOOOOOoX ",
"XOOOOOooOOOOOO@oooO@OOooOOOOOO@oooO@OOooOOOOOOOX",
"OXOoOOoOOoOOOoOoOOOOOOoOOoOOOoOoOOOOOOoOOoOOoOXO",
"+XooOOOOOOOOooOOOOOOOOOOOOOOooOOOOOOOOOOOOOOooX+",
"XOOoOOO@OOO##OOOoOOOOOO@OOO##OOOoOOOOOO@OOO#oOOX",
"XOXOOO@@OO@##OOOOOOOOO@@OO@##OOOOOOOOO@@OO@#OXOX",
" XOOOo@OOO###OOOOOOOOo@OOO###OOOOOOOOo@OOO##OOX ",
" o@@ooO@@O@#@OOO@OOoooO@@O@#@OOO@OOoooO@@O@#@@o ",
" Xo@OOO@@@O@OOOO@@OoOOO@@@O@OOOO@@OoOOO@@@O@@oX ",
"oX@O@@OOOOOOO@OOOOOO@@OOOOOOO@OOOOOO@@OOOOOOO@Xo",
"X@@@OOOOOOOOOOoOOo@@OOOOOOOOOOoOOo@@OOOOOOOO@@@X",
"+XO@@OOOOOOOOOoOOoO@@OOOOOOOOOoOOoO@@OOOOOOO@OX+",
"XO@OO##OOOO@@OOOOOOOO##OOOO@@OOOOOOOO##OOOO@O@OX",
"oXoOO###OO@@@OOooOoOO###OO@@@OOooOoOO###OO@@@oXo",
"XOOoO##@OO@@OOO@oOooO##@OO@@OOO@oOooO##@OO@@oOOX",
"oXOOOO#@OOOOOO@@OOOOOO#@OOOOOO@@OOOOOO#@OOOOOOXo",
"oXoOOOOoOOOOOO@@oOO@OOOoOOOOOO@@oOO@OOOoOOOOOoXo",
"XOOOOOooOOOOOO@oooO@OOooOOOOOO@oooO@OOooOOOOOOOX",
"OXOoOOoOOoOOOoOoOOOOOOoOOoOOOoOoOOOOOOoOOoOOoOXO",
"+XooOOOOOOOOooOOOOOOOOOOOOOOooOOOOOOOOOOOOOOooX+",
"XOOoOOO@OOO##OOOoOOOOOO@OOO##OOOoOOOOOO@OOO#oOOX",
"XOXOOO@@OO@##OOOOOOOOO@@OO@##OOOOOOOOO@@OO@#OXOX",
"+XOOOo@OOO###OOOOOOOOo@OOO###OOOOOOOOo@OOO##OOX+",
"+o@@ooO@@O@#@OOO@OOoooO@@O@#@OOO@OOoooO@@O@#@@o+",
" Xo@OOO@@@O@OOOO@@OoOOO@@@O@OOOO@@OoOOO@@@O@@oX ",
" .@O@@OOOOOOO@OOOOOO@@OOOOOOO@OOOOOO@@OOOOOOO@. ",
" .OOOOOOOOOOOOoOOo@@OOOOOOOOOOoOOo@@OOOOOOOOOO. ",
"+.XO@OOOOOOOOOoOOoO@@OOOOOOOOOoOOoO@@OOOOOOOOX.+",
"++.XO##OOOO@@OOOOOOOO##OOOO@@OOOOOOOO##OOOO@X.++",
"+++XO###OO@@@OOooOoOO###OO@@@OOooOoOO###OO@@X+++",
"++.XOXo@OOoOOOOOXXOOOOOOOoOOO@oXOOOOOoOO@oXOX.++",
" +..OoXXoOXXoOOoXooOXXOOoXOoXXXooOOoXXOoXXoO..+ ",
" ++.ooXXoXXXoOXoXoOoXXoOXXXXXXXooXOoXXXoXXoo.++ ",
"  ++X..XX......X..XXXX.....XX...X......XX..X++  ",
"      +..X....X+++....X+  X..++  X....X..+      "
};
