/* XPM */
static char *_5d389245a234a4bd5f7c24c9a51b328XIVqYX7NOja5Ufeg[] = {
/* columns rows colors chars-per-pixel */
"64 64 5 1 ",
"  c None",
". c black",
"X c gray33",
"o c #595459",
"O c gray64",
/* pixels */
"                                                                ",
"                                                                ",
"                            O                                   ",
"                        O   O    OOOO    O                      ",
"                       OO   O   OOOX    OOX                     ",
"                       O  XXO   OOXX   OOXXX      O             ",
"                     XOO   X.X  ..X    OXX    OOOOO             ",
"                     XXXO  X.X  ..X OOOOX    OO  oo             ",
"                     XXX. ...X ...OOO..X    OOXXOOOOO           ",
"                      OX.XX..XXX..X...XOO .X..OOO               ",
"               XOO   XX...............XXXXX..XXXXXXX            ",
"              XXX.XOOO......................OXX   XXXX          ",
"             OOXX.............................     XX           ",
"                 X.............................                 ",
"                XX...............................OOOOO          ",
"           O o XX.................................   OO         ",
"         OO... X..................................X             ",
"       O...........................................XXXOOOOOO    ",
"        O...........................................XXXXXXXXX   ",
"        OOO..........................................           ",
"          OOO........................................ OOOOOO    ",
"             X.......................................O          ",
"            OO........................................          ",
"           OO.........................................OOOOo     ",
"       OOOXXX..........................................   o     ",
"     OOXXXXO..........................................          ",
"     OXXX    .........................................XXXOOOO   ",
"            XX.........................................XXXO     ",
"            X..........................................XO       ",
"       XXX.............................................XOOO     ",
"       ................................................XX       ",
"      oOOOO.XX.........................................XO       ",
"       OOXXX X..........................................XXX OOO ",
"       O  OO X........................................X..XXXX   ",
"          XXOO........................................O         ",
"           XXO.......................................OOOO       ",
"             OX......................................           ",
"             XXO.....................................  o        ",
"            XXXO....................................XXXOO       ",
"           XXOXXX..................................XOOO         ",
"           XX XOXX.................................O OOO        ",
"          XX XX XX................................XXXXXXO       ",
"            OX  XX...............................X  OOOXX       ",
"            O   XXO.............................X               ",
"                 OX.............................X               ",
"                OOOX............................XOO             ",
"               OOO  XX...........................XXXX           ",
"                 O   XXX......................XX...XX           ",
"                     OO X................XX.   XXXX             ",
"                    OO  X.O ... .XO   ..XOO    X                ",
"                         XXO .  .XO   ..XOO                     ",
"                         OXXOO  XXXO  XXX OO                    ",
"                        OOOO   XXXOO  X    OO                   ",
"                        O  O   XXX          O                   ",
"                               X            OO                  ",
"                                                                ",
"                                                                ",
"                                                                ",
"                                                                ",
"                                                                ",
"                                                                ",
"                                                                ",
"                                                                ",
"                                                                "
};
