/* XPM */
static char *b58a63e6f6734a08a5e045321c94bdd6tWDwIAv3DRH9EgNM[] = {
/* columns rows colors chars-per-pixel */
"48 48 128 2 ",
"   c None",
".  c #0E5C31",
"X  c #145E34",
"o  c #2C5E2E",
"O  c #315E2D",
"+  c #136D2F",
"@  c #0E722F",
"#  c #0E6431",
"$  c #0E6D32",
"%  c #176037",
"&  c #1E6D3A",
"*  c #0F7533",
"=  c #0F7A34",
"-  c #137533",
";  c #1F753D",
":  c #127C38",
">  c #197B3B",
",  c #3D6A2E",
"<  c #2D6530",
"1  c #306330",
"2  c #336038",
"3  c #4C422B",
"4  c #53472C",
"5  c #57482D",
"6  c #5B4C2E",
"7  c #544C36",
"8  c #584930",
"9  c #745B2D",
"0  c #7C5E2E",
"q  c #645431",
"w  c #6A5531",
"e  c #43682E",
"r  c #287342",
"t  c #5A554C",
"y  c #5C5850",
"u  c #625D4F",
"i  c #635F53",
"p  c #406F51",
"a  c #457255",
"s  c #52755E",
"d  c #63605A",
"f  c #6A675C",
"g  c #5B7D67",
"h  c #8A662C",
"j  c #0F8531",
"k  c #0F8831",
"l  c #118435",
"z  c #108B35",
"x  c #108239",
"c  c #148C39",
"v  c #109532",
"b  c #179A35",
"n  c #22863D",
"m  c #258B3D",
"M  c #29923F",
"N  c #229D3D",
"B  c #25A13F",
"V  c #2F8346",
"C  c #288E40",
"Z  c #328A46",
"A  c #338E48",
"S  c #259343",
"D  c #2A9543",
"F  c #279F40",
"G  c #2B9D44",
"H  c #2F9B48",
"J  c #319646",
"K  c #349249",
"L  c #319D49",
"P  c #27A040",
"I  c #2EA244",
"U  c #2BAE42",
"Y  c #31A347",
"T  c #33AE45",
"R  c #34A648",
"E  c #3CA44E",
"W  c #33A848",
"Q  c #3DAA4E",
"!  c #2EB244",
"~  c #36B047",
"^  c #3EA750",
"/  c #3EA950",
"(  c #40AE4E",
")  c #41B34E",
"_  c #43B94E",
"`  c #40A750",
"'  c #42AA52",
"]  c #47B752",
"[  c #45B552",
"{  c #45B252",
"}  c #46B850",
"|  c #46B950",
" . c #47BB51",
".. c #47BC51",
"X. c #49BC52",
"o. c #49BD52",
"O. c #4ABD52",
"+. c #4ABE52",
"@. c #4ABF52",
"#. c #4ABF57",
"$. c #5E866C",
"%. c #5E886C",
"&. c #5E886D",
"*. c #618A6E",
"=. c #4BC053",
"-. c #4BC153",
";. c #49C555",
":. c #4AC554",
">. c #4DC556",
",. c #4DC756",
"<. c #4EC856",
"1. c #4DCA57",
"2. c #4FCA57",
"3. c #4CCD58",
"4. c #4FCC58",
"5. c #4ECE59",
"6. c #50CE59",
"7. c #51CF59",
"8. c #4FD259",
"9. c #4FD05A",
"0. c #4FD35A",
"q. c #50D25A",
"w. c #52D45C",
"e. c #53D55C",
"r. c #53D65C",
"t. c #54D75D",
"y. c #54D85D",
"u. c #799583",
/* pixels */
"                                            D D D K                                             ",
"                                          C y.y.y.4.V                                           ",
"                                      m m #.y.y.y.e.] n Z                                       ",
"                                D D M | W y.y.y.y.y.q.Y | m D K                                 ",
"                              G y.e.+.] ! y.y.y.y.y.9.! ] =.y.9.K                               ",
"                            x y.y.e.+.] y.y.y.y.y.y.y.e.{ =.y.y.4.;                             ",
"                        m m c 7.7.4.+.=.7.y.y.y.y.y.t.4.+.=.7.7.:.x m Z                         ",
"                      M +.| S T ~ +.+.+.=.7.7.y.t.7.4.+.+.+...T T D +.| Z                       ",
"                    - ] +.] I U ! <.>.+.+.+.=.7.4.+.+.+.+.<.:.U U Y ] +.( r                     ",
"                    - ' ] I U y.y.y.e.>.+.+.+.+.+.+.+.+.<.y.y.y.9.B Y ] E r                     ",
"                    - L Q b =.y.y.y.t.4.+.+.+.+.+.+.+.=.7.y.y.y.e._ b ' D r                     ",
"                    n S Q b =.7.y.t.4.+.+.<.>.+.+.<.>.+.=.7.y.t.4._ b ^ S V                     ",
"                  m { { / B ~ =.7.4.+.+.<.y.e.<.<.y.e.>.+.=.7.4...T P { { ^ V                   ",
"                - { +.>.{ / B T T T ~ =.y.y.y.t.7.y.y.e...T T T T F ' +.>.{ Q r                 ",
"                - +.=.4.+.{ / N N N b =.7.y.t.4.=.7.t.4._ v N N F ' { =.4.+.( r                 ",
"                - ] +.+.+.] ' ' { / B ~ =.7.<.T ~ =.4...T F ' ' ' ' ] +.+.] E r                 ",
"                *.J ] ] ] Y ' ' ] ' / B T T T N B T T T F ' ' ' ' { Y ] ] ` A u.                ",
"                  l H H I F ' { { { ' / N N F ' / N N F ' ' { { { | N I H D >                   ",
"                n N z z v ' { +.+.+.' ' ' ' { { { { ' Y ' ' +.+.+.+.E z z z N V                 ",
"              - ' / N v c ' +.+.+.+.' Y ' { +.+.+.+.Q v Y ' ] +.+.+.E x v F ' E r               ",
"              - Y ' Q v c L ] +.+.] I v Y ] +.+.+.+.) v v L ' +.+.{ G z b ' ' G ;               ",
"            * * z I I v v c H T T I z z v ' ] +.+.] E z z c H R R G z v F ' G j * ;             ",
"          * z x = j k v N v z z z z z v c L ' ] ] ' G z v v z z z z v v H D j = z l r           ",
"          @ v z x * * x / N v z z z v v v c H H H G z v v v v v N N N N = * = x v v r           ",
"          @ v v z x x - ' / N N v v v N N v z z z z v N N v z v Y ' ' G * x x z v z r           ",
"          @ v v v x x - Y ' ' Q v v F ' / N N v v N F ' / N = k v I G j = x x v v x r           ",
"          %.k v v x x = z I I G j x ' ' ' ' / N F ' ' ' ' E * = j j j = x x x z z > u.          ",
"            %.j = = z x = j j j * - Y ' ' ' ' I Y ' ' ' ' G * x * * = x z l $ * > u.            ",
"              $.# j v z x * * = x = z Y ' ' G j z Y ' ' G j = x x x x z z v # % u.              ",
"                @ v v v z z x x x x = z D D j * = z D D j = x z x x z v z v v r                 ",
"                @ v v v v z x z z z x * * * = z z * * * = x z v z = z v v v z r                 ",
"                * z v v z x = v v z z z x x z v v z z x z z v v v * x z v v x r                 ",
"                %.= z z x * j v v z v v x z v v v v v x z v v v v = = x z z > u.                ",
"                  %.= = * . v v v v v v = z v v v v z = x v v v v x # = = > u.                  ",
"                    a a p # z v v v v z # x v v v v : # x z v v z : X a a g                     ",
"                          a = j z v z * # x z v v z : . = x z z = : s                           ",
"                            a a = j - < $ = x z z x = + < = = : a s                             ",
"                                + , e q o < = = = - 1 o q , , &                                 ",
"                                O 0 9 q 6 q , , , e q 6 w 0 9 2                                 ",
"                                4 5 6 6 w 9 h h h h 9 q 6 5 5 7                                 ",
"                                i y y u 6 9 h h h h 9 8 i y y f                                 ",
"                                        t 3 0 0 0 9 3 d                                         ",
"                                          t 5 5 5 5 d                                           ",
"                                            y y y d                                             ",
"                                                                                                ",
"                                                                                                ",
"                                                                                                ",
"                                                                                                "
};
