/* XPM */
static char *_a98bf0e2cc6419b9eff22b39a053c80[] = {
/* columns rows colors chars-per-pixel */
"69 69 185 2 ",
"   c None",
".  c #2C241B",
"X  c #31261E",
"o  c #35281F",
"O  c #27341E",
"+  c #3A2C22",
"@  c #372A21",
"#  c #3F332A",
"$  c #3C3630",
"%  c #44352D",
"&  c #4F382A",
"*  c #45382A",
"=  c #453C36",
"-  c #4A3A32",
";  c #443F3A",
":  c #533E31",
">  c #264625",
",  c #3F422F",
"<  c #285E30",
"1  c #196E2F",
"2  c #1F7632",
"3  c #147D37",
"4  c #1C7A33",
"5  c #1B7B3B",
"6  c #1B7939",
"7  c #22622C",
"8  c #2A6631",
"9  c #266E34",
"0  c #286C36",
"q  c #2D6D3B",
"w  c #32673D",
"e  c #316D3D",
"r  c #237433",
"t  c #297337",
"y  c #227C35",
"u  c #297F37",
"i  c #2D733C",
"p  c #227B3C",
"a  c #2B7C3B",
"s  c #307238",
"d  c #444533",
"f  c #424D38",
"g  c #564235",
"h  c #5C4436",
"j  c #44503A",
"k  c #634939",
"l  c #6B4D3B",
"z  c #77513A",
"x  c #79543E",
"c  c #366541",
"v  c #3C6443",
"b  c #326C41",
"n  c #3B6E44",
"m  c #2B7A43",
"M  c #357441",
"N  c #3D7346",
"B  c #367A44",
"V  c #3A7A43",
"C  c #3F7149",
"Z  c #465446",
"A  c #407A47",
"S  c #4B7D47",
"D  c #467645",
"F  c #4D6751",
"G  c #586C56",
"H  c #4B7C55",
"J  c #4B7654",
"K  c #55745C",
"L  c #527A5C",
"P  c #5B715F",
"I  c #637158",
"U  c #5B7D62",
"Y  c #666360",
"T  c #686561",
"R  c #66796A",
"E  c #67796A",
"W  c #7D7D7C",
"Q  c #815740",
"!  c #8C5D42",
"~  c #845940",
"^  c #817F7E",
"/  c #118637",
"(  c #1C8435",
")  c #118D34",
"_  c #1A8B35",
"`  c #118239",
"'  c #198139",
"]  c #138C38",
"[  c #1A8E3D",
"{  c #109432",
"}  c #1D9237",
"|  c #199A37",
" . c #1C943A",
".. c #1D9B39",
"X. c #248537",
"o. c #26853C",
"O. c #2B8339",
"+. c #258C3B",
"@. c #2A8C3B",
"#. c #31823E",
"$. c #23913B",
"%. c #239B3B",
"&. c #2D9C3A",
"*. c #30923E",
"=. c #23A13C",
"-. c #1E8E40",
";. c #268040",
":. c #388444",
">. c #328D41",
",. c #3F824A",
"<. c #3A8E48",
"1. c #249343",
"2. c #2F9743",
"3. c #279F40",
"4. c #2B9D44",
"5. c #349441",
"6. c #379B43",
"7. c #3E944C",
"8. c #3A9C4A",
"9. c #399944",
"0. c #2BA242",
"q. c #2BA940",
"w. c #34A344",
"e. c #30A943",
"r. c #35A449",
"t. c #39A64B",
"y. c #3CAA4A",
"u. c #37A949",
"i. c #3EB54B",
"p. c #3EA950",
"a. c #428C4A",
"s. c #40954E",
"d. c #429B4E",
"f. c #468153",
"g. c #4C8856",
"h. c #4C8257",
"j. c #54815D",
"k. c #59805D",
"l. c #43AD4D",
"z. c #47AB48",
"x. c #57AC49",
"c. c #58AF49",
"v. c #42B14C",
"b. c #4AB44C",
"n. c #4AB84C",
"m. c #55B649",
"M. c #5DB849",
"N. c #40A650",
"B. c #42AB52",
"V. c #46B451",
"C. c #49B452",
"Z. c #46BB50",
"A. c #4ABD52",
"S. c #52BC52",
"D. c #58B851",
"F. c #60AF49",
"G. c #60BD50",
"H. c #68BE50",
"J. c #69BF50",
"K. c #588260",
"L. c #588260",
"P. c #69946C",
"I. c #7D887F",
"U. c #788078",
"Y. c #53C052",
"T. c #56C052",
"R. c #57C052",
"E. c #56C052",
"W. c #5FC252",
"Q. c #5FC252",
"!. c #64C252",
"~. c #69C251",
"^. c #6BC452",
"/. c #6EC552",
"(. c #6DC452",
"). c #75C652",
"_. c #74C552",
"`. c #74C652",
"'. c #78C752",
"]. c #78C752",
"[. c #818682",
"{. c #848985",
"}. c #819785",
"|. c #819785",
" X c #88928A",
/* pixels */
"                                                                   XR R                                                                   ",
"                                                                }.M 7.+.L                                                                 ",
"                                                                j.6.G.n.N                                                                 ",
"                                                              }.o.m._.R.#.K                                                               ",
"                                                              j.w.~.'.R.%.e                                                               ",
"                                                              j.c._.'.R.i.N                                                               ",
"                                                            }.o.M.'.'.R.A.#.K                                                             ",
"                                                            j.w.~.'.'.R.A.t.n                                                             ",
"                                                          }.o.m._.'.'.R.A.B.d.U                                                           ",
"                                                        }.o.e.~.'.'.'.R.A.B.B.$.h.                                                        ",
"                                                      }.o.e.W._.'.'.'.R.A.B.B.t.} L                                                       ",
"                                                  }.K.o.z.~._.'.'.'.'.R.A.C.B.B.t.+.L U                                                   ",
"                                        }.K.K.K.K.d.x.M._.'.'.W./.'.'.R.A.A.B.B.B.t.8.8.h.K.K.K.K.                                        ",
"                                        j.6.x.F.F.H._.'.'.W.R.A./.'.'./.Y.A.B.B.B.B.B.B.y.y.y.y.M                                         ",
"                                          g.&.n.R.R.R.R.R.A.V.C./.'.'.'.R.A.B.B.B.B.B.B.B.C.q.:.                                          ",
"                                            f.O.%.i.A.A.A.V.0.i./.'.'.'.R.V.0.t.B.3.t.B.3.@.i                                             ",
"                                            j.r 4 O.O.t.V.B.t.B.S./.'.'.R.B.t.p.B.t.@.O.i w v                                             ",
"                                          }.i >.8.8._ r.B.3.t.4.y.~.'.'.S.0.t.3.t.B.$.2.7.s.i K                                           ",
"                                          j.>.N.B.B...r.3.{ r.i.=.n./.W.q.0.p...| t...r.B.B.8.a K                                         ",
"                                        }.d.V.C.C.C.u.%.0.r.p.C.u.B.S.C.t.p.B.t.r.%.0.p.B.B.B.8.a K                                       ",
"                                  }.K.K.d.G.^.Y.A.A.C.u.p.B.V.A.C.B.B.B.B.B.V.B.B.t.p.B.B.B.B.B.y.a H K.                                  ",
"                                  j.6.x.H._.W.A.A.A.A.V.B.V.A.A.A.B.B.B.B.V.A.C.B.B.B.B.B.B.V.C.A.l.y.u                                   ",
"                                    g.b.R.R.A.A.A.A.A.C.C.A.A.A.A.C.B.B.V.A.A.A.C.C.C.C.0.t.B.C.A.A.a.                                    ",
"                                      k.#.v.A.A.5.v.A.A.A.A.A.A.A.A.C.C.A.A.A.A.A.A.A.A.@.} ..=.:.A                                       ",
"                                        K N A #.r y.A.A.5.v.A.A.A.A.A.A.A.A.A.A.5.v.A.A.O.i e e v                                         ",
"                                        U ( ( r ( i.A.5.5 o.v.A.5.v.A.A.5.v.A.5.5 B l.A.%.r ( ( r                                         ",
"                                      }.o.{ { 4 w.Z.5.5 ` q N.5.9.V.A.A.%.X.v.V 5 5 B l.i.X.) { ) f.                                      ",
"                                    }.o.4.r.r.u O.V p ` ` 5 B t } y.C.V...4 V p ` ) 5 B A t 2.| { ) f.                                    ",
"                                }.K.7.r.p.B.B.8.8.o.` ` ) / 5 3 /  .i.0.] ` 5 ) 4.| { 5 5 ( r.t.r.r.} f.R                                 ",
"                            }.K.d.y.V.B.B.B.B.B.B. ./ ) { { / ) / / r.../ ` ` { | 0.| { / { r.B.B.B.t.8.7.U U                             ",
"                        }.K.7.x.H.Y.A.C.B.V.B.B.B...{ { 0.| { 4. ./  .] ) { / / { r.t.| { { r.B.B.B.B.B.B.d.t.j.K.                        ",
"                    }.K.i 6.D._.'.R.A.A.C.A.C.B.B...{ 0.p...0.p.../ / ` 4.r. .{ { r.B.t.| { r.B.B.B.B.B.V.C.A.l.u H L                     ",
"                    j.6.x.H._.'.W.A.A.A.A.A.A.B.0.{ 0.V.C.i.B.B.t. ./ ) r.B.t.| { r.B.B.t.r.p.V.C.C.B.B.C.A.A.A.l.y.1                     ",
"                      g.b.R.R.R.A.5.v.A.A.A.A.B.t.r.V.A.A.A.C.B.B.t. .4.p.B.B.t.i.Z.C.B.B.B.V.A.A.A.C.>.l.A.A.A.A.a.                      ",
"                        g.O.v.A.5.r c.^.Y.A.A.B.B.B.C.A.A.A.A.B.B.B.t.p.B.B.B.V.A.A.A.C.B.B.C.A.A.A.A.O.V l.A.a.A                         ",
"                            g.O.r >.H.'.R.A.A.5.O.l.!.^.Y.A.A.B.B.B.B.B.B.B.B.C.A.A.A.A.5.O.t.C.A.A.A.l.N N A                             ",
"                              H r t.(.W.A.A.V.V 9 c._.'.R.A.A.0.t.B.B.B.B.B.3.i.A.A.A.A.O.q +.y.C.A.A.A.A v                               ",
"                              j.6.G.W.A.V.5.V q 9.H.'.W.A.A.A.i.V.B.B.B.V.C.i.Z.A.A.A.A.l.a q a %.i.A.A.l.N                               ",
"                            }.n N S A A N 5 5 r c._.'.R.A.q.i.!.Y.C.B.V.A.A.A.q.i.A.A.A.A.O.9 r 4 B A A A v P                             ",
"                        }.K.m ( ( ( ( ( ( ` 4 6.H.'.W.A.5.u.W._.R.A.C.A.!.Y.A.i.*.t.C.A.A.l.u 4 3 5 5 5 5 5 5 K R                         ",
"                }.K.K.K.7.t.y.r.r.r.r.| { { 4 c._.W.5.V X.i./.'.R.A.A.!._.R.A.A.+.X.O.t.C.A.V 5 ` ` ) { { { { _ 5 K R R R                 ",
"                j.4 6.y.V.A.A.B.B.B.B.t.r.| i D S A p 5 ) i./.'.R.A.A./.'.R.A.A...` 2 M N A v ( { { { { { { { { 4.8.s.;.c                 ",
"                  L a t.B.B.B.B.B.>.t.B.B...' 5 5 5 ` ) { u.~.'.R.A.q.n./.R.A.V...{ ` 5 9 0 6 ) { { { ) { { { { r.B.,.b                   ",
"                    K N $.t.B.3.X.5.N.B.B...{ { { { { { { | n./.R.V.u.B.S.A.A.0.{ { { / 3 3 ` / { { { { a ' { { [ B v                     ",
"                        L N a y 5.N.B.B.3.{ { { { 0.r.| { ) ..n.C.0. ...y.C.q.] { { { { { / ` ` { { { { _ 4 i e b                         ",
"                        U 0 >.8.N.B.3.t.t.r.r.| 0.p.B.t.| { )  .-.] ) ) [ 1.] ) { { { { { { { { { { ( ) 0.8.7.i c                         ",
"                      }.7.8.N.B.B.1.( 8.B.B.B.o.8.B.B.B...{ { / ` ) { { / ` ) { { { { { { ( { 0.r.| i r 8.B.B.8.7.U                       ",
"                      j.M N N N a y 5.N.B.B.B.O.8.B.B.B.t.| { { { { { { { { { { { { { { { i _ r.B..._ q N N N N N v                       ",
"                                n >.N.B.B.B.,.t 8.B.B.B.3.{ 0.r.| { { { { 0.r.| { { { 0.r.N r } ..0.r.8.n E                               ",
"                              U <.N.B.B.>.V q r 8.B.B.B...0.p.B.t.| ) { 0.p.B.t.| { 0.p.B.a w e e $.t.B.d.J                               ",
"                              C u V N N F G e >.N.B.B.>.} r.B.B.B.../ { r.B.B.B...a $.t.B.$.e G I n N N N v {.                            ",
"                                I.[.[.[.    N 8.B.>.O.r 4 8.B.B.B.o.q r 8.B.B.B.o.r 2 M d.t.N U.  {.[.[.[.[.                              ",
"                                            C u O.r > O 7 u 8.B.>.e f 8 u 8.B.>.e > O < M N v {.    P.                                    ",
"                                              I.m > . + , 8 } t.V f - d 8 8.3.i f % . O Z W [.                                            ",
"                                                Z * : h h d 9 M j g h h d s i f - g : : $                                                 ",
"                                                ; o g k k : d d g k k k h d d - - h k * . ^                                               ",
"                                                  W = + + % - + g k k k k # % - + @ + T W                                                 ",
"                                                      W W = X . : x Q Q l + X X T W W                                                     ",
"                                                            W $ o z ! ! & . Y W                                                           ",
"                                                                $ h ~ z + Y                                                               ",
"                                                                ; o z & . ^                                                               ",
"                                                                  $ + X Y                                                                 ",
"                                                                    W W                                                                   ",
"                                                                                                                                          ",
"                                                                                                                                          ",
"                                                                                                                                          ",
"                                                                                                                                          ",
"                                                                                                                                          ",
"                                                                                                                                          "
};
