/* XPM */
static char *_58fc89e44014637ca9ada2ef37fa831KY9e3JB3EfuRTVJM[] = {
/* columns rows colors chars-per-pixel */
"64 64 186 2 ",
"   c #4B922C",
".  c #5A9D2E",
"X  c #499235",
"o  c #4D9739",
"O  c #4F9D3A",
"+  c #549736",
"@  c #559B34",
"#  c #5B9C35",
"$  c #53963D",
"%  c #58963D",
"&  c #559D3B",
"*  c #5B9D3C",
"=  c #629F2C",
"-  c #629F34",
";  c #619D3A",
":  c #5DA12F",
">  c #56A235",
",  c #5CA335",
"<  c #55A13C",
"1  c #5CA23C",
"2  c #5DA93D",
"3  c #63A335",
"4  c #6AAC35",
"5  c #63A43C",
"6  c #69A63D",
"7  c #64AB3D",
"8  c #6BAC3C",
"9  c #70AE35",
"0  c #72AD3C",
"q  c #7BAE3B",
"w  c #64B23C",
"e  c #6CB33D",
"r  c #6EBA3E",
"t  c #74B336",
"y  c #78B735",
"u  c #72BC37",
"i  c #7BBC36",
"p  c #73B33D",
"a  c #7AB63D",
"s  c #74BA3D",
"d  c #7BBB3D",
"f  c #6EC03B",
"g  c #7BC135",
"h  c #71C03E",
"j  c #7EC23E",
"k  c #559641",
"l  c #5B9744",
"z  c #569E43",
"x  c #5A9D43",
"c  c #579D4A",
"v  c #5B9E4A",
"b  c #629E43",
"n  c #629D4A",
"m  c #55A143",
"M  c #5CA243",
"N  c #5EAA44",
"B  c #57A14B",
"V  c #5CA34A",
"C  c #5EAA49",
"Z  c #5FB144",
"A  c #5CA250",
"S  c #63A543",
"D  c #6AA643",
"F  c #64AB44",
"G  c #6BAC44",
"H  c #63A54A",
"J  c #6AA54A",
"K  c #64AB4A",
"L  c #6AAD4A",
"P  c #72AE44",
"I  c #74AD4B",
"U  c #7AAF4D",
"Y  c #65B244",
"T  c #6CB344",
"R  c #6EBA44",
"E  c #66B14A",
"W  c #6CB34B",
"Q  c #6EBA4A",
"!  c #73B444",
"~  c #7AB543",
"^  c #74BA44",
"/  c #7CBB43",
"(  c #73B54A",
")  c #76B74E",
"_  c #7BB54B",
"`  c #7DB74A",
"'  c #71BA49",
"]  c #73BB49",
"[  c #75BC4A",
"{  c #71BB4E",
"}  c #75B94E",
"|  c #7ABB48",
" . c #78B84A",
".. c #78BA4A",
"X. c #7EB94A",
"o. c #7CBB4A",
"O. c #7DBA4F",
"+. c #60A250",
"@. c #67A751",
"#. c #67A852",
"$. c #64AC51",
"%. c #6AAD52",
"&. c #74AE51",
"*. c #67B150",
"=. c #6BB351",
"-. c #6EBB50",
";. c #6DBC51",
":. c #73B551",
">. c #71B751",
",. c #73B750",
"<. c #7AB551",
"1. c #73BA51",
"2. c #75BB53",
"3. c #7BBC51",
"4. c #70B458",
"5. c #74C046",
"6. c #7CC144",
"7. c #75C14B",
"8. c #7DC24B",
"9. c #7FC452",
"0. c #82BB36",
"q. c #84B63D",
"w. c #82BB3D",
"e. c #8BBC3A",
"r. c #85C436",
"t. c #8AC335",
"y. c #8FCA36",
"u. c #85C23D",
"i. c #8CC53D",
"p. c #84C83E",
"a. c #8DC93D",
"s. c #93C536",
"d. c #93C837",
"f. c #92C53C",
"g. c #91C93A",
"h. c #90D03B",
"j. c #83B644",
"k. c #89B541",
"l. c #80B845",
"z. c #82BB44",
"x. c #81B946",
"c. c #89BD44",
"v. c #8DBF47",
"b. c #82B54B",
"n. c #80B84A",
"m. c #82BC4A",
"M. c #8DBF48",
"N. c #82B053",
"B. c #84BD50",
"V. c #8BBE50",
"C. c #84C341",
"Z. c #84C343",
"A. c #81C145",
"S. c #84C645",
"D. c #8BC543",
"F. c #8FC447",
"G. c #85C842",
"H. c #86C946",
"J. c #88C842",
"K. c #8CCA44",
"L. c #84C34A",
"P. c #8BC348",
"I. c #8BC64B",
"U. c #8DC44A",
"Y. c #89C64D",
"T. c #89C54E",
"R. c #86C94B",
"E. c #8CCA4B",
"W. c #8CCC49",
"Q. c #89C84F",
"!. c #91C543",
"~. c #91C546",
"^. c #92C547",
"/. c #94C545",
"(. c #91CB43",
"). c #92C54B",
"_. c #91C54D",
"`. c #92C94A",
"'. c #92CB4F",
"]. c #96D243",
"[. c #84C251",
"{. c #8BC651",
"}. c #87C854",
"|. c #8CCB51",
" X c #8EC853",
".X c #92CA51",
/* pixels */
"c v E { Q { W M x V V M < F I.v.6 * E 2.D m B A M e ^ F z F | W m < ~ _.( x H =.] } >.F M V M M z x X.W.u * H { R S x V m C ] ^ ",
"z 1 T ^ r ^ r < z z z * @ G I.P.3 * E 2.D & z z , ! [ F & S ~ T > > z.'.~ # 1 ^ s s ] F z z * * z z X.W.u @ V { R 1 & < & S { ] ",
"* 1 7 e e R T N M S D D 6 ! C.A.F N W [ G S F 8 8 G W F < F / d 8 8 ~ / e # S T e r ! F M S F 7 F D / S.p 5 K ] r F 7 6 8 G T T ",
"c v x * M K K K F ) O.` n.X.u s { -.] ^ [ ) ~ H.Q.L x S F ^ I.~.I.Y.8 @ x v v x M J L F F W | ~ X.X./ u ~ ( >.^ r R ^ z. XX.# 1 ",
"l l x z H @.#.K F ( X.~ z.~ s ^ Q Q ^ ^ ^ ( / J.Y.J l 7 7 ! Y.~./.I.8 & x x l l v J F F F W | / / X.~ ~ ^ } { ^ s R s A. Xn.# * ",
"~ ~ ! p ! ( ! M N ! / a / ! T T F F T ^ ^ ^ p t P I I ! ~ ! ! a e.c.! Y p / / P P ! ^ G 1 D | / a ~ ! ! T 7 F ^ ^ s ^ p 8 P P P ",
"K.K.C.d d z.a m m ! / s ~ R T W * * T ^ ! ^ T * ; _ m.X.n.P @ # ~ z.[ ^ j K.i.z.z.d / L * F ^ s ~ ^ ! W F @ , ^ ^ ^ ^ F @ 7 X.n.",
"D.D.z.z.z.n.~ m m W ^ ^ ^ Q W L H M T ^ ! R Y v b ~ w.~ n.( z M ~ q.~ ^ / i.i.j.b.z.X.L % F } ^ ^ ( ( =.K M 7 ] ^ ! W K m F X.w.",
"3 3 T ^ ^ ~ ! M 1 C.J./ ^ Y M S m.P./ [ G V V v < r s s | | s ~ J n T ^ e 3 4 ~ ~ ^ [ G @ G I.D.s Q K * ! L.C.s ( J V C z F [ ^ ",
"z < E { Q ] T v 1 C.`.m.} T & 3 D.(./ } G l v * > T [ ^ ( / i a n c Y 7.Y & N Q ^ { 2.G @ G ~.!./ ;.C @ p K.i.a ) v k z * S { ] ",
"x M K W W W L V M | m.( L L F 8 c.P.~ G G 8 8 7 F L E ( } ^ / ! D F L E K x M E W W =.K M L n.z.T E G 7 ! I.C.T G 8 8 6 7 F T T ",
"c x x * * * x #.K D D S * K [ z.j.n.D @ ( E.G.^ >.M & L ] ^ ( ~ | X.S z M v v * * * x S K K D 6 * * ! O.~ / s * M u.E./ [ T 1 1 ",
"V z * # # * ; F F G L S * F / w.j.n.F & ( H.G.[ >.M * T ^ ^ 2.( s d S x M x x # # # * 5 F F D F * # p X.~ X.~ z M u.K./ | W z z ",
"z < ! X.~ P ! / | F M G T ! s a ~ _ K & G / / G S F 7 s S.^ S F s s P L F * 5 [ ~ ! P ~ L.! 1 F T p a ~ | ~ T z M u / ! S S H K ",
"m * O..XP.X.X.K.I.S * W X.~ ^ s ~ ( F & F [ T # * S 6 / E.~ @ 1 ! ~ ^ [ T @ F }.Q.m.X.C.E.X., 1 3.n.~ ~ ~ ^ T < M ! [ F # M L L ",
"c * _ U.z.a / d.).J l L ^ ~ ] ^ ~ ^ N < G ( T 1 1 F G ` I./ 3 S Q ! s ^ F * D Y.P./ ~ u.~.~ & M _ j.^ ^ R R r 1 M W -.F 1 5 8 8 ",
"V x D P 0 8 p s.F.J l M 1 F Q ^ ^ ^ Q Q G 1 7 8.L.X._ I 5 0 L.O.S 1 s R.( * S G 8 8 4 0.(./ * M S 5 e ] ] ^ ^ T E N 1 ( [.m.~ ~ ",
"z z M K K F T H.H.6 & M z C ] ^ ^ s ~ [ Y & D D.d.0.X.L $ P a.G.S l i (.~ % M K F F 4 w. X~ # * z z T 1.>.! ^ ~ ] M # ~ `.D.z.` ",
"S F F E L N L | X.D F F 7 7 T T ^ / s ^ F x J m.D.w.~ T 1 G / / F S a S.! 7 F T T F S ! 3.( 7 7 7 7 Y T ! 6.d s ( V * ~ D.w.d / ",
"^ ^ ] { E < m z * W } ^ [ T * 1 8.R.d ^ G x J | / ~ ~ R Q E # 1 E W ~ ~ ! [ ] ^ W M x z * F { ] ^ R F @ p E.p.s ( +.* 0 / i s ~ ",
"s s ^ ] Y m m x M T ^ ^ [ W v M [.E.j ^ G * 5 | X._ { R Q E x x T R ( ( ^ ^ s s R M c M z F >.] ^ ] H + ! E.G.s ( M # 8 / ~ [ { ",
"/ / ^ ^ R K K K F T T T L H l z ! / s ^ ( T p | | ( W W Y Y %.%.F w W ( ^ X./ s ^ L K K F Y W E T E V k S / a | } T T ^ | ^ W %.",
"L.6.6./ ^ T E T T T T F K V k & 7 8 ^ [ { 7.6./ | G L G 7 T >.( N 2 E W [ 9.6.i / T W T T T T L F S z $ x G e [ { 7.5.^ | ! G L ",
"O.X./ / u e p T T T L F F N & & L T ] 7.] { ^ 6.d p G G e p ~ ! K C Y T ( 3.X.d i p e e T T T T F F < o V G e ^ ] ] ] ^ 6.~ 8 P ",
"6 4 / H.S.S.L.] Q L S L W Y E E E E { 7.w @ 5 6.C./ ~ ~ ~ / C.X.E K F 7 F D P J.D.G.Y.3.[ T 7 7 T T Y E =.E T h ^ 1 @ T L./ d a ",
"3 3 z.E.D.J.p.^ Q K C E =.Q ( Q E T s ^ N X * m.c.c.z.m.X./ D.m.! F F F F 1 8 Q.K.f.I.2.R T 2 F W ( ( ( T T T ^ ^ <   P V.c./ d ",
"Y T 8.J.i.i.i.w./ 8 F L L L G E =.! d 6.T x D i.D.b.U | ~ X.c.z.! T T T T 7 r L.D.f.!.c.d ~ F K L G L G T T T | / C 1 a ~.c.p ~ ",
"7.Q 8.C.i.f.d.g.i.a ! F * b 7 F *.! z.J.| %.| h.(.I J e e ! / / ~ ^ / L.X.s / 6.u.J.!.s.f.C.! L M & M F Y T ~ G.L.4.T u.].u.8 J ",
"Q R 6.z.D.F.F.a.D.! W F * M 7 N =.( w.D.w.I | K.(.! S 8 e ! / / ~ ! / G.d y i w.C.I.F.d.(.A.( =.M < C N F W ~ D.i.( p u.].u.8 D ",
"u.u.C.J.A.~ ^ z./ F M K E Y T W C 5 w.!.c.a a / d / X.} T ~ P.m.! e z.D.u.u.p.i.G./ / / 6.^ F H F F W Q Y 5 8 F.i.i a / z.z.z./ ",
"d.d.f.F./ e T ( ( N m K Q R s W M # z.`.C.d ~ ( p p.W.O.! / E.Y.T T z.E.D.i.i.K.D.t e T Q E & M T ! ^ ] F @ 7 I.a.w./ _ P ` I.K.",
"d.d.d.!.w.p ! ^ [ N & L T e i ^ M * X.E.X./ | _ s u.D.z.a w.I.L.E F O.P.J.D.f.i.D.i s ~ | T & M T e p ~ G % S Y.D.X.| ( ! X.F.!.",
"D.D.f.f.f.D.D.D.L.6 * G ( / J.L.N & T | e ; 6 P.I.z.w.e.D.u.w.~ N M D 0 q.F.!.f.i.J.F.!.I.X.* 1 Q s u.Q.( * S ^ a J 3 ~ R.C.w.k.",
"!.!.!.~.!.(.a.D.I.6 & E } X.E.Y.5 % T } L + 6 I.F.w.a C.W.C.a ! , * S S ~ F.f./.F.E.J.d.~.n.* M Q ^ C. X| # 5 ] Q n # ! W.u.w.z.",
"f.~.z./ z./ / !.F.8 1 L E ( X.| G D G W L G ! m.c.w.d ^ | / ~ ^ e 8 ! ! / K.i.w.z.| d w.~.z.1 M L T ! X.! 6 D Y W L 8 / G.u.d / ",
"i.J.8 @ < * S i.i.p F C z * # , [ 3.S @ ! Q.I./ ! ^ ^ 6 . 7 ^ ^ L.E.K.D.i.a.w.- * * # ~ ~.w.4 K m z * @ 6 | ( 1 1 C.E.d p s s ^ ",
"a.L.F z B z J D.D.p F C z z x 1 s X.J # t D.D.~ { >.>.F # F >.[ L.K.f.d.s.(.L.5 x v * ~ '.w.4 K M x x * 7 O.~ * - r.K.C.^ ] ] Q ",
"e.z.F z K L ~ z.c.6 1 K E F v 1 u ^ &.I 0.g.w.8 C C C F F K F F 8 0 q.e.e.c.[ M v L ! a c.~ 5 C L E A & 7 ^ ~ I P t.K.~ S F C N ",
"j.` 6 # G X.w.z._ 5 & E { e z 1 r ~ _ _ i.(.z.: & < & F { K & * * ; I b.j.z.! * * ( / i z.I v V { [ H & 7 ^ ~ O.n.F.I.P % z & & ",
"z.~ 8 = 0 / i X.<.S * L ] 8 1 1 r ~ ~ X.z.L.X.6 3 1 1 F T 7 1 M x x &.<._ X.! 3 3 ! a i X.I x V Q ( F 1 7 ^ ^ X.n.m.[.P ; 5 5 1 ",
"^ ~ z.P.z.~ ^ ~ ! G F S 1 S W W ] ~ i d 0 3 F ) _ _ ^ ^ ^ ! Q =.M & 1 1 F s d Y.B.~ ~ [ X.p F K M 5 T ] W ^ ~ d / 6 3 P ~ _ _ _ ",
"^ ^ S.E.z.^ Q ^ ^ T K H * S ^ ^ 2.[ / / P % S X.n._ O.| ^ ^ ^ W < < < @ 7 ^ z.I.I.X.( } ~ ! 8 K z z T ^ ] } [ / / S % P m./ / / ",
"T T / G.d ~ ( G G K C C x D / X.P L ( | G x S p p _ <.! Y T a ! 1 m D P G L ! 6.j | ( e T L F N M M ~ X.! G W ~ ~ C z D ! p a i ",
"M 1 T ~ s ^ W 1 & m m M * G Y.I.3 # T [ G < V x 1 r ^ F & 7 _ >.M < |  X( # 5 s s ^ ] F * z * * x M ~ }.^ # 1 ^ ^ 1 z x x S ^ s ",
"v M W { ^ { W M m m m * # D I.L.3 # T [ G 1 m c * e 5.C & F <.&.* # i E.{ * S Q R R { L z v * * x ; /  X~ @ 1 ^ s , < z l H Q R ",
"c v H F F T Y C C E W P 0 ~ w./ T T T ^ T e T 2.} e 7 K S ! L.c.d / p 8 F z V K K Y Y F S L G P P P d / s F E ^ ^ T T ~ | ( F F ",
"x z * & 1 F F F G | X.z.z.q.a ~ } { ] ^ ] ^ d W.Q.D % S D ~ W.y.y.`.P + * * l l z N 7 F D W X./ / X.a u ^ { >.R ^ _ | u.W.z.* l ",
"3 3 , 1 7 G 8 F F | / d w.a s ] Q Q Q ^ ^ ^ i r.C.D b 6 8 ! S.r.s.D.I v 5 5 3 S S D 8 G F G ~ d d / ! s ! W Q ] ^ _ ~ w.i.d 5 b ",
"D.C./ ~ _ X.~ M M ( ~ ! ~ ! T T M M T ^ ^ ] T 3 3 ~ ` | ~ ! 1 6 q.q.^ W | S.u.~ ` ~ ~ G * F ^ ~ ~ ^ ! e 7 1 F ( s ^ ^ 8 3 8 ( | ",
"(.K.A.X.X.n.~ M m W ^ ^ ] Q W E m & T ^ ~ { =.v * ! / X.X.G l n N.j.s ^ L.K.a.w.z.q.z.L * S ] ^ ^ ] W T 7 @ 1 ! s f ] K k J X.d ",
"| | ~ ~ a / a M M ~ w.i ^ =.$.L 0 9 r ] T E $.M M ( [ ~ / p 4 G &.>.R s ^ | | a i d ~ Z & D X.d s Q Y F G 0 t s r e E K z F ^ i ",
"# # T ^ ! ^ ! M 1 L.E.d ^ E m 3 P.E.| ] 8 * v x x W [ s s / / | b * e ^ F @ 5 ^ s ~ [ F # P Y.S.~ ] N @ P  XS.s R 1 * M z F ! s ",
"* * W 2.{ >.W < 1 8.Q.6.^ T # 3 M._.X.] G # * * * W [ s s ~ / ! ; * T } L & N { ] { >.G @ 0 E.I.~ >.F @ 0 E.S.^ >.b * x * F ( ^ ",
"x M S F F K C F F T ! 8 7 F P q k.c.P 5 W | | G L F 7 T ^ ~ ~ ~ ! ( L F C m M C F F K F 7 8 s p D F L P a u.d 7 K <.3.! T G F S ",
"c x * * * & m F L F F M + F X.z.q.j.6 @ ( E.H.[ >.N & L [ ^ ^ ~ | O.J + m B m & @ & z M F 7 7 F & * I B.z.w.t * z P.E.6.^ T x l ",
"c z 5 5 3 5 S G G K K H S G ~ d z.X.F @ W H.p.^ Q M z L X.^ ( ( ^ X.D 1 M x M 1 5 1 5 F T Y N K M 5 ! n./ d s * M u.p.d ^ G M v ",
"m < _ Y.z.| | Y.Y.F & L <._ ^ ~ ~ ) F < G / p 1 M K F | Q./ 1 S R ^ ^ { L * S [.Y.X.~ z.Q.] M M ) / / ~ | ~ ! z v p d 8 , N K K ",
"m 1 n.'.D.w.z.D.J.6 @ W O.z.^ ^ ^ { C O F 3.W z z C 6 d `.X.+ x Q R r { G @ 6 Y.`.z.q.e.K.| * b n.w.d ~ ( [ T * z ( 2.K O M F F ",
"z M ) m./ ! ~ i.D.6 z %.( ! ^ ^ ^ ] Y 2 F L L 0 0 e ! | | ~ q 0 E E ~ z.! % S 3.X.! a w.a.d ; n I ! T ^ ~ ^ T F F %.L G 0 0 p ! ",
"M M S F F F T D.I.D z v z S ^ ^ ! ~ R Q F + D F.(.w.| G + G ).U.1 m z..X| * M K 7 7 7 / K.i * v M 1 T ^ s ~ ] ] Q V # ~ `.D.z.~ ",
"< 1 7 F G F W {.{.7 @ < * 7 { ] ~ s s Q G & F P.F./ | G @ G  XY.1 < X..X! # 1 F 7 F D |  X~ * x < , E } ^ s ~ ^ Q V * | I.C./ ~ ",
"T T T W G 1 S G G T Y Y T L K D z.p.u R L z S z.w.a ^ ! T T 0 G K E ^ / s G W W W F M K G 8 E E Y Y K F ! A.6.s Q V * p c.w./ ~ ",
"] ] ] { F * z * * T ^ R ] E z M P.K.g ^ L z 7 ~ w.s ^ [ { T . 1 E Q T s ~ [ ] ] { N x v + 7 { 1.Q Q M @ ! E.G.s ( V * 0 z.d ~ ~ ",
"^ ^ ^ ] F < z x M T R R ] T z S c.a.g ^ L x S z.w.s ^ ^ ] T 1 M E W R ^ ^ ] ] ^ ( N v V z F Q R R R C % ! K.r.u ( V * P z./ s ^ "
};
