/* XPM */
static char *_460a1ae87f042b5faf2e1dd4f4f1ccbJvfen0OiwfDSW0s4[] = {
/* columns rows colors chars-per-pixel */
"64 64 66 1 ",
"  c #47A27A",
". c #4BA37D",
"X c #4EA581",
"o c #4DA983",
"O c #51A782",
"+ c #54AA86",
"@ c #57AE89",
"# c #59AE8A",
"$ c #56B38C",
"% c #5BB28D",
"& c #5FB691",
"* c #60B692",
"= c #64BB95",
"- c #69BD97",
"; c #66BF99",
": c #6DBF9C",
"> c #73BE9E",
", c #67C19A",
"< c #6CC39E",
"1 c #72C49F",
"2 c #78C19F",
"3 c #6EC5A1",
"4 c #6EC9A2",
"5 c #74C7A4",
"6 c #79C5A4",
"7 c #75C8A3",
"8 c #71C8A4",
"9 c #72C8A4",
"0 c #77C8A4",
"q c #75CCA5",
"w c #78C9A4",
"e c #78C8A7",
"r c #7ACCA7",
"t c #75CCA8",
"y c #76CDA9",
"u c #7ACBA8",
"i c #79CFAB",
"p c #7DCCAA",
"a c #7DCEAA",
"s c #7CCFAC",
"d c #7ED2AC",
"f c #7FD2AD",
"g c #7ED1AE",
"h c #82CCAD",
"j c #81CEAD",
"k c #80D1AC",
"l c #81D2AF",
"z c #82D3AF",
"x c #81D5AE",
"c c #82D3B1",
"v c #86D2B2",
"b c #82D6B1",
"n c #86D7B2",
"m c #8AD5B2",
"M c #8DD7B7",
"N c #84D8B3",
"B c #86D9B5",
"V c #88DBB6",
"C c #8CDAB7",
"Z c #88DCB7",
"A c #8ADBB8",
"S c #8FDBB8",
"D c #8EDDBA",
"F c #98DFBE",
"G c #8FE0BE",
"H c #9BE7C4",
/* pixels */
"e351055555a555555555555e555555555-55555555u555555555<55555555515",
"385era580gNe5,5%585555sNx555z7a5,&*885855znz8555e5i%,=8885555555",
"5855555555555855555555555555555500555555555555557555505775550555",
"3857555550000000Ve5555555555557550577555500555555555555ezn550555",
"3855555555555555555555555555555555555055555555555555555555555555",
"5855555555555555550055555555555555555555555555555555555555555555",
"5855555555555555550055555555555555555555555555555555555585555555",
"58555555555555553<435555555555555558<4555555555555555588$3055555",
"5855555555555555i5*855555555555555580388555555555555555,y8555555",
"3855555555555555555555555555555555557x0555555555555555zB55585555",
"3<8855555555555550555+5555555555555b5u58@885555555555555g0538555",
"3+88555q880555557555O00555558005555555554*8555i+8555555575838555",
"547585588355555555555555555+8i5555555555555558X4O555555555555555",
"3875G555555555555555556555888575555555555675585585555555555558H0",
"587SMv5555555555555555S>v5755555555555555j5e55555555555555556aCZ",
"5875588555555555555555555505555555555555555555555555555555555555",
"5855575555555555555555555505555555555555555505555555555555555775",
"58555555500555555555555i550550553:555555551555551555i55555555175",
"58510n555zVu533O5555555Bn555be505++555555cAi555577V+*=8555550550",
"585575555575838855555557755551058<85555555575555e555588755555555",
"5855555555588555B015555555555555885055555805555555555550zc555855",
"5855555555555555557555555555555555555555555555555555555e55555555",
"3155555555555555887755555555555555555555555555555555555555555555",
"3155555555555555775555555555555555555555555555555555555585555555",
"3155555555555555,<55555555555555555354755555555555555551$:555555",
"585555555555555538&35555555555555558<,55555555555555558$:8555555",
"5857555555555555555555555555555555555505555555555555555c45555555",
"540555555555555655555%5555555555555n5755 8555555555555u0z5538855",
"3.y<8558885555555550X35005583555555755753%05558+855555677588<555",
"585555583355555555555555555Xy05555555555550555O,+855555555005555",
"58555557550055555555555565588555555555555556588885555555555555e5",
"585vnv5555555555555555z2m5585555555555555e5615555555555555580mnn",
"5855885555555555555555555775555555555555555555555555555555557555",
"5855555555555555555555555555555555555555555555555555555555555555",
"3155<5555550558555555555555555555y855555555555555555055555555055",
"3155ez555nne55<+8555551VD555N0550#+555555bVe555755z+*=555555e5:0",
"5155175557755888555555575555555585555555555e55551575885555557555",
"5155555555555555Bee5555555555555585e5555555555555555555rnn555555",
"585555555555555557n555555555555555575555555555555555555z55555555",
"5855555555555555555555555555555555555555555555555555555555555555",
"5855555555555555555555555555555555555555555555555555555585555555",
"58555555555555555408555555555555555384555555555555555558+5555555",
"58555555555555555io855555555555555838385555555555555554%8<555555",
"585555555555555555555555555555555555e555555555555555555N55555555",
"553855558555555515558@5555555555555V1578X5555555555555g5n5538555",
"5O008550485555555555O3i55558588555555555y*55558O85555555558y5555",
"585555535q05555555555550058;8%8555555558750855,%;555555555855555",
"5858i885558555555555578858555555555555555551555555555555555585j1",
"585DCj5555555555555557D>65585585555555555z6655555555555555558aFD",
"5855555555555555555555555555555555555555555555555555555555555555",
"5855555555555555555555555555555555555555555555555555555555555555",
"5855555555555855555555555555555588555555555555555555855555555555",
"58557n555NVe843O555555<Vb555ze55q+.555555bZ0555r05b%;;8555550555",
"5855555555555885555755555555505085555555555555550558885575555555",
"5855555555555555755555555555555555555555555555555555555eb5555555",
"585555555555555555i555555555555555555555555555555555555g55555555",
"5855555555555555555555555555555555555555555555555555555555555555",
"5855555555555555555555555555555555555555555555555555555555555555",
"58555555555555558<85555555555555555q83555555555555555555@0555555",
"545555555555555550#555555555555555588855555555555555555#45555555",
"5855555555555555550555555555555555557555555555555555555c55555555",
"55<85555555555557u505#5555555555555N0e78 8855555555555aig55<8555",
"108o55575555555555778@X8555885555555758X+;8555057555555555534355",
"55e0555<48505555557058585583y#55555577005885588+<555550000555555"
};
