/* XPM */
static char *f1fdec7a5b4640c9845fb96e443a6eb70GMliGmN2LFpVLEn[] = {
/* columns rows colors chars-per-pixel */
"64 64 234 2 ",
"   c None",
".  c #005D26",
"X  c #115E28",
"o  c #095E39",
"O  c #175A34",
"+  c #1A5C36",
"@  c #1B5A3D",
"#  c #275A39",
"$  c #006C23",
"%  c #026D2C",
"&  c #16642D",
"*  c #00742C",
"=  c #007727",
"-  c #046B34",
";  c #086B32",
":  c #09643B",
">  c #006C3D",
",  c #056837",
"<  c #12663E",
"1  c #146D39",
"2  c #1A6B3C",
"3  c #156438",
"4  c #037334",
"5  c #0E7132",
"6  c #0F7A36",
"7  c #0E733B",
"8  c #037C3A",
"9  c #027736",
"0  c #137237",
"q  c #14733D",
"w  c #1E773F",
"e  c #1B7336",
"r  c #21633D",
"t  c #216A3F",
"y  c #20733D",
"u  c #217D3E",
"i  c #0B5E44",
"p  c #0F6545",
"a  c #136642",
"s  c #146B44",
"d  c #1A6C44",
"f  c #1A674C",
"g  c #1B6C4A",
"h  c #106749",
"j  c #0E7B44",
"k  c #0D7844",
"l  c #167345",
"z  c #1B7344",
"x  c #157A45",
"c  c #1A7A44",
"v  c #12734A",
"b  c #1C744B",
"n  c #157B4B",
"m  c #1C7B4A",
"M  c #1F6751",
"N  c #186B51",
"B  c #1B7351",
"V  c #1C7950",
"C  c #1B7757",
"Z  c #236642",
"A  c #256942",
"S  c #236B49",
"D  c #2A6E49",
"F  c #24624D",
"G  c #306642",
"H  c #37694C",
"J  c #227344",
"K  c #23754B",
"L  c #2C754D",
"P  c #227A4B",
"I  c #2A7A4E",
"U  c #327D4B",
"Y  c #337243",
"T  c #2A6C55",
"R  c #276655",
"E  c #376754",
"W  c #237553",
"Q  c #2A7552",
"!  c #247B52",
"~  c #2B7B54",
"^  c #22755B",
"/  c #267C59",
"(  c #2A7D5B",
")  c #297159",
"_  c #347B56",
"`  c #327F5C",
"'  c #3A7D5D",
"]  c #357254",
"[  c #277D62",
"{  c #0A813C",
"}  c #09893F",
"|  c #00813C",
" . c #04943D",
".. c #21853F",
"X. c #0D8B42",
"o. c #098A49",
"O. c #0E8545",
"+. c #148244",
"@. c #1D8045",
"#. c #1B864B",
"$. c #158B49",
"%. c #1B8D4E",
"&. c #158A46",
"*. c #088951",
"=. c #158552",
"-. c #1F9252",
";. c #1C9A53",
":. c #228245",
">. c #258A43",
",. c #2B8D45",
"<. c #23844B",
"1. c #2B864D",
"2. c #25894B",
"3. c #2B8B4D",
"4. c #2B8746",
"5. c #308D4F",
"6. c #32804E",
"7. c #2E954E",
"8. c #22914C",
"9. c #31954D",
"0. c #268352",
"q. c #2B8553",
"w. c #268A54",
"e. c #2D8D53",
"r. c #2B845A",
"t. c #278B59",
"y. c #2B8C5C",
"u. c #22825C",
"i. c #348452",
"p. c #308B53",
"a. c #30855B",
"s. c #328C5B",
"d. c #398755",
"f. c #2E9252",
"g. c #239559",
"h. c #2E9258",
"j. c #259B5B",
"k. c #2F985D",
"l. c #269A51",
"z. c #339455",
"x. c #329B56",
"c. c #35945C",
"v. c #3A935E",
"b. c #369A5B",
"n. c #3A9C5C",
"m. c #399157",
"M. c #3DA25C",
"N. c #34A15D",
"B. c #2E8260",
"V. c #278E63",
"C. c #278261",
"Z. c #308462",
"A. c #328961",
"S. c #3E8D69",
"D. c #328269",
"F. c #219B60",
"G. c #2E9D62",
"H. c #369360",
"J. c #3D9464",
"K. c #369963",
"L. c #3B9C62",
"P. c #3E9D6C",
"I. c #2BA465",
"U. c #2BA962",
"Y. c #36A163",
"T. c #3CA363",
"R. c #3DA965",
"E. c #3EA26C",
"W. c #39AD6C",
"Q. c #32B069",
"!. c #3FA774",
"~. c #3AA975",
"^. c #418E58",
"/. c #468456",
"(. c #409157",
"). c #45965E",
"_. c #41A25F",
"`. c #4B856F",
"'. c #478060",
"]. c #44956C",
"[. c #429B68",
"{. c #459763",
"}. c #449A73",
"|. c #559D7C",
" X c #528063",
".X c #41A364",
"XX c #4BA367",
"oX c #49AD67",
"OX c #44A36B",
"+X c #48A56E",
"@X c #45AB6C",
"#X c #4BAC6D",
"$X c #45A867",
"%X c #45B26F",
"&X c #4BB06E",
"*X c #44A773",
"=X c #4CA577",
"-X c #48AA75",
";X c #41A47C",
":X c #4CAB7A",
">X c #45AD74",
",X c #56A473",
"<X c #54A876",
"1X c #58A978",
"2X c #4DB473",
"3X c #4CBB77",
"4X c #47B47A",
"5X c #4CB57C",
"6X c #4EB97B",
"7X c #52B375",
"8X c #54B47A",
"9X c #5FB77B",
"0X c #54B97B",
"qX c #59BC7D",
"wX c #59BD77",
"eX c #64B27E",
"rX c #49AE84",
"tX c #47A580",
"yX c #4CB48C",
"uX c #4FB584",
"iX c #54B780",
"pX c #5BB584",
"aX c #5ABD83",
"sX c #59B988",
"dX c #66B593",
"fX c #6DBE86",
"gX c #4DCC85",
"hX c #5BC284",
"jX c #5FC289",
"kX c #58C789",
"lX c #5DD190",
"zX c #68CB8B",
"xX c #68CB8B",
"cX c #66C88C",
/* pixels */
"                                                                                                                                ",
"                                                                                                                                ",
"                                                                                                                                ",
"                                                                                                                                ",
"                                                                                                                                ",
"                            7 7 9     8 } }           $.                      7 9 9     8 } }         8 8                       ",
"                            7 7 9     8 } }           $.                      7 9 9     8 } }         8 8                       ",
"                           .|.|.~ ].].P P.P.x x 4X4 4 8X+.+.              = = |.~ ~ ].].K P.P.x 4X4X4 aXaX8                     ",
"                    q S S D.*X*XE.7 7 -X:X:Xl l m :X:XdXs s x       x x P ` ` *XE.E.7 7 -X:X:Xl m m :XrXrX_ 7 7                 ",
"                    q S S D.*X*XE.7 7 -X:X:Xl l m :X:XdXs s x       x x P ` a.*XE.E.7 7 -X:X:Xl m m :XrXrX_ 7 7                 ",
"              &.<.<.1 *X*XV c.c.e.<.<.w.E.E.m m m OXOXK P P #.$.$.+.+.+.P.g g c.e.e.<.<.w.E.E.m m m OX~ ~ J $.$.;.X X e         ",
"              #.8X8XlX5X5X< T.T.b.8X8X@.L.L.<.<.q q.q.P 0.0.h.%X%XkX5X5X:XP P T.b.b.8X8X@.L.L.<.q q q.x c d.1.1.>Xq.q.*         ",
"              #.8X8XlX5X5X< T.T.b.8X8Xc L.L.<.<.q q.q.P 0.0.h.%X%XkX5X5X:XP P T.b.b.8X8X@.L.L.<.q q q.x x d.1.1.>Xq.q.*         ",
"              j jXjX@XL.L.U b.b..XxXxX3.L.L.z.z.3.z.z.c.OXOXc.Y.Y.2XaXaX.X0 0 b..X.XxXxX3.L.L.z.3.3.z.G.G.s.(.(.i.m m           ",
"              j cXjXW.L.L.U b.b..XxXxX3.L.L.z.z.3.z.z.c.OXOXc.Y.Y.2XaXaX.X0 0 b..X.XxXxX3.L.L.z.3.3.z.G.G.z.(.(.i.m m           ",
"          m m K J J fX@X@XI.z.z.&XqXqXz.z.z.e.e.b.L.L.T.0X0Xf.c c c 8X8X2XT.T.z.&X&XqXqXz.z.z.e.b.b.L.OXOXgX{ { J.] ] # ; ;     ",
"        X.pXpXr.q 7 m.z.z.%.n.n.2X.X.Xz.2.2.2.2.n..X.XhX0X0Xe.q.q.P L.L.e.f.f.b.2X2X.X.Xz.2.2.2.n.n..XqXqXgX-.-.K ` ` L 9 9     ",
"        X.pXpXr.7 7 m.z.z.%.n.n.2X.X.Xz.2.2.2.2.n..X.XhX0X0Xe.q.q.P L.L.e.f.f.b.2X2X.X.Xz.2.2.2.n.n..XqXqXgX-.-.K ` ` L 9 9     ",
"        9 E.E.!.F.F.lX7X7XeXf.f.n.f.f.3.f.f.z.z.OXOXOXN.b.c.q.z z s.pXpXhX%X%Xf.n.b.f.f.3.f.f.z.OXOXOX[.[.-.q.q._ > > *.        ",
"        9 E.E.!.F.F.lX7X7XeXf.f.n.f.f.3.f.f.z.z.OXOXOXN.b.c.q.z z s.pXpXhX%X%Xf.n.n.f.f.3.f.f.z.OXOXOX[.[.-.q.q._ > > *.        ",
"          k k |.z z I.Q.Q.OXb.b.z.b.b.3.b.b.c.c.c.3.3.8.+.+.y.s s a.c.c.>XR.R.b.z.z.b.b.3.b.b.c.c.c.1././.$.-.-.S ' ' H & &     ",
"    l l *XpXpX0.c c s.K.K.c.6X6X2Xb.b.x.T.T.L.L.e.e.e.>.L.L.b B B [ / / L.b.b.6X2X2Xb.b.x.T.T.L.e.e.e.5.5.3.w w I V.V.: 1 1     ",
"    l l *XpXpX0.c c s.K.K.H.6X6X2Xb.b.x.T.T.L.L.e.e.e.>.L.L.b B B [ / / L.b.b.5X2X2Xb.b.x.T.T.L.e.e.e.5.5.3.w w I V.V.: 1 1     ",
"        P 1X1Xi.k.k.| 1.1.6.b.b.7XT.T.x.,.,.M.M.f.z.z.x.qXqXOXA.A.r.P P z.....b.7X7XT.T.x.,.,.M.f.f.z.n.n.gX,X,Xw.> > '.        ",
"    q q o.; ; 4Xc.c.Y T.T.z.z.z.#XoXoXM.9.9.M.M.n.T.T.@X0X0XT.c.c.c.3.3.z.>.>.z.#X#XoXoXM.9.9.M.n.n.T.j.j.hXj.j.s.A.A.m & &     ",
"    q q o.; ; 4Xc.c.Y T.T.z.z.z.&XoXoXM.9.9.M.M.n.T.T.@X0X0XT.c.c.c.3.3.z.>.>.z.#X#XoXoXM.9.9.n.n.n.T.j.j.hXj.j.s.A.A.m & &     ",
"        0 %.%.{.c.c.Q.^.^.u q.q.p.).n.z.n.n.3.3.c.L.L.uXK.K.x 2.2.b.z.z.z.z.z.p.p.p.n.n.z.n.n.3.c.c.L.aXaXI.q.q.s.v v 0.* *     ",
"        0 %.%.{.c.c.Q.^.^.u q.q.p.).n.z.n.n.3.3.c.L.L.uXK.K.x 2.2.b.z.z.z.z.z.p.p.p.).n.z.M.n.3.c.c.L.aXaXI.q.q.s.v v 0.* *     ",
"          y y m t.t.2 j.j.U K K P s.s.s.c.c.0.0.r.y.y.;Xu.u.l <.<.q.P P 0.r.r.K P P s.s.c.c.c.0.r.r.y.}.}.7 P K a.b b -         ",
"              l Z Z b L L g.a a ! a.a.s.b b ! ! / ! ! B B B ( r.r.b d d ! r.r.a ! ! a.a.s.b b ! / / ! b b ] x x _ S S           ",
"              l Z Z b L L g.a a ! a.a.s.b b ! ! / ! ! B B B ( r.r.b s d ! r.r.a ! ! a.a.s.b b ! / / ! b b ] x x _ S S           ",
"          0 0 : C C C.v v _ b b z a.a.z K K d d ~ d d m l l / / / f b b / r.r.b z z a.a.z P P d ~ ~ d K K m Z Z r.P P %         ",
"              : M M f W W V =X=Xz [.[.1 <X<X2 2 ].K K 8XP P a f f g g g z J J =Xz z [.[.1 <X<X2 ].].K yXyXQ x x < O O           ",
"              : M M f W W V =X=Xz [.[.1 <X<X2 2 ].K K 8XP P a f f g g g z J J =Xz z [.[.1 <X<X2 ].].K yXyXQ x x < O O           ",
"                3 3 b b b ' *X*XE.7 7 -X:X:Xl l m :X:XdXa a b z z : b b b Z.Z.*XE.E.7 7 -X:X:Xl m m :XyXyXS G G 2               ",
"                3 3 b b b ' *X*XE.7 7 -X:X:Xl l m :X:XdXa a b z z o b b b Z.Z.*XE.E.7 7 -X:X:Xl m m :XyXyXS G G 2               ",
"              l.1 1 v ;X;XL c.c.e.<.<.w.E.E.m m m OXOX! l l r.P P z q.q.J.b b c.e.e.<.<.w.E.E.m m m OX_ _ l g.g.<.t t y         ",
"              { iXiXkX!.!.s T.T.b.8X8X@.L.L.<.<.q q.q.z s.s.c.+X+XaX8X8XpXz z T.b.b.8X8X@.L.L.<.q q q.1 1 e.2.2.L.y.y.%         ",
"              { iXiXkX!.!.s T.T.b.8X8X@.L.L.<.<.q q.q.z s.s.c.+X+XaX8X8XpXz z T.b.b.8X8X@.L.L.<.q q q.1 1 e.2.2.L.y.y.%         ",
"              j cXcX5Xc.c.<.b.b..XxXxX3.L.L.z.z.3.z.z.c.#X#Xe..X.X8X8X8X#X5 5 b..X.XxXxX3.L.L.z.3.3.z.U.U.[././.<X8 8           ",
"          j j n ; ; cX#X#Xv.z.z.&XqXqXz.z.z.e.e.b.L.L.T.0X0Xf.:.:.:.8X8X2XT.T.z.&X&XqXqXz.z.z.e.b.b.L.R.R.0X<.<.P D D I 6 6     ",
"          j j n ; ; cX#X#Xv.z.z.&XqXqXz.z.z.f.f.b.L.L.T.0X0Xf.:.:.:.8X0X2XT.T.z.&X&XqXqXz.z.z.e.b.b.L.R.R.0X<.<.P D D I 6 6     ",
"        X.sXsXy.7 7 3.XXXXs.n.n.2X.X.Xz.2.2.2.2.n..X.XhX0X0Xf.z z 1 T.T.e.f.f.n.2X2X.X.Xz.2.2.2.n.n..X9X9X3Xj.j.y.] ] D $ $     ",
"        X.pXsXy.7 7 3.XXXXs.n.n.2X.X.Xz.2.2.2.2.n..X.XhX0X0Xf.z z 1 T.T.f.f.f.n.2X2X.X.Xz.2.2.2.n.n..X9X9X3Xj.j.y.] ] D $ $     ",
"        % }.}.tXY.Y.wX7X7X>Xf.f.n.f.f.3.f.f.z.z.OXOXOXW.w.w.<.! 0.[.8X8X8X6X6Xf.n.n.f.f.3.f.f.z.OXOXOXOXOX2.y.y.s h h j         ",
"          f f ;XO.O.x.#X#X~.b.b.z.b.b.3.b.b.c.c.c.3.3.#.<.<.s.: < ~ H.H.8XY.Y.b.z.z.b.b.3.b.b.c.c.c.3.2.2.w.<.<.S `.`.S 4 4     ",
"          f f ;XO.O.x.#X#X~.b.b.z.b.b.3.b.b.c.c.c.3.3.#.<.<.s.< < ~ H.H.8XY.Y.b.z.z.b.b.3.b.b.c.c.c.3.2.2.w.<.<.S `.`.S 4 4     ",
"    l l *XpXpX0.c c p.K.K.c.3X3X%Xx.x.7.M.M._._.5.3.3.2.L.L.m m m 0.0.0.J.v.v.3X%X%Xx.x.7.M.M._.3.3.3.2.2.).7 7 n S.S.+ 0 0     ",
"    l l *XpXpX0.c c p.K.K.H.3X3X%Xx.x.7.M.M._._.5.3.3.2.L.L.m m m 0./ / J.v.v.3X%X%Xx.x.7.M.M._.5.9.3.2.2.).7 7 n S.S.+ 0 0     ",
"        P 1X1Xi.k.k.| 1.1.6.T.T.2X@X@Xz.z.z.n.n.c.z.z.b.0X0XP.s.s.0.c c 3.4.4.T.2X2X@X@Xz.z.z.n.z.z.z.OXOX6X,X<X-.: :  X        ",
"    q q o.; ; 4Xc.c.Y T.T.z.h.h.#X#X#Xb.z.z.b.b.L.L.L.$XqXqX.Xv.c.z.3.3.9.,.,.f.@X@X#X#Xb.z.z.b.L.L.L.E.E.,XI.I.P.Q Q m 5 5     ",
"    q q o.; ; 4Xc.c.Y T.T.z.h.h.#X#X#Xb.z.z.b.b.L.L.L.$XqXqX.Xc.c.z.3.3.z.,.,.f.@X@X#X#Xb.z.z.b.n.n.L.E.E.,XI.I.P.Q Q m 5 5     ",
"        0 %.%.{.c.c.Q.^.^.u q.q.s.c.c.L.L.L.c.c.c.E.E.-XP.P.P 0.0.c.n.n.n.,.,.q.s.s.c.c.L.L.L.c.c.c.E.=X=XuX0.0.V ( ( ~ $ $     ",
"          y y m t.t.2 j.j.U P P P q.q.v.c.c.q.q.w.y.y.}.r.r.s ! ! r.<.<.<.<.<.P P P q.q.v.c.c.q.w.w.y.].].k b b a.K K ,         ",
"          y y m t.t.2 j.j.U P P P q.q.v.c.c.q.q.w.y.y.}.r.r.s ! ! r.<.<.<.<.<.P P P q.q.v.c.c.q.w.w.y.].].k b b a.K K ,         ",
"              l Z Z b L L g.d d K a.a.q.P P b b ! V V / b b / Z.Z.W a a b r.r.d K K a.a.q.P P b ! ! V ( r.Q =.=._ S S           ",
"              l Z Z b L L g.d d K a.a.q.P P b b ! m m / b b / Z.Z.W a a b r.r.d K K a.a.q.P P b ! ! V ( ( Q =.=._ S S           ",
"          0 0 : C C C.v v _ b b K r.r.r.d d d d K b B f f f / r.r.g g g / Z.Z.b K K r.r.r.d d d W W B T T , Q Q S.a a %         ",
"              : M M f W W V B.B.g b b a.! ! g g W ( ( ~ d d g d d a W W W s s B.f g b b a.! ! g W W ( T T W v v @ < <           ",
"              : M M f W W V B.B.g b b a.! ! g g W ( ( ~ d d g d d a W W W s s B.g g b b a.! ! g W W ( T T W v v @ < <           ",
"                - - a F F E ^ ^ C N N h i i p p N ^ ^ R ) ) o : : : o o ) R R ^ C C N N h i i p N N ^ E E F a a -               ",
"                    4 - - l Z Z Z r r + O O + + r A A n . . 8       8 8 . n n Z Z Z r r + O O + r r A l l - 4 4                 ",
"                    4 - - l Z Z Z r r + O O + + r A A n . . 8       8 8 . n n Z Z Z r r + O O + r r A l l - 4 4                 ",
"                                                                                                                                "
};
