/* XPM */
static char *_62f177ddb1c489d8a17704fe79ad50a[] = {
/* columns rows colors chars-per-pixel */
"64 64 3 1 ",
"  c None",
". c #3D1737",
"X c white",
/* pixels */
"                                                                ",
"                                                                ",
"   ............                                                 ",
"  ..............                                                ",
"  ...XXXXXXXX...                                                ",
"  ..XXXXXXXXXX..                                                ",
"  ..XXXX..XXXX..                                                ",
"  ..XXXX..XXXX..                                                ",
"  ..XXXX..XXXX..                                                ",
"  ..XXXX..XXXX..                                                ",
"  ..XXXX..XXXX..                                                ",
"  ..XXXX..XXXX..                                                ",
"  ..XXXXXXXXXX..                                                ",
"  ...XXXXXXXX...                                                ",
"  ..............                                                ",
"   ............                                                 ",
"                                                                ",
"                                                                ",
"                                                                ",
"                                                                ",
"                                                                ",
"                                                                ",
"                                                                ",
"                                                                ",
"                                                                ",
"                                                                ",
"                                                                ",
"                                                                ",
"                                                                ",
"                                                                ",
"                                                                ",
"                                                                ",
"                                                                ",
"                                                                ",
"                                                                ",
"                                                                ",
"                                                                ",
"                                                                ",
"                                                                ",
"                                                                ",
"                                                                ",
"                                                                ",
"                                                                ",
"                                                                ",
"                                                                ",
"                                                                ",
"                                                                ",
"                                                                ",
"                                                                ",
"                                                                ",
"                                                                ",
"                                                                ",
"                                                                ",
"                                                                ",
"                                                                ",
"                                                                ",
"                                                                ",
"                                                                ",
"                                                                ",
"                                                                ",
"                                                                ",
"                                                                ",
"                                                                ",
"                                                                "
};
