/* XPM */
static char *_c4a60a983be4c129b5443e01b727a50[] = {
/* columns rows colors chars-per-pixel */
"64 64 3 1 ",
"  c None",
". c #3D1737",
"X c white",
/* pixels */
"                                                                ",
"                                                                ",
"  .............                                                 ",
"  ..............                                                ",
"  ..XXXXXXXXX...                                                ",
"  ..XXXXXXXXXX..                                                ",
"  ........XXXX..                                                ",
"  ........XXXX..                                                ",
"     ..XXXXXX...                                                ",
"     ..XXXXXX...                                                ",
"  ........XXXX..                                                ",
"  ........XXXX..                                                ",
"  ..XXXXXXXXXX..                                                ",
"  ..XXXXXXXXX...                                                ",
"  ..............                                                ",
"  .............                                                 ",
"                                                                ",
"                                                                ",
"                                                                ",
"                                                                ",
"                                                                ",
"                                                                ",
"                                                                ",
"                                                                ",
"                                                                ",
"                                                                ",
"                                                                ",
"                                                                ",
"                                                                ",
"                                                                ",
"                                                                ",
"                                                                ",
"                                                                ",
"                                                                ",
"                                                                ",
"                                                                ",
"                                                                ",
"                                                                ",
"                                                                ",
"                                                                ",
"                                                                ",
"                                                                ",
"                                                                ",
"                                                                ",
"                                                                ",
"                                                                ",
"                                                                ",
"                                                                ",
"                                                                ",
"                                                                ",
"                                                                ",
"                                                                ",
"                                                                ",
"                                                                ",
"                                                                ",
"                                                                ",
"                                                                ",
"                                                                ",
"                                                                ",
"                                                                ",
"                                                                ",
"                                                                ",
"                                                                ",
"                                                                "
};
