/* XPM */
static char *b94612b9fd6e42d5a82f15bb113635b1[] = {
/* columns rows colors chars-per-pixel */
"64 64 3 1 ",
"  c None",
". c #3D1737",
"X c white",
/* pixels */
"                                                                ",
"                                                                ",
"  ..............                                                ",
"  ..............                                                ",
"  ..XXXX..XXXX..                                                ",
"  ..XXXX..XXXX..                                                ",
"  ..XXXX..XXXX..                                                ",
"  ..XXXX..XXXX..                                                ",
"  ..XXXXXXXXXX..                                                ",
"  ...XXXXXXXXX..                                                ",
"  ........XXXX..                                                ",
"   .......XXXX..                                                ",
"        ..XXXX..                                                ",
"        ..XXXX..                                                ",
"        ........                                                ",
"        ........                                                ",
"                                                                ",
"                                                                ",
"                                                                ",
"                                                                ",
"                                                                ",
"                                                                ",
"                                                                ",
"                                                                ",
"                                                                ",
"                                                                ",
"                                                                ",
"                                                                ",
"                                                                ",
"                                                                ",
"                                                                ",
"                                                                ",
"                                                                ",
"                                                                ",
"                                                                ",
"                                                                ",
"                                                                ",
"                                                                ",
"                                                                ",
"                                                                ",
"                                                                ",
"                                                                ",
"                                                                ",
"                                                                ",
"                                                                ",
"                                                                ",
"                                                                ",
"                                                                ",
"                                                                ",
"                                                                ",
"                                                                ",
"                                                                ",
"                                                                ",
"                                                                ",
"                                                                ",
"                                                                ",
"                                                                ",
"                                                                ",
"                                                                ",
"                                                                ",
"                                                                ",
"                                                                ",
"                                                                ",
"                                                                "
};
