/* XPM */
static char *_8ae4ebae9c44dafbe79d559353d3a2d[] = {
/* columns rows colors chars-per-pixel */
"64 64 7 1 ",
"  c None",
". c #3C1636",
"X c #3D1737",
"o c #3E1838",
"O c #3F1939",
"+ c #FDFDFD",
"@ c white",
/* pixels */
"                                                                ",
"                                                                ",
"  XXXXXXXXXXXXXX                                                ",
"  XXXXXXXXXXXXXX                                                ",
"  Xo@@@@@@@@@@XX                                                ",
"  Xo@@@@@@@@@@XX                                                ",
"  Xo@@@@XXXXXXXX                                                ",
"  Xo@@@@XXXXXXXX                                                ",
"  Xo@@@@@@@@@XXX                                                ",
"  XXo@@@@@@@@@XX                                                ",
"  XXXXXXXo@@@@XX                                                ",
"  XXXXXXXo@@@@XX                                                ",
"  XX@@@@@@@@@@XX                                                ",
"  XX@@@@@@@@@XXX                                                ",
"  XXXXXXXXXXXXXX                                                ",
"  XXXXXXXXXXXXX                                                 ",
"                                                                ",
"                                                                ",
"                                                                ",
"                                                                ",
"                                                                ",
"                                                                ",
"                                                                ",
"                                                                ",
"                                                                ",
"                                                                ",
"                                                                ",
"                                                                ",
"                                                                ",
"                                                                ",
"                                                                ",
"                                                                ",
"                                                                ",
"                                                                ",
"                                                                ",
"                                                                ",
"                                                                ",
"                                                                ",
"                                                                ",
"                                                                ",
"                                                                ",
"                                                                ",
"                                                                ",
"                                                                ",
"                                                                ",
"                                                                ",
"                                                                ",
"                                                                ",
"                                                                ",
"                                                                ",
"                                                                ",
"                                                                ",
"                                                                ",
"                                                                ",
"                                                                ",
"                                                                ",
"                                                                ",
"                                                                ",
"                                                                ",
"                                                                ",
"                                                                ",
"                                                                ",
"                                                                ",
"                                                                "
};
