/* XPM */
static char *_4be2b4233d34fc1b6b6afdfc86f2187[] = {
/* columns rows colors chars-per-pixel */
"64 64 6 1 ",
"  c None",
". c #3C1636",
"X c #3D1737",
"o c #3F1939",
"O c #FDFDFD",
"+ c white",
/* pixels */
"                                                                ",
"                                                                ",
"   XXXXXXXXXXXXX                                                ",
"  XXXXXXXXXXXXXX                                                ",
"  XXo+++++++++XX                                                ",
"  Xo++++++++++XX                                                ",
"  Xo++++XXXXXXXX                                                ",
"  Xo++++XXXXXXXX                                                ",
"  Xo+++++++++XXX                                                ",
"  Xo++++++++++XX                                                ",
"  Xo++++Xo++++XX                                                ",
"  Xo++++Xo++++XX                                                ",
"  Xo++++++++++XX                                                ",
"  XXo++++++++XXX                                                ",
"  XXXXXXXXXXXXXX                                                ",
"   XXXXXXXXXXXX                                                 ",
"                                                                ",
"                                                                ",
"                                                                ",
"                                                                ",
"                                                                ",
"                                                                ",
"                                                                ",
"                                                                ",
"                                                                ",
"                                                                ",
"                                                                ",
"                                                                ",
"                                                                ",
"                                                                ",
"                                                                ",
"                                                                ",
"                                                                ",
"                                                                ",
"                                                                ",
"                                                                ",
"                                                                ",
"                                                                ",
"                                                                ",
"                                                                ",
"                                                                ",
"                                                                ",
"                                                                ",
"                                                                ",
"                                                                ",
"                                                                ",
"                                                                ",
"                                                                ",
"                                                                ",
"                                                                ",
"                                                                ",
"                                                                ",
"                                                                ",
"                                                                ",
"                                                                ",
"                                                                ",
"                                                                ",
"                                                                ",
"                                                                ",
"                                                                ",
"                                                                ",
"                                                                ",
"                                                                ",
"                                                                "
};
