/* XPM */
static char *abb04b7d3e4045e0a5846a82d2a5c3b0[] = {
/* columns rows colors chars-per-pixel */
"64 64 6 1 ",
"  c None",
". c #3C1636",
"X c #3D1737",
"o c #3F1939",
"O c #FDFDFD",
"+ c white",
/* pixels */
"                                                                ",
"                                                                ",
"  XXXXXXXXXXXXX                                                 ",
"  XXXXXXXXXXXXXX                                                ",
"  Xo+++++++++XXX                                                ",
"  Xo++++++++++XX                                                ",
"  XXXXXXXo++++XX                                                ",
"  XXXXXXXo++++XX                                                ",
"        Xo++++XX                                                ",
"        Xo++++XX                                                ",
"        Xo++++XX                                                ",
"        Xo++++XX                                                ",
"        Xo++++XX                                                ",
"        Xo++++XX                                                ",
"        XXXXXXXX                                                ",
"        XXXXXXXX                                                ",
"                                                                ",
"                                                                ",
"                                                                ",
"                                                                ",
"                                                                ",
"                                                                ",
"                                                                ",
"                                                                ",
"                                                                ",
"                                                                ",
"                                                                ",
"                                                                ",
"                                                                ",
"                                                                ",
"                                                                ",
"                                                                ",
"                                                                ",
"                                                                ",
"                                                                ",
"                                                                ",
"                                                                ",
"                                                                ",
"                                                                ",
"                                                                ",
"                                                                ",
"                                                                ",
"                                                                ",
"                                                                ",
"                                                                ",
"                                                                ",
"                                                                ",
"                                                                ",
"                                                                ",
"                                                                ",
"                                                                ",
"                                                                ",
"                                                                ",
"                                                                ",
"                                                                ",
"                                                                ",
"                                                                ",
"                                                                ",
"                                                                ",
"                                                                ",
"                                                                ",
"                                                                ",
"                                                                ",
"                                                                "
};
