/* XPM */
static char *c3bd2e5543d94e509155e06f375b1ebd[] = {
/* columns rows colors chars-per-pixel */
"64 64 6 1 ",
"  c None",
". c #3C1636",
"X c #3D1737",
"o c #3F1939",
"O c #FDFDFD",
"+ c white",
/* pixels */
"                                                                ",
"                                                                ",
"   XXXXXXXXXXXX                                                 ",
"  XXXXXXXXXXXXXX                                                ",
"  XXo++++++++XXX                                                ",
"  Xo++++++++++XX                                                ",
"  Xo++++Xo++++XX                                                ",
"  Xo++++Xo++++XX                                                ",
"  Xo++++++++++XX                                                ",
"  XXo+++++++++XX                                                ",
"  XXXXXXXo++++XX                                                ",
"  XXXXXXXo++++XX                                                ",
"  Xo++++++++++XX                                                ",
"  Xo+++++++++XXX                                                ",
"  XXXXXXXXXXXXXX                                                ",
"  XXXXXXXXXXXXX                                                 ",
"                                                                ",
"                                                                ",
"                                                                ",
"                                                                ",
"                                                                ",
"                                                                ",
"                                                                ",
"                                                                ",
"                                                                ",
"                                                                ",
"                                                                ",
"                                                                ",
"                                                                ",
"                                                                ",
"                                                                ",
"                                                                ",
"                                                                ",
"                                                                ",
"                                                                ",
"                                                                ",
"                                                                ",
"                                                                ",
"                                                                ",
"                                                                ",
"                                                                ",
"                                                                ",
"                                                                ",
"                                                                ",
"                                                                ",
"                                                                ",
"                                                                ",
"                                                                ",
"                                                                ",
"                                                                ",
"                                                                ",
"                                                                ",
"                                                                ",
"                                                                ",
"                                                                ",
"                                                                ",
"                                                                ",
"                                                                ",
"                                                                ",
"                                                                ",
"                                                                ",
"                                                                ",
"                                                                ",
"                                                                "
};
