/* XPM */
static char *_af4e84e2ffc491ce73678840e8e5721GW9elUfsYxS8Mkml[] = {
/* columns rows colors chars-per-pixel */
"64 64 14 1 ",
"  c None",
". c black",
"X c #773F00",
"o c #A75F1F",
"O c #DF771F",
"+ c #E73F67",
"@ c #B78727",
"# c #DFB700",
"$ c #FFF700",
"% c #FF9747",
"& c #D7BF67",
"* c #FF8FAF",
"= c #FFF79F",
"- c white",
/* pixels */
"                                                                ",
"                                                                ",
"                                                                ",
"                                                                ",
"                                                                ",
"                                                                ",
"                                                                ",
"                                                                ",
"                                                                ",
"                                                                ",
"                                                                ",
"                              ..             ...                ",
"                              ..             ...                ",
"                              &&...        ..&&&                ",
"                              &&...        ..&&&                ",
"                              &&...        ..&&&                ",
"                         .....  &&&...ooooo.....                ",
"                         .....  &&&...ooooo.....                ",
"                         ..+++..@@@ooo$$$$$oo+++...             ",
"                         ..+++..@@@ooo$$$$$oo+++...             ",
"                         ..+++..@@@ooo$$$$$oo+++...             ",
"                         ..***++XXXooo@@###oo***...             ",
"                         ..***++XXXooo@@###oo***...             ",
"              ...@@&&&.....ooo@@&&&ooo$$$$$oo@@@ooo..   @@...   ",
"              ...@@&&&.....ooo@@&&&ooo$$$$$oo@@@ooo..   @@...   ",
"              ...@@&&&.....ooo@@&&&ooo$$$$$oo@@@ooo..   @@...   ",
"                 .....@@@..&&&=====XXX@@###XX===&&&..@@@..      ",
"                 .....@@@..&&&=====XXX@@###XX===&&&..@@@..      ",
"                 .....@@@..&&&=====XXX@@###XX===&&&..@@@..      ",
"                   ......oo===@@XXX&&&ooooo&&XXX@@@==...        ",
"                   ......oo===@@XXX&&&ooooo&&XXX@@@==...        ",
"              ...&&@@@ooo==@@@--ooo---&&&&&--ooo---@@...&&...   ",
"              ...&&@@@ooo==@@@--ooo---&&&&&--ooo---@@...&&...   ",
"              ...&&@@@ooo==@@@--ooo---&&&&&--ooo---@@...&&...   ",
"                 ........==@@@--...---&&&&&--...---@@ooo..      ",
"                 ........==@@@--...---&&&&&--...---@@ooo..      ",
"                   ...XXX&&===&&XXX@@@=====@@XXX&&&==...        ",
"                   ...XXX&&===&&XXX@@@=====@@XXX&&&==...        ",
"                   ...XXX&&===&&XXX@@@=====@@XXX&&&==...        ",
"                      ...&&&&&==========XXXXX======&&...        ",
"                      ...&&&&&==========XXXXX======&&...        ",
"                      .....&&&&&---@@@XX@@@==...&&&..           ",
"                      .....&&&&&---@@@XX@@@==...&&&..           ",
"                      .....&&&&&---@@@XX@@@==...&&&..           ",
"                   ...@@@&&XXXXXXXX&&&..&&&=====...             ",
"                   ...@@@&&XXXXXXXX&&&..&&&=====...             ",
"                   ...@@@&&XXXXXXXX&&&..&&&=====...             ",
"                 ..===&&&XX...@@XXXXXX@@...XX&&&XXX..           ",
"                 ..===&&&XX...@@XXXXXX@@...XX&&&XXX..           ",
"              ...&&@@@...oo...&&======&&...  ...@@@..           ",
"              ...&&@@@...oo...&&======&&...  ...@@@..           ",
"              ...&&@@@...oo...&&======&&...  ...@@@..           ",
"            ..&&&==...   .....XX&&&&&&XX.....   ...             ",
"            ..&&&==...   .....XX&&&&&&XX.....   ...             ",
"            ..@@@==......oo&&&@@......@@&&&oo...                ",
"            ..@@@==......oo&&&@@......@@&&&oo...                ",
"            ..@@@==......oo&&&@@......@@&&&oo...                ",
"              ........%%%OO.....      .....OO%%%...             ",
"              ........%%%OO.....      .....OO%%%...             ",
"                   ........                ........             ",
"                   ........                ........             ",
"                   ........                ........             ",
"                                                                ",
"                                                                "
};
