/* XPM */
static char *_d88bab54b664f1bc07d460a4dbceae99TK0UTfUGjV5SNd4[] = {
/* columns rows colors chars-per-pixel */
"64 64 14 1 ",
"  c None",
". c black",
"X c #773F00",
"o c #A75F1F",
"O c #DF771F",
"+ c #E73F67",
"@ c #B78727",
"# c #DFB700",
"$ c #FFF700",
"% c #FF9747",
"& c #D7BF67",
"* c #FF8FAF",
"= c #FFF79F",
"- c white",
/* pixels */
"                                                                ",
"                                                                ",
"                                                                ",
"                                                                ",
"                                                                ",
"                                                                ",
"                                                                ",
"                                                                ",
"                                                                ",
"                                                                ",
"                                                                ",
"                   ...             ..                           ",
"                   ...             ..                           ",
"                   &&&..        ...&&                           ",
"                   &&&..        ...&&                           ",
"                   &&&..        ...&&                           ",
"                   .....ooooo...&&&  .....                      ",
"                   .....ooooo...&&&  .....                      ",
"                ...+++oo$$$$$ooo@@@..+++..                      ",
"                ...+++oo$$$$$ooo@@@..+++..                      ",
"                ...+++oo$$$$$ooo@@@..+++..                      ",
"                ...***oo###@@oooXXX++***..                      ",
"                ...***oo###@@oooXXX++***..                      ",
"      ...@@   ..ooo@@@oo$$$$$ooo&&&@@ooo.....&&&@@...           ",
"      ...@@   ..ooo@@@oo$$$$$ooo&&&@@ooo.....&&&@@...           ",
"      ...@@   ..ooo@@@oo$$$$$ooo&&&@@ooo.....&&&@@...           ",
"         ..@@@..&&&===XX###@@XXX=====&&&..@@@.....              ",
"         ..@@@..&&&===XX###@@XXX=====&&&..@@@.....              ",
"         ..@@@..&&&===XX###@@XXX=====&&&..@@@.....              ",
"           ...==@@@XXX&&ooooo&&&XXX@@===oo......                ",
"           ...==@@@XXX&&ooooo&&&XXX@@===oo......                ",
"      ...&&...@@---ooo--&&&&&---ooo--@@@==ooo@@@&&...           ",
"      ...&&...@@---ooo--&&&&&---ooo--@@@==ooo@@@&&...           ",
"      ...&&...@@---ooo--&&&&&---ooo--@@@==ooo@@@&&...           ",
"         ..ooo@@---...--&&&&&---...--@@@==........              ",
"         ..ooo@@---...--&&&&&---...--@@@==........              ",
"           ...==&&&XXX@@=====@@@XXX&&===&&XXX...                ",
"           ...==&&&XXX@@=====@@@XXX&&===&&XXX...                ",
"           ...==&&&XXX@@=====@@@XXX&&===&&XXX...                ",
"           ...&&======XXXXX==========&&&&&...                   ",
"           ...&&======XXXXX==========&&&&&...                   ",
"              ..&&&...==@@@XX@@@---&&&&&.....                   ",
"              ..&&&...==@@@XX@@@---&&&&&.....                   ",
"              ..&&&...==@@@XX@@@---&&&&&.....                   ",
"                ...=====&&&..&&&XXXXXXXX&&@@@...                ",
"                ...=====&&&..&&&XXXXXXXX&&@@@...                ",
"                ...=====&&&..&&&XXXXXXXX&&@@@...                ",
"              ..XXX&&&XX...@@XXXXXX@@...XX&&&===..              ",
"              ..XXX&&&XX...@@XXXXXX@@...XX&&&===..              ",
"              ..@@@...  ...&&======&&...oo...@@@&&...           ",
"              ..@@@...  ...&&======&&...oo...@@@&&...           ",
"              ..@@@...  ...&&======&&...oo...@@@&&...           ",
"                ...   .....XX&&&&&&XX.....   ...==&&&..         ",
"                ...   .....XX&&&&&&XX.....   ...==&&&..         ",
"                   ...oo&&&@@......@@&&&oo......==@@@..         ",
"                   ...oo&&&@@......@@&&&oo......==@@@..         ",
"                   ...oo&&&@@......@@&&&oo......==@@@..         ",
"                ...%%%OO.....      .....OO%%%........           ",
"                ...%%%OO.....      .....OO%%%........           ",
"                ........                ........                ",
"                ........                ........                ",
"                ........                ........                ",
"                                                                ",
"                                                                "
};
