/* XPM */
static char *_bfcdcbad861407c9a5a49eb538800dc[] = {
/* columns rows colors chars-per-pixel */
"64 64 14 1 ",
"  c None",
". c black",
"X c #773F00",
"o c #A75F1F",
"O c #DF771F",
"+ c #E73F67",
"@ c #B78727",
"# c #DFB700",
"$ c #FFF700",
"% c #FF9747",
"& c #D7BF67",
"* c #FF8FAF",
"= c #FFF79F",
"- c white",
/* pixels */
"                                                                ",
"                                                                ",
"                                                                ",
"                                                                ",
"                                                                ",
"                                                                ",
"                                                                ",
"                                                                ",
"                      ..                ..                      ",
"                      ..                ..                      ",
"                      ..                ..                      ",
"                      &&...  oooooo  ...&&                      ",
"                      &&...  oooooo  ...&&                      ",
"                ........@@@oo######oo@@@........                ",
"                ........@@@oo######oo@@@........                ",
"                ........@@@oo######oo@@@........                ",
"                ...***++XXXoo$$$$$$ooXXX++***...                ",
"                ...***++XXXoo$$$$$$ooXXX++***...                ",
"                ...ooooo&&&oo######oo&&&ooooo...                ",
"                ...ooooo&&&oo######oo&&&ooooo...                ",
"                ...ooooo&&&oo######oo&&&ooooo...                ",
"      ...@@&&&  ...&&&--XXX--oooooo--XXX--&&&...  &&&@@...      ",
"      ...@@&&&  ...&&&--XXX--oooooo--XXX--&&&...  &&&@@...      ",
"         .....@@...&&&--...--&&&&&&--...--&&&...@@.....         ",
"         .....@@...&&&--...--&&&&&&--...--&&&...@@.....         ",
"         .....@@...&&&--...--&&&&&&--...--&&&...@@.....         ",
"              ..&&&@@@==&&&&&======&&&&&==@@@&&&..              ",
"              ..&&&@@@==&&&&&======&&&&&==@@@&&&..              ",
"              ..&&&@@@==&&&&&======&&&&&==@@@&&&..              ",
"      ...&&@@@oo===========@@XXXXXX@@===========oo@@@&&...      ",
"      ...&&@@@oo===========@@XXXXXX@@===========oo@@@&&...      ",
"         .......======XX---XX++++++XX---XX===ooo.......         ",
"         .......======XX---XX++++++XX---XX===ooo.......         ",
"         .......======XX---XX++++++XX---XX===ooo.......         ",
"              ..XXX===&&XXX++++++++++XXX&&===&&&..              ",
"              ..XXX===&&XXX++++++++++XXX&&===&&&..              ",
"                ...XXX@@&&&********++&&&@@XXX...                ",
"                ...XXX@@&&&********++&&&@@XXX...                ",
"                ...XXX@@&&&********++&&&@@XXX...                ",
"                ......XX@@@==++++++==@@@XX......                ",
"                ......XX@@@==++++++==@@@XX......                ",
"              ..&&&&&&XXXXXXX======XXXXXXX&&&&&&..              ",
"              ..&&&&&&XXXXXXX======XXXXXXX&&&&&&..              ",
"              ..&&&&&&XXXXXXX======XXXXXXX&&&&&&..              ",
"           ...&&@@@........@@XXXXXX@@........@@@&&...           ",
"           ...&&@@@........@@XXXXXX@@........@@@&&...           ",
"           ...&&@@@........@@XXXXXX@@........@@@&&...           ",
"         ..===@@...     ...&&======@@...XX......oo===..         ",
"         ..===@@...     ...&&======@@...XX......oo===..         ",
"         ..&&&==...     ...XX&&&&&&XX...XX   ...==&&&..         ",
"         ..&&&==...     ...XX&&&&&&XX...XX   ...==&&&..         ",
"         ..&&&==...     ...XX&&&&&&XX...XX   ...==&&&..         ",
"           .....      .....@@......@@.....      .....           ",
"           .....      .....@@......@@.....      .....           ",
"                   ...oo&&&..      ..&&&oo...                   ",
"                   ...oo&&&..      ..&&&oo...                   ",
"                   ...oo&&&..      ..&&&oo...                   ",
"                ...%%%OO...          ...OO%%%...                ",
"                ...%%%OO...          ...OO%%%...                ",
"                ........                ........                ",
"                ........                ........                ",
"                ........                ........                ",
"                                                                ",
"                                                                "
};
