/* XPM */
static char *_cfe70b483614303b69d03d9ee148bf2AHw1v8Qm2HasTQ0R[] = {
/* columns rows colors chars-per-pixel */
"36 36 136 2 ",
"   c None",
".  c #005D00",
"X  c #006404",
"o  c #00640A",
"O  c #00680F",
"+  c #006713",
"@  c #006718",
"#  c #006A1A",
"$  c #1A6C13",
"%  c #246F16",
"&  c #277017",
"*  c #21741C",
"=  c #2C721A",
"-  c #33751D",
";  c #397F1F",
":  c #267624",
">  c #3C7B23",
",  c #317B29",
"<  c #507D19",
"1  c #457F26",
"2  c #398520",
"3  c #3B802C",
"4  c #55801E",
"5  c #4B8027",
"6  c #43832E",
"7  c #518121",
"8  c #5E8D23",
"9  c #53862B",
"0  c #55892E",
"q  c #508932",
"w  c #5E8F32",
"e  c #5E9135",
"r  c #5A933A",
"t  c #6F922C",
"y  c #779427",
"u  c #7E9625",
"i  c #76962C",
"p  c #7A972A",
"a  c #7C992D",
"s  c #639335",
"d  c #6C9730",
"f  c #669A37",
"g  c #659538",
"h  c #689739",
"j  c #6B9C3B",
"k  c #739832",
"l  c #6BA33A",
"z  c #74A73E",
"x  c #71AA3D",
"c  c #709F40",
"v  c #72A445",
"b  c #7BA543",
"n  c #7DAC44",
"m  c #7CB043",
"M  c #819725",
"N  c #879F2E",
"B  c #899D2A",
"V  c #9AAA2D",
"C  c #87A335",
"Z  c #8DA432",
"A  c #83A73C",
"S  c #93AB36",
"D  c #98AD32",
"F  c #9EB133",
"G  c #9DB63F",
"H  c #A1B035",
"J  c #AAB736",
"K  c #A2B53A",
"L  c #B3C33F",
"P  c #BBC73A",
"I  c #BEC93B",
"U  c #C0CA3A",
"Y  c #82AD46",
"T  c #84B247",
"R  c #8DB444",
"E  c #86B549",
"W  c #89B649",
"Q  c #89B84D",
"!  c #91BA49",
"~  c #9CBD4B",
"^  c #94BF54",
"/  c #92C057",
"(  c #9AC254",
")  c #9DC75A",
"_  c #9EC85B",
"`  c #A6C24C",
"'  c #A9C74E",
"]  c #A9C84F",
"[  c #BCC741",
"{  c #B2C649",
"}  c #B7CC4E",
"|  c #BBCD4C",
" . c #BED04F",
".. c #A0C757",
"X. c #A5C957",
"o. c #ABCA54",
"O. c #A0C759",
"+. c #A3CA5A",
"@. c #ACCF5A",
"#. c #B3CC51",
"$. c #B8CE51",
"%. c #A9D25C",
"&. c #BDD252",
"*. c #B9D658",
"=. c #C3CF47",
"-. c #C0CE49",
";. c #C7D045",
":. c #CFD646",
">. c #CED546",
",. c #C6D34A",
"<. c #C6D34B",
"1. c #C7D34B",
"2. c #C5D44F",
"3. c #C9D449",
"4. c #C9D549",
"5. c #C8D44A",
"6. c #C9D44A",
"7. c #CBD64A",
"8. c #CFD749",
"9. c #CAD348",
"0. c #CFDC4D",
"q. c #D4D643",
"w. c #D0D444",
"e. c #D1D645",
"r. c #D0D745",
"t. c #D1D745",
"y. c #D3D744",
"u. c #D2D745",
"i. c #D0D646",
"p. c #D0D747",
"a. c #D1D645",
"s. c #D6D842",
"d. c #D8DB44",
"f. c #C3D653",
"g. c #C1DB51",
"h. c #C5D954",
/* pixels */
"                                                                        ",
"                                                                        ",
"                                              9 W         T 5           ",
"                                              < { n     A 0.4           ",
"                                                h E   3 ' K             ",
"                                                  T   ( ^               ",
"                                                  Y c ~  .9             ",
"                                                ( W 9 : ] L B           ",
"                                              ( m 0     , o.*.j         ",
"                            = - p i y M 7 o   x .         # j n         ",
"                  @.%.    = * J d.s.>.f.d + - %               & -       ",
"                @.g.>     ; H Z i a k r K 8 *                   -       ",
"  = 0 r e       @.!       D e.( ^ ( ( ^ 6.P                             ",
"  $ ( h.*.Q =   b         F >.o.#.+.+.o.>.I @                           ",
"    w u t j E - o         F >.#.;.-.X.X.>.I                             ",
"          X f Y -         F e.X.+.| X.) 6.I                             ",
"            X j Y         F e.X.+._ o.o.6.I                             ",
"              . ^ @.      F e.+.+._ #.} <.I                             ",
"                - l (     F e.o.} } +.O.6.I                             ",
"              =   . l +.  F q.#.o.} X.) 6.I #                           ",
"          $ j z     o s v V e.+._ _ +.) 6.U                             ",
"          1 n >         q S 8...+.+._ ) 6.L 6                           ",
"        - 2 =           n v [ &._ $.$.+.#.b E                           ",
"          -               Y C p h a a g j W 0                           ",
"                          F ;.` { / ( ^ =.I                             ",
"                          F e.$.| +.+._ 6.I #                           ",
"                          F e.X.o.+.#.#.<.I                             ",
"                          F e.+.) +.=.#.<.I                             ",
"                          F e.o.} o._ ) 9.I                             ",
"                          R 2.#.-.o.} O.@.' O                           ",
"                          N &.+.+.+.X.+.#.K                             ",
"                            Z %.+.+.+.%.G                               ",
"                              e s s s s                                 ",
"                                                                        ",
"                                                                        ",
"                                                                        "
};
