/* XPM */
static char *cheese1708876898[] = {
/* columns rows colors chars-per-pixel */
"64 64 6 1 ",
"  c None",
". c black",
"X c #826B37",
"o c #BF8915",
"O c #D4AB44",
"+ c #E3C274",
/* pixels */
"                                                                ",
"                                                                ",
"                                                                ",
"                                                                ",
"                                                                ",
"                                                                ",
"                                                                ",
"                                                                ",
"                                                                ",
"                                                                ",
"                                                                ",
"                                                                ",
"                                                                ",
"                                                                ",
"                                                                ",
"                                                                ",
"                                                                ",
"                                                                ",
"                                                                ",
"                                                                ",
"                                                                ",
"                                                                ",
"                                                                ",
"                                                                ",
"                                                                ",
"                          ....                                  ",
"                       ...OOOO.                                 ",
"                     ..OOOOOOOO.                                ",
"                   ..OOOOOOXXOOO.                               ",
"                 ..OOOOOOOXXXXOOO.                              ",
"               ..OOOOOOOOXXoooXOOO..                            ",
"              .OOOOXOOOOOXoooooOOOOO.                           ",
"            ..OOOOXooOOOOOooooOOOOOOO.                          ",
"           .++OOOOOoOOOOOOOooOOOOOOOOO.                         ",
"           .oo+++OOOOOOOOOOOOOOOOOOOOOO..                       ",
"           .OOooo++++OOOOOOOOOOOOOOOOOOOO.                      ",
"           .OOOOOoooo+++OOOOOOOOOOOOOXXOOO.                     ",
"           .OOOOOOOOOooo++++OOOOOOOOXoooOOO.                    ",
"           .OOOOOOOOOOOOoooo+++OOOOOOooOOOOO..                  ",
"           .OOOOXoOOOOOOOOOOooo++++OOOOOOOOOOO.                 ",
"           .OOOXoooOOOOOOOOOOOOoooo+++OOOOOOOOO.                ",
"           .OOOXoooOOOOOOOOOOOOOOOOooo++++OOOOOO..              ",
"           .OOOOXoOOOOOOOOOOOOOOOOOOOOoooo+++OOOOO.             ",
"           .OOOOOOOOOOOOOOOOOOOOOOOOOOOOOOooo++OOOO.            ",
"           .OOOOOOOOOOOOOOOOOOOOOOXoooOOOOOOOoo+++OO.           ",
"           .OOOOOOOOOOOOooOOOOOOOXoooooOOOOOOOOooo+++.          ",
"           .OOOOOOOOOOOXoooOOOOOXXooooooOOOOOOOOOOooo.          ",
"           .OOOOOOXoOOOXoooOOOOOXoooooooOOOOOOOOOOOOO.          ",
"           .OOOOOOXoOOOXoooOOOOOXoooooooOOOOXoOOOOOOO.          ",
"           .OOOOOOOOOOOOXXOOOOOOXXooooooOOOOXoOOOOOO.           ",
"            ...OOOOOOOOOOOOOOOOOOXXooooOOOOOOOOOOOo.            ",
"               ....OOOOOOOOOOOOOOOXXooOOOOOOOOOOOOo.            ",
"                   ...OOOOOOOOOOOOOOOOOOOOOOOOOOOOo.            ",
"                      ....OOOOOOOOOOOOOOOOOOOOXoOOOo.           ",
"                          ...OOOOOOOOOOOOOOOOXoooOOOo.          ",
"                             ...OOOOOOOOOOOOOXoooOOOO.          ",
"                                ....OOOOOOOOOOXoOOOOO.          ",
"                                    ....OOOOOOOOOOOOo.          ",
"                                        ....OOOOOOOo.           ",
"                                            ...OOOOo.           ",
"                                               ...OOo.          ",
"                                                  ...           ",
"                                                                ",
"                                                                "
};
